<mxfile host="www.draw.io" modified="2019-10-20T17:00:05.096Z" agent="Mozilla/5.0 (Windows NT 6.1; Win64; x64; rv:69.0) Gecko/20100101 Firefox/69.0" etag="1C-lyC-ntrjlKIoTVvL6" version="12.1.3" type="github" pages="1">
  <diagram id="SGxn4rbbf4xmvFjjaIz-" name="Page-1">
    <mxGraphModel dx="1955" dy="1083" grid="0" gridSize="6" guides="1" tooltips="1" connect="1" arrows="1" fold="1" page="1" pageScale="1" pageWidth="1100" pageHeight="850" math="0" shadow="0">
      <root>
        <mxCell id="0"/>
        <mxCell id="1" parent="0"/>
        <mxCell id="J23lSuYAIVUN5fBZNIuc-1" value="" style="rounded=0;whiteSpace=wrap;html=1;strokeWidth=1;" vertex="1" parent="1">
          <mxGeometry y="3" width="1100" height="848" as="geometry"/>
        </mxCell>
        <mxCell id="rbb1ejAeYVXkkltf7h_X-2" value="" style="rounded=0;whiteSpace=wrap;html=1;" parent="1" vertex="1">
          <mxGeometry x="375.5" y="567" width="384" height="192" as="geometry"/>
        </mxCell>
        <mxCell id="rbb1ejAeYVXkkltf7h_X-10" value="" style="rounded=0;whiteSpace=wrap;html=1;strokeWidth=1;direction=south;" parent="1" vertex="1">
          <mxGeometry x="375.5" y="567" width="48" height="192" as="geometry"/>
        </mxCell>
        <mxCell id="rbb1ejAeYVXkkltf7h_X-1" value="" style="rounded=0;whiteSpace=wrap;html=1;" parent="1" vertex="1">
          <mxGeometry x="375.5" y="128.5" width="384" height="192" as="geometry"/>
        </mxCell>
        <mxCell id="rbb1ejAeYVXkkltf7h_X-3" value="" style="line;strokeWidth=1;direction=south;html=1;" parent="1" vertex="1">
          <mxGeometry x="621" y="128.5" width="10" height="192" as="geometry"/>
        </mxCell>
        <mxCell id="rbb1ejAeYVXkkltf7h_X-4" value="" style="verticalLabelPosition=bottom;html=1;verticalAlign=top;align=center;shape=mxgraph.floorplan.window;fillColor=#ffffff;strokeWidth=1;" parent="1" vertex="1">
          <mxGeometry x="651.5" y="122.5" width="72" height="10" as="geometry"/>
        </mxCell>
        <mxCell id="rbb1ejAeYVXkkltf7h_X-5" value="" style="rounded=0;whiteSpace=wrap;html=1;strokeWidth=1;" parent="1" vertex="1">
          <mxGeometry x="375.5" y="194.5" width="12" height="54" as="geometry"/>
        </mxCell>
        <mxCell id="rbb1ejAeYVXkkltf7h_X-7" value="&lt;font style=&quot;font-size: 16px&quot;&gt;Sleeping Loft&lt;/font&gt;" style="text;html=1;strokeColor=none;fillColor=none;align=center;verticalAlign=middle;whiteSpace=wrap;rounded=0;" parent="1" vertex="1">
          <mxGeometry x="663.5" y="194.5" width="40" height="20" as="geometry"/>
        </mxCell>
        <mxCell id="rbb1ejAeYVXkkltf7h_X-8" value="" style="verticalLabelPosition=bottom;html=1;verticalAlign=top;align=center;shape=mxgraph.floorplan.refrigerator;strokeWidth=1;direction=north;" parent="1" vertex="1">
          <mxGeometry x="375.5" y="711" width="54" height="48" as="geometry"/>
        </mxCell>
        <mxCell id="rbb1ejAeYVXkkltf7h_X-9" value="" style="verticalLabelPosition=bottom;html=1;verticalAlign=top;align=center;shape=mxgraph.floorplan.sink_2;strokeWidth=1;direction=north;" parent="1" vertex="1">
          <mxGeometry x="375.5" y="639" width="48" height="52" as="geometry"/>
        </mxCell>
        <mxCell id="rbb1ejAeYVXkkltf7h_X-11" value="" style="rounded=0;whiteSpace=wrap;html=1;strokeWidth=1;" parent="1" vertex="1">
          <mxGeometry x="384.5" y="579" width="30" height="18" as="geometry"/>
        </mxCell>
        <mxCell id="rbb1ejAeYVXkkltf7h_X-12" value="" style="ellipse;whiteSpace=wrap;html=1;aspect=fixed;strokeWidth=1;" parent="1" vertex="1">
          <mxGeometry x="389.5" y="584" width="8" height="8" as="geometry"/>
        </mxCell>
        <mxCell id="rbb1ejAeYVXkkltf7h_X-13" value="" style="ellipse;whiteSpace=wrap;html=1;aspect=fixed;strokeWidth=1;" parent="1" vertex="1">
          <mxGeometry x="401.5" y="584" width="8" height="8" as="geometry"/>
        </mxCell>
        <mxCell id="rbb1ejAeYVXkkltf7h_X-17" value="" style="verticalLabelPosition=bottom;html=1;verticalAlign=top;align=center;shape=mxgraph.floorplan.doorLeft;aspect=fixed;strokeWidth=1;" parent="1" vertex="1">
          <mxGeometry x="435.5" y="565" width="60" height="64" as="geometry"/>
        </mxCell>
        <mxCell id="rbb1ejAeYVXkkltf7h_X-18" value="" style="verticalLabelPosition=bottom;html=1;verticalAlign=top;align=center;shape=mxgraph.floorplan.window;fillColor=#ffffff;strokeWidth=1;" parent="1" vertex="1">
          <mxGeometry x="543.5" y="562" width="60" height="10" as="geometry"/>
        </mxCell>
        <mxCell id="rbb1ejAeYVXkkltf7h_X-19" value="" style="verticalLabelPosition=bottom;html=1;verticalAlign=top;align=center;shape=mxgraph.floorplan.window;fillColor=#ffffff;strokeWidth=1;" parent="1" vertex="1">
          <mxGeometry x="579.5" y="754" width="60" height="10" as="geometry"/>
        </mxCell>
        <mxCell id="rbb1ejAeYVXkkltf7h_X-20" value="" style="verticalLabelPosition=bottom;html=1;verticalAlign=top;align=center;shape=mxgraph.floorplan.window;fillColor=#ffffff;strokeWidth=1;" parent="1" vertex="1">
          <mxGeometry x="435.5" y="754" width="60" height="10" as="geometry"/>
        </mxCell>
        <mxCell id="rbb1ejAeYVXkkltf7h_X-21" value="" style="line;strokeWidth=1;direction=south;html=1;" parent="1" vertex="1">
          <mxGeometry x="682.5" y="567" width="10" height="66" as="geometry"/>
        </mxCell>
        <mxCell id="rbb1ejAeYVXkkltf7h_X-22" value="" style="verticalLabelPosition=bottom;html=1;verticalAlign=top;align=center;shape=mxgraph.floorplan.shower;strokeWidth=1;" parent="1" vertex="1">
          <mxGeometry x="687.5" y="567" width="72" height="60" as="geometry"/>
        </mxCell>
        <mxCell id="rbb1ejAeYVXkkltf7h_X-23" value="" style="line;strokeWidth=1;direction=south;html=1;" parent="1" vertex="1">
          <mxGeometry x="682.5" y="687" width="10" height="72" as="geometry"/>
        </mxCell>
        <mxCell id="rbb1ejAeYVXkkltf7h_X-24" value="" style="verticalLabelPosition=bottom;html=1;verticalAlign=top;align=center;shape=mxgraph.floorplan.window;fillColor=#ffffff;strokeWidth=1;direction=south;" parent="1" vertex="1">
          <mxGeometry x="370.5" y="639" width="10" height="50" as="geometry"/>
        </mxCell>
        <mxCell id="rbb1ejAeYVXkkltf7h_X-25" value="" style="verticalLabelPosition=bottom;html=1;verticalAlign=top;align=center;shape=mxgraph.floorplan.window;fillColor=#ffffff;strokeWidth=1;direction=south;" parent="1" vertex="1">
          <mxGeometry x="754.5" y="685" width="10" height="50" as="geometry"/>
        </mxCell>
        <mxCell id="rbb1ejAeYVXkkltf7h_X-26" value="" style="verticalLabelPosition=bottom;html=1;verticalAlign=top;align=center;shape=mxgraph.floorplan.toilet;strokeWidth=1;direction=west;" parent="1" vertex="1">
          <mxGeometry x="699.5" y="705" width="48" height="54" as="geometry"/>
        </mxCell>
        <mxCell id="rbb1ejAeYVXkkltf7h_X-27" value="" style="line;strokeWidth=1;direction=south;html=1;" parent="1" vertex="1">
          <mxGeometry x="678" y="657" width="10" height="66" as="geometry"/>
        </mxCell>
        <mxCell id="rbb1ejAeYVXkkltf7h_X-28" value="" style="rounded=0;whiteSpace=wrap;html=1;strokeWidth=1;" parent="1" vertex="1">
          <mxGeometry x="627.5" y="567" width="60" height="48" as="geometry"/>
        </mxCell>
        <mxCell id="rbb1ejAeYVXkkltf7h_X-29" value="" style="verticalLabelPosition=bottom;html=1;verticalAlign=top;align=center;shape=mxgraph.floorplan.window;fillColor=#ffffff;strokeWidth=1;direction=south;" parent="1" vertex="1">
          <mxGeometry x="617.5" y="572" width="10" height="36" as="geometry"/>
        </mxCell>
        <mxCell id="rbb1ejAeYVXkkltf7h_X-30" value="" style="verticalLabelPosition=bottom;html=1;verticalAlign=top;align=center;shape=mxgraph.floorplan.window;fillColor=#ffffff;strokeWidth=1;direction=south;" parent="1" vertex="1">
          <mxGeometry x="612.5" y="572" width="10" height="36" as="geometry"/>
        </mxCell>
        <mxCell id="rbb1ejAeYVXkkltf7h_X-31" value="" style="line;strokeWidth=1;html=1;" parent="1" vertex="1">
          <mxGeometry x="607.5" y="567" width="20" height="10" as="geometry"/>
        </mxCell>
        <mxCell id="rbb1ejAeYVXkkltf7h_X-32" value="" style="line;strokeWidth=1;html=1;" parent="1" vertex="1">
          <mxGeometry x="607.5" y="603" width="20" height="10" as="geometry"/>
        </mxCell>
        <mxCell id="rbb1ejAeYVXkkltf7h_X-33" value="&lt;font style=&quot;font-size: 16px&quot;&gt;Closet&lt;/font&gt;" style="text;html=1;strokeColor=none;fillColor=none;align=center;verticalAlign=middle;whiteSpace=wrap;rounded=0;" parent="1" vertex="1">
          <mxGeometry x="637.5" y="581" width="40" height="20" as="geometry"/>
        </mxCell>
        <mxCell id="rbb1ejAeYVXkkltf7h_X-37" style="edgeStyle=orthogonalEdgeStyle;rounded=0;orthogonalLoop=1;jettySize=auto;html=1;" parent="1" source="rbb1ejAeYVXkkltf7h_X-34" edge="1">
          <mxGeometry relative="1" as="geometry">
            <mxPoint x="657.5" y="555" as="targetPoint"/>
          </mxGeometry>
        </mxCell>
        <mxCell id="rbb1ejAeYVXkkltf7h_X-34" value="&lt;font style=&quot;font-size: 14px&quot;&gt;Optional W/D Combo&lt;/font&gt;" style="text;html=1;strokeColor=none;fillColor=none;align=center;verticalAlign=middle;whiteSpace=wrap;rounded=0;" parent="1" vertex="1">
          <mxGeometry x="683.5" y="501" width="84" height="20" as="geometry"/>
        </mxCell>
        <mxCell id="rbb1ejAeYVXkkltf7h_X-38" value="&lt;font style=&quot;font-size: 16px&quot;&gt;16&#39;&lt;/font&gt;" style="shape=dimension;direction=west;whiteSpace=wrap;html=1;align=center;points=[];verticalAlign=top;spacingTop=-8;labelBackgroundColor=#ffffff;strokeWidth=1;" parent="1" vertex="1">
          <mxGeometry x="375.5" y="329.5" width="384" height="40" as="geometry"/>
        </mxCell>
        <mxCell id="rbb1ejAeYVXkkltf7h_X-40" value="" style="edgeStyle=orthogonalEdgeStyle;rounded=0;orthogonalLoop=1;jettySize=auto;html=1;" parent="1" source="rbb1ejAeYVXkkltf7h_X-39" edge="1">
          <mxGeometry relative="1" as="geometry">
            <mxPoint x="373.5" y="218.5" as="targetPoint"/>
          </mxGeometry>
        </mxCell>
        <mxCell id="rbb1ejAeYVXkkltf7h_X-39" value="&lt;div style=&quot;font-size: 16px&quot;&gt;&lt;font style=&quot;font-size: 16px&quot;&gt;Optional Mini Split&lt;/font&gt;&lt;/div&gt;&lt;div style=&quot;font-size: 16px&quot;&gt;&lt;font style=&quot;font-size: 16px&quot;&gt;Heat/AC&lt;br&gt;&lt;/font&gt;&lt;/div&gt;" style="text;html=1;strokeColor=none;fillColor=none;align=center;verticalAlign=middle;whiteSpace=wrap;rounded=0;" parent="1" vertex="1">
          <mxGeometry x="280.5" y="208.5" width="40" height="20" as="geometry"/>
        </mxCell>
        <mxCell id="rbb1ejAeYVXkkltf7h_X-41" value="Billings" style="text;strokeColor=none;fillColor=none;html=1;fontSize=24;fontStyle=1;verticalAlign=middle;align=center;" parent="1" vertex="1">
          <mxGeometry x="374.5" y="66" width="100" height="40" as="geometry"/>
        </mxCell>
        <mxCell id="rbb1ejAeYVXkkltf7h_X-43" value="" style="shape=image;verticalLabelPosition=bottom;labelBackgroundColor=#ffffff;verticalAlign=top;aspect=fixed;imageAspect=0;image=data:image/png,iVBORw0KGgoAAAANSUhEUgAAAaEAAABxCAYAAAB84RxZAAAAGXRFWHRTb2Z0d2FyZQBBZG9iZSBJbWFnZVJlYWR5ccllPAAAA2ZpVFh0WE1MOmNvbS5hZG9iZS54bXAAAAAAADw/eHBhY2tldCBiZWdpbj0i77u/IiBpZD0iVzVNME1wQ2VoaUh6cmVTek5UY3prYzlkIj8+IDx4OnhtcG1ldGEgeG1sbnM6eD0iYWRvYmU6bnM6bWV0YS8iIHg6eG1wdGs9IkFkb2JlIFhNUCBDb3JlIDUuMC1jMDYxIDY0LjE0MDk0OSwgMjAxMC8xMi8wNy0xMDo1NzowMSAgICAgICAgIj4gPHJkZjpSREYgeG1sbnM6cmRmPSJodHRwOi8vd3d3LnczLm9yZy8xOTk5LzAyLzIyLXJkZi1zeW50YXgtbnMjIj4gPHJkZjpEZXNjcmlwdGlvbiByZGY6YWJvdXQ9IiIgeG1sbnM6eG1wTU09Imh0dHA6Ly9ucy5hZG9iZS5jb20veGFwLzEuMC9tbS8iIHhtbG5zOnN0UmVmPSJodHRwOi8vbnMuYWRvYmUuY29tL3hhcC8xLjAvc1R5cGUvUmVzb3VyY2VSZWYjIiB4bWxuczp4bXA9Imh0dHA6Ly9ucy5hZG9iZS5jb20veGFwLzEuMC8iIHhtcE1NOk9yaWdpbmFsRG9jdW1lbnRJRD0ieG1wLmRpZDo5QjE1RDFCN0VFRTVFMTExOTI5Qjg3Q0QzNTk5MEZGMCIgeG1wTU06RG9jdW1lbnRJRD0ieG1wLmRpZDpCQTQ1REZCQjM1RkUxMUUyQURCRUUxNERBRUY5NDFFOSIgeG1wTU06SW5zdGFuY2VJRD0ieG1wLmlpZDpCQTQ1REZCQTM1RkUxMUUyQURCRUUxNERBRUY5NDFFOSIgeG1wOkNyZWF0b3JUb29sPSJBZG9iZSBQaG90b3Nob3AgQ1M1LjEgV2luZG93cyI+IDx4bXBNTTpEZXJpdmVkRnJvbSBzdFJlZjppbnN0YW5jZUlEPSJ4bXAuaWlkOkUwQzI4RTE4RjAzNUUyMTFCMUJDQkM5OEUxRTlFOTBGIiBzdFJlZjpkb2N1bWVudElEPSJ4bXAuZGlkOjlCMTVEMUI3RUVFNUUxMTE5MjlCODdDRDM1OTkwRkYwIi8+IDwvcmRmOkRlc2NyaXB0aW9uPiA8L3JkZjpSREY+IDwveDp4bXBtZXRhPiA8P3hwYWNrZXQgZW5kPSJyIj8+UxvtkgABaotJREFUeNrkvQm0rmlVHvh+8z+d6Z47Vt0qqlAoLaCAmqhChtBpSSkoKiBOgEDTDlExNqvVHrK6Y9JNIgm20STa2gxGg7GNmihpmgjREEShGYpBiprvPJz5/PP/Db2f59nfX1Vq9zKxtTB9atW6955z/m943/3u8dnPju77nZ+OkqwT5vNhqMtFCEkWQmhCmvdDFNlf7f+qWoQs7YQ4jsNsfBiaugxpmoXRwVborx0LWdEL09Fe2N8+F5IkCZ3+RkjtmovZhJ9Nszz0BkdDZdcvFzP7+Voo7e85PjfeD8O9y6Fr38vyXghxEsrZ2O7fsesOQrUo7TqjUPQGYT4bhsPdK6E7OBI63fUQxand9zBEaQhFpxcWi7E9W2XvMrLnK3i9xXxsz53aZw9DYu+QF/3w2p+884ads/fd+FtvP/hQaOKQhDyMD7ftmcah01vn8+KedVjYfdbsZ1u2FnEo+uthNt0L1XRm91vhu9m3uS5VVfHdQ2N/4r52P6wjrlvZekWxPU9nLQzWTgR8TSf7IbM1qu1nhd1jNh4FLDier1zM7a+RLYVdL9jz2Z5U5SzwZk1j34/CZLRrf6b2rSiMhzvck8Fgk2uymE/4/om9R12Nw/jgCq9XlVO7ViekSU/Xquf2d3uW8a79zJ6jt2bft/VbTPhOtb1fnKa2xydtTTK77izsbZ0NSbHC98Bz7W+fCfPJYejYXiX2PHifNB+E2p6ztrXA2kOu8Ax5p8/vrW5cw2efzw5Cr3/M1n3Ca0AGu72j9mgmO7bv+J1yvrB33bN9WaG8xHFm+5hzL/HMC9trrHNt7zZYP641H9pe2rPbovA5sU+T4UGAnCe2Lnl31VbVflzOuZ5NZJ+vZpTXJMso9N3+Ef6JZ6gW0zDcv2J73rfvr9vvDcPB1kNhuHMh5HnX9jvju2XFKs9Lbeu6mE1tX+1d7OdpXphMa00re1f8n9k+T7GHeJcEa6u9wZ5FeMckD5WtFfbMnlBnA/Jhf9ZVaYeyNhnaM3GzNbbP4R3jJLZ3W3OZ2A1lbefW3ieCJNs69VaO23MdhIPLj4TVzRu45jVlM7JnXbd32zTZm4bR/iVb/0lYWT/Fs4Z9X9ha5bbHXZOxuZ2p0mSsseeobY0L2xv7i117rPWy70/He/wezo8dMJ6h3M7ozOR+PrV9Xjlie5HZHizsOfbtPeehv3KK74vf6a1g/VOek2qxCMdO32KfX+V5Otg9z3MWpz3t1comz9RievgEHYK9xvWgd2zx7Wdd+0zGdTo8uBxK+/0Vk23IOGXY5OLQ5HRysGNyuEr909i6luXI7r3Ge1FGcO6gJ6OSezGzd4W+jKPMftf0W/cIZW9m18T6TUcH1Fv4WjEZHWycgmSZTG3ZuSrCYnJgvz+18zAO1XxuazfkvuZ2Hhtbw+loP2yc+jKTYdOxO5d4fqCaUztbWUdyMbM13d82eex0w8rmST7r9qWHeM473S6ff2HyAD0Gfb2YzWzvTT7s9wv7GXQe1hl7B92NdR/ubNkWlqa71+3dEt4T+513paMO967YmhaUyf7a0XDpkc+HyWQcVo+dtPNY8ZrY8+HeVcpQf/WI3bvDd8K/7Wq2n3sh+d7Xf22El4CypmDgYeraNtCEyR7SjicX1n4J62pn1g5GNeemQcHgopkdpDTr8md2fX7BiCQQBjM6VODdAZUGLgJlAqUIYcQBT2wjuma4IJT4XSg/KNLafh+b1dj9Ytt0KKDYrglD0djn67qi0ONzFK44lkKC0ewMTBHn9kyNDjQPaR5e/49e8g2LefmeyeH23/jF9+fX/PPfDp/YPvvrw49+4nPRLU835WgHMsJ17DkhIJHdb2aGEmvUt/Wp7fDjuXBfbDB+B9fFoahM+eBw4jkmIxiG2tbJBNQUZn/tFAWkaxsKQ1ma0oEQjA53bJM33fhM8PhUdvidmW0o1j02K1uWcx6eGMbJnqmxz9JQmBKp7J5Fd8WeraIg42BwKUJl63hgBuByiJqS7zEzxVfa8ye+lkV/lUIxmwztYOk+IzNqEYTO9ndiBwAKBEoJe5Fkg9C3522ahd3HFJMZ4679jz3p9o/a4V3ngZ/jYJnsFHaw+6b88LurR6/jgYKc9FaP2d7PKV+4f2NXh6xApoqeHWJ7Zyi92AxEZQYC1xmsnrD1W+N70ihDNu0zC5MjyAuUA5TojMoIyj83uSio4HCwYGRh2LmetrZYu8zkFLKF60BG8D54VsqSPed0tE3jhmeYHO7bGsEtaKg4x+Y8dXrdsHbsetvjhHtdlUOeJZyd7soG12xiBuHw8kNyPOx+OLQ0DHjOtKC8LWikMp4b7F9pRqyOaso21gHfL+3glqZU07RrMjinDEJRxlSIMX8HcgSZhxOF9cHZwXmA09LYO3TN2PRWjtLIpll7DkdUTHA6sVZwIHB2eqbccY/D/Qs640XXrmMG3tabvw/5K6WI8Wz4d2oOShLLiWvsDJU1jFeXRhrnHOe7y33I+G84jHherDueA+uOd5rZ3+F0QgapyMcjXgPnCvoDMlCb3CT2zqk7yJPhPmUAhgOyjOeCXNjl+ft418IUKA7ZxM7dfKZrdux5KDcwypSBPt8lTgozoNAzgWuGfy/MSOC+OnsNrw9ZhQ7AfeyJKF+tww2nKzMDBVnkOsHBhLTj7JljDYM73LvEZzKlJgefjoidoeEh9yMxWV4/dl1YP349dQBkH+uNMxwFGUQapTQ2I3eMBqg2/QInYeXIMa455B7rg2coTA810GP2YnCioKcqux50B5wl3D9LujwfCfbUDA3sQd4b8DqQyY79vTAdC2cBelwyPKWRwu/PJyOec9x7Ph1zTVc2jvH9sa/YJ5x1GOfk+97w8mjK6KaiwPAg2iHJGFlM6ZVlJiwpD0vEjVpMxzQAXVN88Dyw+BCg6fiAF+6Z0OCmOPiRG4bCvBgsDjYeygdCgpfvr5+gsYIg6v9aEZn9LhamMY+Y0UBeSDHa/6ndExa7gkGjJxAoPHi+2F4a14j9mlCqMHTf9c6X3firf/BlFvbl/6N5GEdH5sHbB2+rmvQb779689708L7P/O7vfzR65PxO+Pi9D0bPu/UmHhRsJNxmvAeiPShNHFAqZNsMbCoEB++Id4MHyCgm1nN0TBHBS4K3DeWMdcGCYZ2xbn1TxthMKE0oTxxeCAaEeH/rvG0mDjwMvO4DBYcP4jAGqu6G+5SmUkhYO+wdrlnOD+l1z6cHVCAwrBPzysamTKk0ooiePd4D0Vtq94VAwRPs2PcHGyf57FhfrCf+kmV9e84DrjeUyMg8x9ru33EFj9852H6UygOGF3uNg7pi18LhoYBDCdt68Fr0xs0omVLM7V5wcODsYL1h0CNE1qY4YSSx17gHPG5EDpI3E3477IgmsD5QpPgs1hvylZvzg+fE8yUenZfw+Nww4aBg33CgcX08H5R5aBWyKW4pz9Se4UBOjymC0iLd2dAOkPki3cEq9wLRLxweRDd4hiTr04jDG8f3uqub7ozZYS113ThLqRAgZHBCcG88V4wIJnbPO1X0B22Iz2I9IdPYLzgzeH7I6NSeb7R30aLA2TJChNKFvMYwaFSUFbMLkCFEfVi3jBFmZArhAqM8GB/IJZU4FAayCuYEwPDiDGBvmamw/YIigyHC2qaZ7oU9jMwQIdKjcoXyp6KfU0Hhs3BiR+bcwJh2ehs6P+YkyQlY8D7IqMAAQfkjAkIUhggBX4gKWkMWMcIs6dTheZrGFXqo+X7IYOA+DRMJJeUnLzo07rgfdAZksDI5whmCw9M0fs0K0cFU2Q1TrPDgU75rIZ0JmYax4pcZlu4G78uoi5H8jOcRv5ubgca742xDtjqmE2kIewMZBTjPthcdU+xwJmYWEUGvzkaH0gPdHo3l1M5nWFT2jJKPotsJ3bUjfD5cD46rsiGZ7eUG741zQSmzfcb5k8OPbEBJ/UHHFXLLjEnJ58P5QQYCDj6DCltLrNPMdEj1OGN9sHWB2QrKfhJTXyGzBUMLfQLd0Vvd4LojKsR1sU+wO3AOkh9886sipJFo7fKOeyVdXsDe0f4+4Eso6kioNGCU+qtH5enDes6RrrjKf8MABffsoDDhzUNYsCm4JowZXgrXxWfxYDx05kni+lgEfBYeIxQp0gR4ibl9D5oBi1fZs0zsObCKDGdNELCx8AagwbCoOKwQEIRmb/zZe95c1/HPm/F6QWdwLIYR2794nwtOsBMQfcNB/Yyv3F08597d8/9ydzavw8PntsPz73wGNwcLtbd1JuxcfJjXXz96PZ8Z1hzvCMFEiJrQI21s49co4Bm9tJypF4TeE1t0RhT23NgoRC/0XBkNVIwIxuahyfvtyqBZNNNb2+R74pDhYEOwh4dX+Fy49uqRa3BbKmrlUBsan5qpmowHGOnDTn/TQvnT5lE9hcZraAqrgrKKKj4vvBasPdIZ8PyQ/oAhQGoLB7NjkQ7SanhPRL5QQoi2EDngkI/2LzLaQqoV74aD8NC9H7HP9fnvfVtDpA0SCnVBQaZcmbzQW4OitfeYjPdpwJExrOYLOTORQmwq0KjhYcLawZmBlz5YO6bUEtYWsoYUhSnl/tpxrg1kQnLcULlDVhPeN1DhJCZ/iR80PB/lCNFqpTVvnxnRy8gig8oizIEdfERJOOxVNWHEg7XLLRqEckNq7GDnggykPUR3cJRGfT7do5GAgcVLwpVQtNP19GtChaNIYcgzyXNRTngWKn8XnEMoLXjKUE5w5pBaglwGN+KmZRg5IC1WIIPAlIyiThhtRF9YIDwPlDzWC2dyZlEdjA4UKaJcGfaIMr1x7AaTj2OUZRizDrMYubx8rKkpYypURpkx1xqxboqMASJDU1jYm9lEURBSX4hm4PCWc+kERSgb9swb/Ayc2+lUmYHpZMysg9asxzMOZxMeN+R29ci19i6KQqHs8JnR/raMse0VZBT3Q0TZN4OL1NHM9ViSdj2iCdRHcOpMXLh2uA4yRfg+1g/ygGhG5YwJzyUcGUbw9jtMZVJvNYryEzkTzK5AjuysQ5/2zEhCL2Jv4PR2B8ep6A93LillWTUy0vbe+5cvUG/2jxy3z60yuoVjnhUF9SPWrTTHAZF7q3OxLnihwcYmfw5dirLK3EsV7Rnv0fiZocO+mHylnZwRHiM6ONv2P84J0nZTO8dwFBCQ9Nc2ZCfokDf2XuYgWFTWsX2FbsTvY/+REs86BR0xOM0s89hzJ29+zYvNyUssIjnOB47oSkaeJy/9ARaez57Ly8F/TeSpk1UTeluA2A9Sobw/ctL0yqGIYXmhuJAec+8BXh3DeXixmdJm9CWS3ENhhLSKaBDizZi6s+eBxwLvpNQzKQ0XUYk1ejIpdLvcm3/ua2/5tY89/WdMub3VFMNad/V4uHL/h8P2o58Mf/wrekaI8m8dJy8a745W/7AefXxx/4Pnwu99/HPR8+94Fp9vYkZhdfOkbfLc0xexp4FiKvnApa7pwSBdxfy+vxM+C6XGNURthrWAguuJNYZnCKHhdYMrxcSMrG0SDND4YIu1m4RKI1AxtwYS4T8UBJ4nMc+aKUw3alWJP22dmpgCNVhXvhipptoU59QiKig7HMCZKSKk5wbmBSdZT17SXMY/zbS3SLMxjUrDoxQM00+LkSnFHtcJB7trymD38kNM/w0Yhk+o5OCPwQOWQBduMBLuHQ4K3hVyRAc6wDnKKAs1fz+jccJ6UrEjzQJPFN7lYk4FFiXyaqGMVzZOqR4gS0NlBuPJPbGfF0jr1DpYMHLwkqFIIF94R3mVCT19GBVESdMhagaXmd+m8WH6c+JKqct1y4o1pgHniFaKHlPDMJhQjDgDMIiTyS6NOFOPdo+yqlkTgiLCe8CQQ16YJizndDaC59Jx5vBci6mUONIxUHbY747tH84x6n30ameKmuD0zMbbqkPaUsCZwN5OhluKbkx2UPuDMpFBmVGBKzLrUrKjSGccOUmmm8qJZydirj/WnRkT+7dSc13KVpIqi4GfM/IyRQ1vHGvC6MDu2TejxhS0KWekarFf+9vn+Y5Yp0VZupEoGN3B+YDC7Nr64TnxUqhLpDQSKWvNkDnpsAmfBxkepP2hk5SaW+Fz8VziDCKFCMd6OlENhDqrw0xCDrlJIDMWrdv+jPYuM+WdI006HTNr06Eirrh2MIqUSxh6yG2Qc9i1/WFUwSzCVRqizeM32rP0wtgceUTcVNjmOPLs2ztCX9jBZ8Q9OLJpEY8Z6vGBORZ9yu3e1rkw3L1i69qhQzHe32V9Cg5RTR0w59mvg/QFo1U7Nzmcf+j6BjXGwKgH/+NM0BCb7mBWpNuTQ4FcNM+oRfX9FTduTVjfPE0nFHogMyNHGbU/+xb541qBuimoNorIMMtVFzdDmMPZevO3vjhCqKzwS55kRQWm2g9dAhY2J7TA8jR7FFQINgqArLeYQWIUBcFzY8NQ2DyIjIKY84G10ZWKXDRIc36OLx6Q1jukQMBbZdqKii6hJw5hW3j9Ax4HFD7SJXSZg/K+SZaEH/ml52Xv+fBNf8OO0LtMcd7SQU3Crn/2U/+KB/z/5QuJ7q+pk2N3bc+f/YXdc79+cbaow/0Pnw+3PvMGej3rm9fz8FRc9BGFPPK8acRif0UvL0m69ARoaBvVqZAmqdw4QNhgMLhWVeURQsF8OdYb761IquDf4Zm2Sl8evyn/yYRKGeqa9YLFmNdjKo5pyAUVL0Lj8fBA9SbzQvauPGAHqqZShLLt9AdMvRX9NT/EGZ+pofERQIR5beTEp/AYh/R0IJTwaKDwsD/wQvH78DQnZmjgDZ54yrN4kLCfqEModSIFh1QZnQdEKMjxAxxh18E1UFNhARi1PwIkMhoW1Ro8Kqrm7s3LUNQw/ABmVJNl3Q4yBgUOw9xGilgjOC5wFJBCi5leyil344NtKi2k+pjSsGdRVLPCSCMyx6C3elQeJYrmSNfRiy+ocJIcBmfdlIYcj4zOiVKzuDfy4dh/7Bei/2DKYjabSvGhNsUaTkmZKZkmqSj/cFjoZCS5HBCkNFgXqZl6Qroa6TUcm3ohudBhb7guOKuK8orl+kFpIErG97F3jKCRMoMM2D2x5zT88gj4HjASBB3QKCVUdngOKP3Ga7T0oqFo+dmgtLgpemYBYmVFGOlGMdcW+wwwycKcN8ghIiucLzgrcOgQgbMGXDV8p5w100ZgDtvLDkEEXXn1iymVI2pqlA9mdlC7WKdsKXVf2poPVTvBWvN5ldqEcde1YkYgg7VN1pgAoMAzo/7YptODnz3ooI4p5U5njSlRGOk5wBxu1KCYofhZiB/uyAmDfkwznlPUOeFI4l2x/3CQYIDWjl6/NOKFXR+p25xGac5nQb0PkQVTx4uFZ5NSOUyoLUIu0phpu6Rw+bFrI/IKjVJ0MfY6JFxHgI9YH4LRgs6154YDic8d7l5mhM46jwcgWCeCVlATsv86K2vcEziy0DmQG6TfaBvahCWBIXpvRtFIk3//G78uwg+QZuANQkLLyLpMI+SXqRopMBNKeFIwNBA8CBUONh5YxfJauVXWJfpSIvh+pRoPFAYUNLx9IqVQ17GfQYigPPAiUIpt+o+pCqXLqUhiHkA3fsir18pb4t4ECNgJ/I6fuOuF+6Ps3eaJ/hd5f8P08dFw9pO/Hg6vPBj+9F/RDRYVvdqios7u9NSndy58cP6R/+vB6NylYbj7jmdQ+JiiAVgiLZjOYtjOyHBNCtILxzLOlXtxOXPRmXl/SJMoFZU8JtRcpci87T1GHDAYEBoYO6xDzAggFYAkTil8OFgFwQCJPD4v9AvpVfD6SHtoz+Z89pUjp2jgpodXhWBhpJrTO4ZCo2JgzjjyVJF5Qll3WYNivIfUAQv7WnfsA9BGNKD2LgAz4DMd5PQdfQXjc7h3gfVBGEB4rzRy+cDRREPWaxDNYH1ogBp5lnA8sMeVRQxt0R1pIq6dKU54wUh/MG1kn0G0ULvigAJAugTKic6QR4K4horEsVJUpYqmuB5SkUB0FoyAOlRoi3JsimKXBwf1LOwxPfyypiwjlVpVMRUtlFrR36T8E3DCfHxKQwSDGvhukaeqlPqBwUqW9VfVNOml21kDorRNCbGuhZS17QvkDU4JjIPqJaptIPqJWBMaOOptrFQ4DDa84axHVBTeBTUg1WxmrPdBOcnx6FLmuM5R7Mroinnwl30Ng8ARTOPXfH7UM5FOJXApyZj2EYo05nMEIv26rCth7+C3qeZVCKU2Vs2goV7YCBsnn+YIQkW/iRsbAjHsMzAA0CmoZ6F2AwdREXPFNFNla99f2+SzAEGJ+iEUPe6DNYYzi4wF9A6QmPh3XUnJMzMBg2/7rhR0h3LLmmasiBtOc0bU5AbPDor/yDYQpIXzUXQ9O1MLSICIAO9KY9Hn+aXhZoSvM41nJUhoIUDYytFrQmSf37mkWmvR69EY729fZTS1mM6J0IQTMtzbJqItMdmATDCbgCiairQUoCVWPR56tqCDmHhmZMEzUgN8gTpfqkzX2O4xPthjdIQaU+SGvHbkM50VGMiuQDKQS5wFyB/OG8FSC6WB+Y5IT1aqSw73rgAd97IINwuec5fySZSvp1HiHalwoIzwIMwhQmBNafCQsugd05ucc+MXLDKrxhPTg4HH2HoPDIM9cqqJcgrLNAAWB8oGh45W0yGzdd04Um/BxUXNA7DsVlG/8aduXf2l37nuv7fd+4d2gL68s3oizM3ruPDZ/8NTMf/BX8gxvriJ1184Tp5/Znz1tx6p7BkeeORC+PBHPxndevNp8xJOqFgOA0oARsR3mjM1Iu8KBUcgYBAFSbhMmOnxqjgJT5KHPY69cKw1Yd2sUAERAgEPr/SUFw4BUgRUgr4/8ipMCfRWhRojSi+iUEMh9Cw0JhKmgQIS7BgHFwdn/egNfP7xgSDD2AOmpwCEMI8Se9Z4nQnpCSAiocxg8CD4TGMhcpjJ2CHthhQOlCaEdWfrDMN+yAmKsTi0TIMh/WRXGZsxJJqNhrJsA1vl0aNYhzEOzIkzYnZZgHcCxUIF3AQ+C6KXBWVjld410FxI+SRM75ZCNM1Q17lMbzkn6AOe+pzRW+LAidXN04zcsLc8C/hsKN1IdKi00mxFqSaCERQNrRy5njUaeJ+I/qZjAUha4ASNqX0GsF6mJO16RWGKKMrpedce2bGeEVpvv2D0hc8tHIjA9KTdF4YX6S2iKJNYSR+v38JzBWgEkH5Ep236mCg0j4pYDwJYyL1fRfmlKdMdIbNQO8k7qqlV9dIZEGxesGVGH2jxgBePtA/OOaOcgRRhlCxrVkDpLczIZ7ng6HWjKBh6A88KRX/1wn1hbL+3snENjTUUO1I3cG7pMGWFEKu2PiymsxA/pazg2VSDmSp6hdMBZwqFd6yHKz+eE3t3ZV6mdJqQ9sod9ZfS4S24hvPFIRU1wDpJXNApZu1qrqwOnWiTd9Z/hIkguo9n1a4HEBFrZN0+1xgONOtLaco9G1k0it8v/N5qQUiVIp+qBg99gH0Hura/cZxOEQwD7jefTRkFrR8/HWZIjds6rRw5oWcb9FW/D3KUkXoVUjiRE5h3HKyyoJ3CPVE/w7vAmKEE0gIpUP9k6YW/PyfIKUsKGiKs69wiOeoLe4ftC0CDjlimqeya+MKed3p9LRAkB60EgGh/9+u+OgLCCZ5BzJpC6y2VVGbMZ9bEOD6GCEEYjz6EeSljAiPFTVZ/A4vCtnhQtFCyWAAWrBfqr8EiI2yVQiy4ITRkkTwGIuuI9yf2S94x0izllAoeCgmHhQVt+/u3vv2Oe+aL5J8meefV5n3mwNef/cS/COPds+HP/hVdF6L0NWXnJRu7sxs/tXvhA5PxZBoeePhiuOvWm3joKzek8DbVR6D+HqRcsFGCcdZMMeF36fWmyrWjRyh21CH3phaskTDNWkCLyCOr+XQ/JICDol5Xlo7SkTKhN+PeM6PJxryUPKXx79hhZJoPityM13D3EiO53JRft7th98/ltWU9RreHO+eptBHJlOy9gsdfOzy0pFFDdAEwBvsoFmP2G2QOwRVUeKD8tBkBpb8yHkZFkIV/L+f77Vx+hGisNO2zRgEPE9EYZaEQki7J+zTmcpRy5acjjxRK9bHBy0MkQEXoUXdrVFB8Zh8Ze28EgcbzQokn3htHxI/3+gBqjt9FhgBpq/aZQp1QEUO+YyLq1uhpMs2EyGKgGgXWHVETEXOE0tqeASnoqQuCIpDCAGDAi7qzkSlbU0Z12VD2sU7ItsGYd8yQwouvZnpfKAymouBJExghyLzki753mAPN2Qiwg2I1okv0FMHbRXSMmha+sE5wfJBt6LA3RalR4qmQcmMLQuKQdgBpYsrY6sa1lFM4POyrQ0sFInUgo1AnsjUXyGXD9MuIsgdlDBeiKOSkArY+4xolqqsiEnDlDAOI5+Q3YchK9blAT7D+FwmopBpyRN2lNPnU6zc93gvnpnFHt0Ef3HzKjATTcqhxzoaMVlWfHXPtCJaAcq21pnwX1sLwO0KPhbihXmJkaxEHUu32D3sf7SEiA3whBYfeNOzz3BxJIPsQIbXO4sK+B1BH3D4/2wUEz8d5gTOFWh9qLAJAyBlLE7VY5KtypKJYbSqQd7wH3gdnkanzOHg6sqEsM+s0EYIyJsBq5k7SwOuGdk5m2isAFlY3TgqsY++GvSR605ymKZ2BiK0GC/v+7s5lAnzwPhOzKXjGPtP0mfrJbCu3LjzMXig4gJDB5Ae/61URDgfSOzQ+9dz/LL3Bzr4fVMRr+21wgIH0QhMT6iQUBsKx1cMiGO2EQoXCkxT0QovhHuHEc9FQAqznlAsPiSf0LPDCFAo/EPAogLSDsiZ4wjbwTT/z4lPv/d3TbzdB+PGsu3qqa9HPaOfRcPkLHwz/H3+haeauJh68dBQ9b2uy9a+/ANNw3wNnwkc+9tno9mfewMMF8IDAFdmynhExijPBqsYq9NpmQfF0BmroLYqBv+vCc7Y5hSBLu8s6W+MpIxXLBdsknBgRCeoeplzUY1Fwr6B4kCIEKg3NiShgUqgWU3qBe1fPUUiOnHiqYLUoujoEHYpwwTrRGj1JAiwAkkgTKic1uVXcV7zfeHiFCgzKi3WxRg1tkcPxqUS7gjAf7l5kygvXRu8QjDSuhYZnRCvw6BlJI0/eX9FaOmgFz7hz6QGmPyEzkC0CaZDO8TRoxf6yESNQpBCYPunDKKgHAs2PbHhFBFDVPARZZ5XGButSsLbQ07/tedGMPR3u0oOrGHkU9LyhxNOka0rhBNcVaC4YhsLhrHM2KgPKukeFgEI7myjrkmlWFLMRmTKNTEQcjMSM54qptlIRIGppwVMaUKqA6dIgWuSAfD0MfdtTB0U7H6kYT2cgNHQ+kNqcmhLE/XW9xAFImRQoHCIU+AEaiRpPL6pXCND4pE1F2jsCXSk/aeHIrzGNCPZTEfyUHjwMviLTPmuGiOogF9AVQK4xFWyRYNk6ZGbY2DvlPYKQZbwzoi0g2NjWwHaCDUUzjTuqANQA5GGOixC+XQeH1gR40LgACo9UIgArjZqvAXYoSzVrwsEByKTwml/NXrWY0X5bw8YZgVHAvmPPGBUKfM71CkwBS00Qfo7IBD19IX5cXaq7THeW3qiJ++M8YL1qh1Xjs3KUZjz36vuqeCaw33D+8X3pzVTZlUagh+HuVZ3bwUBGEpEe1qBShNnpCgre9lZWDp5gNoMZhopQ6j56jRzgoGh7xettM6ZXY9aduw6aKXnuiVjF2noWZ3XzOPd5Zmu2un5M9SOT7dHBjmq/MEDsfZsiHXdPBK+PiBMi3NRpT+cDecpYXkkaZzQU8LbgBReDtWXBDR4Ic6DItTIcLLmJeW+Fm4PQLV4iyGIe6NINS5YJqaLC4IRpgPhx11RutsMXY46/Ui/Im/7Xe76lrON3x3nvpfnK0Rjh8NlP/mqYHFwKf45fJywqeuWi859dszO/+fO759+3Px6Pw0Nnr4Y7n/M0RTZoks3UN8CipAkRPPAhaiS5mnKx+BEjpTGL26xV2GbDc2trY22vCaG0KMgWXaVJRocMc7FfbFIkpPmAYTOUeRNK7wXoLHs2kHqCgE3Mo8KfaGDrrq6rLlcrJQQDhzQICqDoOYjihiG+gA+BeyZ4c+rKtiDjAb6f5Sve3Jr79ycMy+HJdtjYGqm2YAYBiDUomIUbGzQroijLnhIcXLsvUHmqG8SUqcixRXh+tAAU3S7lAOmTKKqEfgNCMlFkTG+7aVhsh7Jl4T4pHFBTKLK3Y0+PGH1mWGekHND7FCuFjMMDWQRgBE4RDnfbDKzepQFTS6PDK7wWUtF4TiH0Mq/njOx5NxgxEnSaZA4ImDhYIaixca50K94xpmevHiEanyjwZ8FhzlCuUCAra8epeJFhWMwPlf4G0KGZM/ePdcRzEpEa4DRscC2gfBu2NnQ9JZdSRlnoRnOp3Wv78kNMTRaEmq/S2OBcw/BBOSKixf5AwaHRkqm1FIamsfXaZ4Mvi+lUPIdk2Whh14SaL2S8WAZgjajjcP/G7n0/Ixawbuybs5R5pMk+Fij8EBw8E3t9Q0hHplsRzcDopJkQdba/GVlSVsyrn3ujfU0mCRpve7ZqBoj0pinKE+r+tzO4tnk9gUMHu1foRLXsL9gP9TCqTg2jC+NJmDtlNKYRiZhSTdXoCV0K543ytLtkLCBABnUuAm5ypsYI2LLPFEWHYAWi+exPRZYO5EJ/Hx2Bhv1D2C86LiZTSOn1149Kj8DRAgAGKVKwJvRXGfmMdi8tYeMNUYUV11EGqfBMg3rhCKP2IACO7oI1VdSk1xxwoVQt6lXsAYPtsH0gIIcsOWtkoanYYK2aHBHGGycpC3Bop+ZYJd/92q+lvw4KCqAtmN8EZBUeWBzRWgNmCyVB1BrD2hUqq4rghKlQP0gj1HNPRVTudUUKM5PMc80LgRGAXApSTGwIrGVoeDhNYeCBVYAdKuy0fwO1BA/zu9/59Tf+2sdv+ilTeP9D1l3f7K6cCLuPfiJsP/zR8Bf0BY13a4i6XzdOX7g/2XrfZxDKPvjolXDvF69GL3jeLUIfRV5wBWopTmmQUbNRDaWi5xtqQc1nE09RJbl7cTW9RnjZACkgxEchmZBI5FYLocfQqQ1FQ+KhzoApM4ThyDmzIRMpmkVFoWNUFiVMQ6CTH88HxN10qNSaGk0rGhh46RAoFHprggd6QmQ5gILKnoi/irlwGB8ze1TyVSUkFJuKvahfOsiEKTo2YE6Z8+dhjOUtAnXGgwyan2ZBQwTvsWL9cSwoKXtPcqH0zAAiqohj1T5msz1f28givUeUv6fBqVmzUU+VFAZSMHAGmqimcaeSMjlskU1QNASRMBJs5Jl7qqPyHigo8un0kDIJhQ9vGkpNKcAOU9EwSFS8XrMgkMVZHeaIfOxsoA+KPVK4NpTVXC0RqD9lbJwt2C6h1J36ynA2pdxE1UNPmzDaXMXnaqTIeXbg8jKgQ8AGQYsugMTLWYcSLRGL3DtnqcBheNg87SAJwu0i1ZvIgMGoR5RBeI6ZGaTUwQlyqFQbRPRNlgQ6So2cVK7xnu0v4PQjOrEyKr1lTw+MwABNzqWDJ3prNAhMIdl+tWkytBbMvFmZBjgOzpAwFiDGPgcDCfmHYUdUhTNBpYwsBVPcUzSi0asvihXKBvaX4AX87nwusEukyKFggV+tF+z/A6jHPoeiO6IZgqeoS2tGvcrYBGYgCOHHZ2w/60aggBao0oIuBuZY4N0QlcDw4F5ji/IgR8pCjGWsALHf39b7m66mQ+kNxynToet0TpnhSlTjZW1rtO+ovDYC7jBFCwcW1wrem8eeUeoD3Ys1+t5AvX1ep2WbDGv8JXUcsmaIyNICKercAWNmK7K2r83Tu3gOMzy7Wztm5PfJNJL80Pd+W8S/oGhonh/yk7R8pQ4DPaeqcuy4EDFIDYjbrSsKiVJFdyGdeioyE+YpdJjy/7FTWcjqlt5cSm/YHkr9CIJfxux7GKmY6bDBH/3F29Jf+PAt31M3ybvNM7q7GAg6eO7T/yIsJnvhSfhat4V4Rdn7z2/eWTznC8Or/2ZrOq+Yorv1GdfRqCDdE3mdDakeFK9pZNCtDqFGGqLjfUGAusKjQDopFpwzsMlyTqXOrhkXBjJXTKWAUXNjt3qugizXnX0e6N0Zq5emLon0Wj1ymkoCqRDs73S4T6UPeCkMC5STIlvBbtWgJogwDAib/HI16ULAGTmwsz9RxBLLG4XCpAJng9qu+lxyIYIoT3UbXS34uzi8GWtAJR2YxvPhAADg4DVsVkzCzpVH1E/VESCgcnAH8WVRTe8etECIDOFMqf9qwlQQjLVoe+R987lbrxS1SXTyAwHIiL5+LGJ1ucX/qL9QqbJeoYJsB/0Qa0cp31hXHNg0V5RBJez0LirWR1xXgCpIQRVibzBcEfqMKL2EaZ6WcxF/bwvcpNpBCmMm6DZ545zqB1ECQBBwGFXcLpYAB6HDkeVYo78+3NuhYWDDJmmnMjpKkEsYrMHaNTREisQnlDdRb61SieHgQjGCDQKfH6wf4zWw96wTNmp+Dv5+GRube17r7DCigtNBJolErA1ysMT1h9+B197juibklsSzII1Nbj8W44cu7z3v2VPTJerG7EdZiC8usP1jrjoSdBqcm65QfA3RjdWypUSR7oSOgODjvSV0nYhM1CZBEZSofSRydhb0CC3mQza60nCHksq1cVopGnB10juvZu6oQbU2ENFHByURKMIBKGp9CYzc4QgRHGYR+MqRk3R2ENWsn7jWIovj9qyFoOTOOTne32LUnhFo5ojWSj07MKJLijRyUar8QkQlMQACoqFug17NJCuWOpypXMLwS/G/OWsN64FRo6b9VE3dRMWRhih29gjo/YpZsNHBASMrlAxI21OTtA6d9bu0iKQGITXKhFBUEB/m3qeDA4qQE8YqYn5UTXJQJPTa6sZh1D2RaLJXQJQUVJgM9TJxH9GTGMhqRtoAHKrGFbW8tE74lnd81bN3R92fjdPiLXnvyAB9P1e++Nth7/ynw5P/Fd0c4uIbhtHz5/v7O58qJw/UD1hU9PF7H4ruvv2ZEmygt5RkE/gjzpWCcPgmUUl2MCCsSsvUnq9P+fmDnYtsDEQqCsi2lqZIrA0JlTZknKhDwFxZWxtS8WJfkBJSOqpg/pykrp4K6bB5rrss9idOXoj6lmg4Unqwql00yrsnopppyLTwWG4+OKoOURkMIQ4uUUfO0QZlRu8s076SP68q6U0iJQInBwc6Zt9VD1KjPhmneBJaqyCxJiO/xDviIym7NtJgZBHEwECUJbzDwbqMQClkFtsGInGAlYuJp1Rq5uijRkhFxrzsheqo5knuvI73ZKSMbAuvjZHSB6mUzioNCZRV4ilLRmuxDDtBACCnRD8ReqKQCuO5mlNRF6h7ZFJCShMKLg5lBeeONdmF114qpfEE9y7JgAEPHEg6pCtTrytOhxb5DU4w8hDiEO+WOzouXjYAZ4UK6Ygw93fPCRyQiJqqjeiI6iM0ecx7IaqGcVZKaMTnp7dNho+SRXk4noHOmNO6dJSGR3o1Y8NkTNAJIdfOuSaYWU3HuKGiGwh8ExRV4fq9/lHncFR0LZoxZQUg59jz1Hul2L+YgW0lMEruokjO2l/MDEAAVQ0cK7xTb9Md4aFk2c4OathQ1mRowfly+iRROeXO6uF128k+09lInerMFFTIQBMDgINmbjiH0H2AyS9KlTCYWpvrHKEeiagKZx46FFx3bTqMYJDF0PYC9FpdAZBq9RCKSkfyULU1J8iE7RP+p3OXySGcUN8f8nwwEwOuRbvnBFmnucinSc2E/jn0cQERmnflOMdq8M5Y2+kKmFI1apBl8FI5HVvtvXar3KOD7auCna/DKT4WVtY2BUwY7l4U4gnd6l1RrEiIaqWVEnU8Qy6wKMhTDg+u0ktr+y7EoaYCe+t5sVu9UUiHcA2bQIPjvEVOOezF4tSZAnIKJYT1TT999+A9//a6t1j08640HzyzsIMEb+fCZ36DXteX0BfyTPeU6ZfduTW75Q/3LvzmZSDo7nvgbLj92TeG0skTM+8+ZyMccfrKHbN5r1ZPC9I7QvL0/SCKXBQRBXKwgnaKiaFaTL2+8FiicGrCerB3nlQ2QLUwWrFDsgDNEdaeBdycSphkhl1RjLAPKc28UNz1qEDFRjaQ5iLGZG0I1CKmbNRdPWfKNlSCxaImpHzviOAAsZiLioZeORons67qZky9Fs4Tt6BRItcZImzQjhRdr4NUVG7sQ/CmVUR0c2dyxiHvEhjRc4UuLrPB6nHBcQH/h1JBQdoZEWB4YAzZK+SKuPZGYqUlYipxeoyJZJPPS4UyoxfLGoHd62D7LKOglfVraXyQQq3oWU7CwdYZrqVSezVZkvGc8LDRnAigzcyRooqATPGCMgdAkzT11C7g2tWSY5EpO9AyEZoflo2PSK91SU66rqZYwpETNqSi5wb3Q18JIiLWYqHAAUBiM7QYtZUe3g+7Vx5m2oh8bVj/jstJ5aAD7wEElDknW/2ITbdC3AkhWWR9yjdRYo0ayw93ztl5mAhMgiZSu75SoRbhJuo5YW1nrroeI1AzJqwLs4G244CWudeRF96bOGdqCuvPFgaTP/QzwQmhkpwekLmCwAtngIEz0CXq7ITLXOWw+Q57mpCaJFfb6MCjIDXxstm6FNIVxhh9VH0ne1XkBUeydKTeWFyWUPKx2k3EUhAtmSeAloPjj7NYl+qnyZlxyMN4tOPUSWtMk6P2NrQ1ZL1xbZ0pNTiojUc0go5PaGgzTgOYmFHZY2+Rsikdp2ITGnPGJmmBKyDbJAEgFiAhOSp+hlQvnF/qd6QW0arBzIb3F9VKzeXdrsAWiHgWU2/HUZTKFOccAKops0KQR/a5oU/rB970imh0eJUWeH3zWucbFO058fYQBi+YwSZl9Jo7KgZHjXsAgWkQ9so4bJK0DKPDJf8WhAIPJ06pQhT4TsNCTzETLh+HGhb6W37i+S+ezKN3mlJ7Y94/Yg730XDuU78cRtsPhi/dr+jLQpS9chS/oL8/Sn5/5/LHqguX98InPvtwdNftNzsrd8xUmARZrNGJd/aToUJ2n/UBeISiPcqX0FFSokSRgwkOGJXiwCOlhnzxFDBuExiATdp9oNB7LxFTRWlKCiBCMoGyQ3EV6RT0oEwOmY9viVnTZdHYiUFD5fB9kUHy9xr1azANkQkQwfQTvx85bYdAAxpRkTHK0Xt0dRhpwDKiBtnlD/JEMzxt87OaJRPBRys1/4rRQXxrMOKIyufePI21hqyODra5li3fmtJkOGhz8lalce7rKjCICHClcOgcsJ4j5hBERUJ9Cfko+HzDNcNhRBSEgwqFzvSJrdXhzgWmnhhJeiOw0IIRDQKUesZ0apffGx7s8JkJYmAkNCUoQBGfFAHh3qW8bNBtqdDdKItQeRuAvdeMjd+Rxo4wxe5pMk+rrG5ew0iYfRxRcC67iIVs1OOgyFAjxGdbkuKMhJ9q7I1jdc6r7iGiYNQMaLiDek5gu8WAH1M+ieQcm9yODykT8LCn0wNGUxnTzWLhxvM3jrJErQ2ZgVbm2341OE6gmqLyRRrOU9Hwlwm5Bst2lrL4rYhynQ71Yq5CfknKLSFZsVZAM7YRDVm8p0M2Ux7uXOZzpU73o0a22hFo8ZIrTqUGlRkI8ihbdvFUae6ky1oh9CLJnMHcPdbfq5kQc2TESJ3B2p5tenggBxU1lUZovuDZBtSNsA7or8qZVq5JTkzHnyzZpUUaRwWDJpReteISuhhZBde5cBIE/Igc7p45o0hg2YQsLGSp6ftoE/VcoR8PvUEtgjN2CHvUoAVFyD1w/0EeALUHoKoGgMqiQYBvQAtEx+H133hHREI8eJporBqK4lzItEa094vFcjwDDiNgdqDHadxTV963wweN205DbzYMDh8kQs4h3C2lR5uuaw80Dta3/cRtR9/7kRv+2xClP5V1Vm/srJwkW/GlP3xf+MvxFaFS/6I6ueYlo3DHw/sXf/PRyXQeHnz0Urj79md4qlOjB7B+JdFWqShQmJtXjYeooUzpFDS3Ant/SGTLiHUGREVNrTwviSzdg4GQoNCq7uTMiQUrrj2Ks0SRMUqdsY4CHQI2AwIIvB9C0VqyLHrTq3HijRaKD0cB6R8wAKeO5NM7CMqpCDr1Lv1mmdpSEV40O1Rq+YAeYCv8ijxipSWaepkOqtxgt0OuiB5jfUegGPw+e5eKntcjIhpPfEbKpeA6k5IeaSk080bKxmg2kaDBYqiJPEJ8rFGYa8tam1itxdJecj2JiCQL+jDUPo8FyhuNuWQqQOd9qkgSqT72LKGmAa43zMbyWpXm35TsJhdtvtY/eJqPzgoBGwMRZzqDBiKvoUW/eDakYfEu/fVTQonZs6ysn5aTaGs3WD/lKLzIvVYBWSofl8L6nEUFg41rVaty8lQ0CkcewUM5s8fD68AiGqtFDNs4FRchzfuM2maTHYI+QPLacs2JoXltGV0kicBI6DthPbU3WLI5qzl3sRyxwvExRXeZTcGfrBHJBxbwKRYiDLNsUOdZP3aDw52D6miJvPyIvTpjOUn4j2jCmrPRcG7UOJqFtc3rfDbOZTZ5gxFAjaprMhpV6ZmJqagKH8fZhtQrm6QXM+8PSpYgJEbtecEmzshfAHI42rsiPj+LfuAMoXcPUSScUjTJd+jwBOoL8tWhZl/WOuvowxxp2oGmDFTq9TlymqcYoAZEfTkZN8SCA+dN7zBjyppoNyIoC0eb1txT9SU+xudIhCJS04i8SOMjhy0tVP+u2JsWa1YR+AURQS4E406ZNTFb8MM/8FraAHrBhFHKqvNDtpnwsMkHhjzowvPMhP7OeKPIe4rUs1A68UxMbzC4pwrhxAOQ8geFK2LOx+JoIp+WOt6/+e/f+Yqyin8+SbuvLnpHUxBBnvvUe8Nk90z4y/eFJtfsm4fx8zd2xtd8YvfSh6Yf+vAno/vufzTc/szrqdgyJ3hUB3WqQjHQLKxvJIKwMgU2YcoDJKGYacTxA8jlZhnDZCEIZcgAeQatT0vRwi76WL0hRPA4gAEJHuw1vGg1eabuMESeoqrdsAg8wuI0mdWlvBISLS7otdZO59M2EBMw4IqbsGiiiWSQRJ+/6gSuSv+JCj8SrVD71eiqYtfOliMMoPDrFhIKo4B0jR201SOniBJcTCfepyRUD2tXtRBt5OMjQSxGYWy55z5dgmeg4CcWIRY+ogSpFDSPoiGQdQ06W4UrGTFGp7GQUySQdSUCI5znQod1WcfTPCBFeJUjJwtGem2jIJkSUEvKu+7Va4YMU6o+jAyIU5BkQg5wkAWfF58ayTptn5De6qyss85Gwi00+cJomEFBJzzqk6vHTjFC2N9+hKSmG8dvJIHodLJLlBwcz4IM6tPlmIYFyVxVYAZSFmtDw4F6DGuQI0aopPixLzCqIzIlLU4q0BE69yMa85TUNjBmXGu/PnRL5WkuDHlkjRQ1QlDckGw0kDwUyrOd9dXOKGKDqzPIs/6IqHL/MqP81SPXqQ9xNnF7KZh77hyYlNsodq7BUvRISLt5AzcbLy1iOzBDoHEEu+HKmftCf+0I06owSChptGAeQa9znsdO74g7eHOlL9HGkQ/kIHRVG1MkkfIsw9hvX3yYv7tx9DR1LO4PwlK85+rRawnsWMzmrO2R3WZRSs4ZwWuEBNCroBgCEpGDNp2zrc0atKwaaJtgj+NwV2MWGrUujPd2RfIKiiDU+j2dqjadhbPcdPl8eOaiL0BCEmsiA1OVZtgwnmPo/ZOIdukAV41Q2GhWBoHyD/6X3xSpF6X2QUMJNzvxEJrQO3i0TG90eLgI0U1jH/wVLYvO9HwLzfoRQqYvZlnnmAIjMpFRUa2GQJ9T85p/cOe1/+zDp98e4uzvpd31k52VU2G4/UC48sAHwl/yL7jud9fx6j3D8Lwr0+333weP6JELe+GTnzsfPf+Om6lIoYQJTXYPhBvu7OVRaKHLgUpam5fTiMFgcZ4OUEGIrIiA6rJPoJxrqBjWG0VNIKo6TNEpemg7tnF1HE4IYMssTCLMVE2LUNpotoRiYqrNBxLSwKBm47NK1Eh3lcokdl4tjZIQQqkFOQhphDz1VTVEewMt0xczJ2RFXj1UQdldcesJ6RUIG8cBSwvnMKTyFqAFETvkCt3b9Oip+MXGnbOLfMJ0FZGYywjcG6wRxdGrj5xY0lMOMxkEHqz5mJ5gnETOWyjSVEZFIXivXOXAAfV/LLzAK2DFwnuVZPQ0x6WmYuNwPvcQhTAVPBqINw4RM6OQegN08PXnOrB5c8Y8veifkuUsGyiCBQEEddi7eobX7AzWbL/B6L5PIwmnkCnNOKLSYH/V4Ch7gaBcCc+Ola5CZKkxGO5s8vy3710qGs1VkxGX3cwRsBOhBJfrM1/OikJk2ASN85j5eJbgxKaCJU8Z9RVueIgCbRRJAiEKowpZzXPVGeNIXIcC+IivjvOa2BrWylW+7HdEDQh9dHj3hDxxs3Dl7Of4HGqaF5pLYJ8xnUBBzxOuJWpmkadwcYaRMgUQiI4V0q9dNfM3tdKlRD2iHNEfCJSF//gsGWtTU0yO3boQ1jevYRpe3HULn1WVsPeKfIQzOHpNKJEFoEOienDjaVvwATLdnMlJwvOPh/v+nKIXazzDoGhzzJYckhjTqaoFJIlEkMrJwTxPinZJZ1UKuYvzjLVSna2mgzTzFHXs2RDOvQIhsAceiNrSTk9DTb/rW18Cx1CEku4Fo4DH3KxDBXEheGSF1xnYVW7WVJFQtBQWHgAvvEvxCBOPh0WDIYmxa58hkWlDvultt762rC36yXtfXQyO05Kfv/efhdnhxfCf0NcJO3GvnGUvvOHq+Ms/fXDltw9m8yp88cEL4a7bNDyP9EhV5cPuVL9p2Eiq1A8ne1LJT508sKaAQpigqKCcmT5yJT4lZczIo1LlicW0PeEuCy6biZE7pI9jvQjynDjdUbWZhsVrIbJKRrTdJbu1RiFkdE7awWAyNEIDsd8sSZwGPnJ+rcYh5REjbjU7tnUkDVdE6hud3kBq4XeJDJsLAUVnB+0AWeHGa6pO9yglAowzdmiUJhplQaeo9kJ+5OmBuTNUp66wIm8o1VRMRunuiCG6ZAooV0RHpUAG7ZEjiHqECres3SL+TQgzVlOmUk4l6yU+M2m4I/JGskCvKCpFgx844opCc6oA7iDrgtJ7jUd48ITBlE2GDqRUY9HYxN7bwdoVILaA4HtEuHXh/iXoZz4zw5annG/E4vdwK+xfPcvzjnQdalZzMjeIyRypOsCxCf5IvRXD2w/I9O2s7oTpR0ICEiELaC/nII00QHHlCNcB3i+K8ayDRe6UQu/40DfIWJ6rgRaKmIhDZlOmgtOnggirrlovqcTU/xN5T9hALRIU59IHbWqGGeXVZbj0UeUczsk6yizsXHmUYBEOYbQ1gYMGdm+MOBGrScboWPXPwnXiwIe5aVQE5LrllmvRvtR54G+bHKg+Q2DDyKHmhUAfTnqKfhuiik13Tg6ucI851ht1NCBOZ3NmIWY+nbqdIgvjk5NNRM4VajC91eOUZdQalfbVgEQ5qY2nuIOIiouOy39HRL1u9EhcHDWuR+b+7IpkAVxo4dt7lx8mywichrzbETM9EJKYXuD6f8QUqeQVUVTy19/wskjFwMLpWTKmPEicSbqTIYvlUJJFO1t895L4njzE0yA6cRW18ysaL1aR2A7pgOwx5AVe+ZVvu+Pm9/7u6XdEcfE3s876ZmdwKuye+WjYffTfh/9EvxD3PTtE3Vcc1nfsTnfe/xkYkvvNEP3exz4f3fXcLxOIoxRUF4cdQgwoJnnITBmRp6mJlqPR60aGCHRIjEbRlLkQ19XCDyUOHshlSXkSC7VEmvd64ag4zYhpU0PgOxPzxSHpXsCPNTm8Eva3ztFIaQSyGoiZlvM6DoeT9de9GXSfqQyyUHdXlnKC90AaC9dR8TnRM5Iup0PknJRa5Sk5NSAishEooOGh50FwY0rPDo2cfH5RD0EWW5BMtdDEXUXdqQ9aS5w5mCNzvUlRRWYilBjdJb6mEe9VuEIjHc9425ToZTVuFw5HBwqqbbYtF07XpEZJKf/MR5ZUXhtLxM5t+4WUzsrGCe6nDEiliI7cWqmPVSm9WbVHIAQJPCsxgSPlgn3jhFWSuwamtkgunHcd8ZVQeWGN1o/fyDQV6khwalBIDs5qAUNEWqZ8sKQNgiKBEudIDDJ6NMtBg/SKndGahqj2CZ10PlKxbnDi6WJJoIoJoHl3nT1BSl+O3UMvfBR3SW4yOkAcE7EnRwYtIax5TdhKojpdV1x4oJNhnWLu9ceIk4nhoKysn6BDBKLc2IlJsT+ox0IJiz9Q7BRoKkfk1XVQDGU17dJRAMpw6sSpcNoViasXaD49dAMlVLHI8RsxOmTFMipoQQB0NhGhRTJAkAMYZzhZcHbIJG8/Rr/NzqVHqNgBQkmTDtsYkOIdmFFCGhD7OzhygjLRX7+GRoJRcj7wIYY6OwREsE1BzbgRgTLKXKkPKvJIdeapVvTDi9YJ+8beNKepwv6CLxIsLSkbcFXz4XgJ1ECBqMs1iRXOGJnbvVcQ/UeIsBIOPDR98Nbv/ZaI0/OWc4HiJVeZxFk5XHb4e7Ebioh4dJ8voeaxyXJKasqBVV0PZzUpk1MX7Xff+p5b0p9+3/XfY1f9uSTv350PTjD3f+Gzv2wLvhf+f/DFJtdp9sLnXBnfdO/exfdtHx4ehi988ZHwnJs2afRF4NqhwO/vnKFwovsbhw6HA6SZaDIb718hTQ+cg4yTTOc+fCwQJpplHmHMFSXRYLWeUBRc0RY+fVLRC+oPbfc1DjxHP5hgw2uGgl/ZOM3UDbmoMBHS5yjhAMTso0m8gdnnohBa+7hBZ86+IEhtTuXVNoXiMBGxlKloSU8sz505uw6eiZJS47ykGfPUPNz5wPPw8XK0CMeJYMZK3KaZI5/8GTuzcu0EqKIJysmxJ0OHPjgYJVDMMLLnSIx9p7GfeS9Mrns42wdy8/DgyZDRVf9UC3VX+tlTaTyYQzZ54jyxSXymQWqCj898vIEiVNADZangyyi0D3cuiBonS7yxeMEaD+spCyEs+XnS+hw4/dAhU5Kg24Ki1lwujW9ABMJx1t4P1PblCPgRluz5bWSoOU6K2kPt9FtFfzmSQEz7h/a9fDkunb1A4z0fijZYDuxLvGcFz0KoPmi5gsADLf9iG/mO9y6Gva2HqZih1PMOap89ZgUKwoi7TNFpwnGggq+8WVSTnjXPiM2hmQYIBq9bcvia/R0AAKw3GKMF7+6ph8ZTfdCIiDaYTp0N6eXDmAJAgMiT7RVF4amwnM5Vy+zdkPW7UIsCHCsfwKfZbKpPIfJnZJUWhJgLVCNk23hvi04D2MVzBgRTRhuIamkYHBSmJuw+9Soh4Ifb4v5bWSdYQzyJK/w73pF1KWd4KToCpqB+U3pkVjgzf1vratP83ZV1nmMYexIaNKXDtpWiFSVUh3Iq4tpgz37MdViHMHTWw77/O19GLJ5ynlPmEAnPaztsvc+i9kmPGsnaYWNT2xxYzWc+PKv2sbntHJ2g9FGtaX7f/ON337q1n/4TU0pvMQEaFP2T4eoX3xcOLn7yL8wCdFZPh5M3vzqsnnyu3fcTT2ZgdFOI8tcMw12L/VH41P72vfX2sAmf+sNL0Vfd+Sw1fIFOvZ4pB23KdLB20jydE56rTZaMBY2Tk868J0FemohjIwIcfIKp86qlDghI0nSZz69rsWMLLp84w0HO62KoWFu4F41JTMqfiJT2M6fVceVERbbmSK/5cqomDiymjpLqaebzWRzy2iIx28FvRGSlMZUF+x6m+/SkwWeGJkR4k4B5QslAyWruyZoK1s45h8ikZS6AgdTQRnl5jc9vhoKCV460cm9FDYokl4yVQsT7EG3H/hJNcc28JkFaHTYc950xulwOzCM7QCPaKRbP2/lBzkyP+4uRIGU9RKznFZUgPGoYCRR9qUfjhuvLVEkORogt26e90CxKV85Im9YEJHAtQStEecn53iSmrCpGW+ghAsBDBLBrjM7Gwz0qcVL0c6JyrH4lMGrY52F4Sb4aIkcFRj5YUBkNrjONbcfXNRaaDRxubCStvSAeBLMG84M9BxwMvIeK2HM5MSRIrjX4sfI0FtnLB7zX1CLQ6eEu07IoGYDZIeI02loyjsZpHwxZkQKspiOFd8D3OOqdfQLScVkmVhMRtoo09NKjn6FzADg3GkYBnWZanMq3oiFlnScRohfjTzRSRc323d4GjZDaF2aazAv59rlndI6KnvdUisEBxfzMiVWxxyvrx7nGlx76NEEriHIK2wOMs6A+BnKTY7t3fdzKmJ8F8Sj509lalrjsyRgi0mWqzgwAoiSkEwUa6lJOkR4jytWzWuDXwzWTXBFv27xa+2w46AuOUMd0g+mQDiUbaxMN9qzR91dNNcJnrr66mnO6BqylIU3I1Dccke/9jr8akT0Xm8KBTgumHGovoGUcyapJk6PDy4T0oQcFTXeE5IbEZ5gEKiIyZxOz3jCMhjF78z96Xv8Xfue6t9rR/sdpsfLsYnDKHmIcLv3hr7Dp7i/y6+TN30yFcnzDrPbqs8Ph5U89mVERWo9fWien7xyG5953ePkDFyeTWfjig+fDc7/itAlnlxsGcAeQOGisk5ISpT4QYSiAjg4u0RlAkbS/elzU6XY4kfdFIbXLOSg+UyUOS2JQNpoy9BYXVuwDCDkqohIvWezw8cy8VzAVYKYRvFykziZg0OZUyXXmodEMCWoidvd7vhz9OO3sn9nswA+rJjkSTkyWYTXtMkXFiESQ8Zgd9JV3+adUblBAeEfWJ0H3MtOkSyGiGsoT502xJrXDAwZBF3ehWICFlJuroxxgj+6Kuu7nI28urETrUjvoAF4dvEt0+VsEIvRax4uzpqyne/xciMUwoHpa5I5ZuYTjslHRIbXtyBQaKHI0Tok2ZKMiB62lfP6SBemYUGKdS0zs3CfbMRs2ncOMUGOwq3fVh4TRDS1LMpgZuDbLQWuiicE+7O+coze/euwpbAheUOl67r/UQD2su0YrCMHZNkuzEbXTd7JMTXhtKZ4iztTZIRKynSSMSDp1SP50AsBFRJDHwe45Kt1isM5IBVYQkQCcDtSTEIEglQZmAOqpAmPRN8l/h2hAg/giFc9NqaKxO/XBm43PSMsLlRi452RWiLyuVFHO1OczY1r36LU3i/F5f4vNoZALZCNa9gMiNEkt1XF4fcZMD89Zpmmy1H0OeoHhJ1M2YNFeO0TEA0NJuQSXoMklZFfozcBsExnAvYzBc9ET9+LBzlkGBdjbyeEeDRVg3qhLwcFonBmkjtuhgxiw6Kja0UGYDXd9Km/JWU1IVWJfIScknGYalNLLgALOMKY4EyRVaSo2bAXOWHDWBKH7Mt/vmgbsEHD2rYsOsJLTljI633VkaUxZTt7yxpdHRLtFjXvBmgmEwnbroQhO3PMmNNV8UBAkML+pPfxqfBpk7YSPmin/qr972/PHs+hdUVq8Iesd7Wb94+HiZ/9pGO188S9c41/73DdTQL789Cy85Lmj8Pv3HoTxk/Acf8KkiKc2UfHt+/Xt3Z1h/2PbF/5d+Tsf/Vz08Pnt8II7b2GHOZFYTiZLCp6OyDXLcqTUGKhd2FV9jALYOBUT6x0LjRrmNFefGgkPJarVB8ZhZLFqFCQqZrf/mMqSA7kQDZlhgKfaoHlyfEBFThBLrpzy3FmGFU1M6YEuTHZGuxdJQwPvbe/y2YBJt/DIENFE3gGveUwR4cTw0IPXFqDJxGXX4YEAuq87OLKcdyW2iEjINpNhPCuMTuZd4TDYiNjgMffXT/L3URAfWDTJHg0CMFR4P9w7x+eGQUotCokbjeLmvBnQ7y9EiwIvUSg0TffMOgOfJ9P46Oza+daUeizZtOppQDaB980bXXFP2FmgkVJrNEQSKZLWieMI5ljoMhg/5NvhEGKAHBRe5SMfYu+zgxMgFGLCOgnh91VJhahUmaLedpxKyWmxU9Y8OIiQNR+1ZwAqwF6bzgqdICIGF2qoFKS98N6eWAhPpnjjZSMz6pTQE6D8wjqY+lYKDrIMoMP46pLDTA6BaqFI0ajXKmXKMYpLetpIixZdZQRIdVSivhbJqMxnAnbkuVPnjEXm6WleRGUcSgcyVBLkVj4dNRWbR1YsZ+ysbF7LqHZ/64w5edcI2n5whete9NaWjcXs0atLn9+jeT5wOCBfiaekYtKQpZoi6zVOPL/IoOeeOk7dOYyIFoMsAw5e+mh5jsl2cIMi+5iNn0SilSVRc/h+B8AxM8pji5TREAt5Fxx67mnghOg5sCQkBJb0WD+EEcJagv8QPT3qrysYdXWZqlN/HcAHiJ6QxksSnUvVaDNnPZGTi6gd5xDISNU1gfrbEKckJkGjH4q1z+CzjJCOe8PXRjEZgwfOSpzxYMmyBB+M1FumHgQfXqjuw56ilC/d/n47g+N1P3nn6ns+eO3fDiF9R5qvPa3oX2NW+Eq4et+v/cdOOv0zf62euI3P+JJnj8Jfec4w/MZvfMQ2bfokGZ7Y0YjRkufRdvuFITv212bJ886Ot9//EFITDzxyMfzBpx6Kbn/WdfTwSDIJCph67tMvp0Q0wQNGHxdWFnTplLsg776uBFcld9lUhVXSsLDHYOaNq8Gnj4Km5Kp6lzD5cO+qptiaAYDg0TtEE2x3jTT53cExR8VNybmFr0Pz1ATPVeMc2dPRBIvUgDMRaCaMUE9gB8CzwCNLnEAVygoHjJN2U+cv6/bd0ak4qZY5cfN+obhjn1YKDxUNoCqqx0w3cGQFm07FQIE0QtXM2RfD+Vmg9HEaKKY74Y1HqpEgBYEUC0eQO89dIMJsTAXFZk2yUmgENe5DBVVqANiCHf35cv4MkG+MJmIhyzSTRvULGJ/a90ON3VJSpdPEtDOU4CSwoEyizaD0J7rxsddN8DRn7LWhLh0NKt9a84IizryS548iNmsURGT1fX6TTzfmDLHEhybGGpcNQzgbOxoqZl+VnFfx8SGCqDxtySGOiDqi1AlQVxhdwiiKZaJRDS4RTY7Q+PLw24nJqLUAeMFWBMKxBZyaj8dhbM4QjDr2E0YZLAdklnaWbNUnarG1cPCijHJViyA39n48gGjmBD8oHUueODwvYcfqn+OkXTPUU7svm6yLftvQ5uScAmYlLQjG91TAjbRNFQnagvXxqI1ZAvbgBWeimIaDrfOUvcJpqlTXSpe1t9zHtJBnjyWUwuR2k38CPKHxLB1SdU2JUPVR5JN9Ra9odDYZn2NNUK/LhSSlc+pUay1gAnsmyqbM6zwt0nPq7TbRMtJDNIbzgh4x/E4BRu2eUIONN622egnylhNhaEHPm1/zwogEmihI1o3nzxcKoZ3dAEICBUdYLq1y5MIcP+ZdxamH+kV49Y/f9fLZIn5XnHW/Ke8fL7LOEYt+3h2m+w8/qfHG6snbTHE24RtesB9uPFWGT9x7OZy9MHqSDNAf/assUdREp0wFvLrsvWhzET/tM5fOvH80nZfhgUevhrtvu0lkoUxjiYCTvQNo/gTx6EhpIUS2AoU0j00iZbe9egLiLFUTcaOaA0kK67kXD0uf0ClGAaUy+gz105bEM8kZHYz2L/Ggx872QMCBHQqg6TQDSoy+hyBgnYzDkWtvYpiPKAmC3fYosD7koypqj9I0ElkNdZwvBe+e/TRjFaBNTlv4KL3KWDxcMXvdlB4RAk10OEy1TTXiAO+CyAOGDIvQQX2E818SOmCVw9A5wwr1FDO0GccaJBqVMZvTW2bNoxaM3eIBKhTStkSicOGAPXSTYzhcouGQkfdJCVFYMlKC8iXsGgd474KdvZmmUKLmAgius5mL3qlxVF5v2T/FUQiRMg+kYcmdZZxksarXtIMhQaOyIKlqJECKiV0GJmcYOEKWRb2Ttc5CJbZ0MlosOR+bx2Yz+eymigZtsoShp7miIzA1iLJr5jOSOjRARJ4lHaL4+mvXMoLHOlTOg8bhiPXcZ2/JELDfi4XzvjO21xw4Rwg3mKMPdrheyz4sgq1mT2gnqJ04NHO5aByBN/fWAXjzC6QxiQ5LKDOQbQzjwxrNWSc75PkS+4ImqyJN3Q6S45wrIQR032rhQ+PaSbVqu2DkDoaFODClKIh2TZomfBb7RQfRxymwBaPS5Fimvopc0Vnb9A5mGw6cXCESEhNQEyc81hmJHGZfUI7wHuCjw54Ody7x54p2de5xL/ZdkWtOCE1kF6gTMFuqknOpUUDxstWAjgdqhqnQgKkP0QMYlenexjkOB052+4ZvvD1KfEa4pgKOGBHVztfVUroHNzjwvuCJa1a6JlC2ntCr/96tp97zwRNvb6LsbWm+cS2in/Hu/WHrwd960hNeJ5/5BgrAyY0yfPtXg7E3CpevTizK2HqyIh+nd9c/2m+1+bmmjp83qzovH4c7Lo+3/88vAI370Nmd8Aeffih6xlO7XgtQMbbyIiJyullH9DCYxxOa2gEImaPDYo1RZ8F27EzLavpUr8Fi2fHMPi+SytaCjpLgtsPPaA5MzZQaiAjJLGxRC+oXk8PLzlDQJ539/uVH2QvQWzm2rDuR06xRT4Y64qVIxVU1C0PzpMCBVzjPmsaKi+sK9yN7NBg7OH58wsOhgnPibNiKYrA2OJisYdCATHgIgPasG42oILs2h4RVBCiIqdoL0VXjRlL9P1LsKrii4REoOPbHeRTJFCGJesec9aPZXJmcBdSCQhuJVJpl42MG8PcWiVouDrluGkmuacPsw0PzZ62x2GQPcDYLQp59DILeM12Sr5Kk0r1fNtxmanJWE3KXaw2kEpCPMPTD/aukpQmeimt84JnGTAhAEmr9rOV9BGpT02K7ThAaec0lLMdTt8z65DqcCqyRpqphIFKFYWq8qx8GZ/vSQxxFMDQnh04VpLAUNx/g/EqjoU9shQwTmrNTO0hDqcaEnrvCzzRvo9WMaWzWYUg5s3AaMXn8WosNRZ9MKY8JTmgRvy0ZM5k/uj2v8SVqIUhVY6PRtTXnTKw6LBkgah9KmHjqliwFh9tcV6TCsIcc7olmc0xAhXw2gdkB1mcxeoStCTPKHOrDIuoVgz1AJBwngsnTpCxapwFI2JIgrruUY+9JFsYG15a9g2MrAB3nVNmEAAc4rEx9E1ASMVNAzlBCzXNvOlWdkMAVj3Do5OV9H51+6MAkofSQ7UMEDxYJDcEU+Cn5nte+NCI/F7yOpPApkuue5/ZGMFCCILSGwkhFs0KrjwJVLhTWy//WM19X1vH/lmT9l+b9kzGQUJc+9+4wG57/ksBFr556Hv984S3jcOdXTrkwRzY64Tf/zVnzfOonLfL5Iz99wmdMZW3WIXtV033R0w7qp9979dH37Y0ns3Dm4jDcccu1GvLVP6qmTw6by7yHaESvVGyoDa/FccozCQX2czY68CiqH6aHW/w9zouBd46oAUYFXGROCgqvCkinvUsPWgR0ngoQjZXynkZMRUAZRURT9lh/wkHev/hwWD/2FDtoJ8g2zebDnjf6EeI8IJybaS+Tu4ZGb9eTV40UiHuU6hGqfcia6PORFkyccQJp4Zr9SkJ/kekjzX2S69jnWc2Y7kNqRgpzzplNhQ+Mw6GvvGkWygMQVgACoriNNDqOItKAPyrjWtN+Yzd0iG7q+Tx0gEYiEqpcKkIiChcaO83Rxg7+YHqDiDIxliCtVLNpUGk3RJicRYN+KtALHVx2uHfJwrFqVDWjU6SG0BgaeV0EZ1Y8dBVhv6h1ob7GcSus14hVgr0gpjwxeh3GWUir5rEmQ8gJDcLCkbCafpyw3qJGdjKH75xVw3OiGiFHjDhSC1qc0H6v27GmuFBqFZNfMdMKjgMMAtYd4ANAyAGM4ZRc3r+WEvM6VxN83DdHyZSOysyZvo05/sFJaTNnym7aPrRmmU7Ds009yhGVTq2IjTU0HzExH3vjuMY+IKJnER6OANCfSVeoVjbAjn0OU+BzA+DQjsxJnF+R/HteFyOrPZq02Vys0QhZIU46xL4gC+AYHdaKirBy5BSdQ5xVnndbM8Ce4UhwqnFeLEEijFoIspGcAWHIsQ+F6mKstaHuQ7YbB6YthAwFyGe4v0X4OeYC0WlwZCsNDfRIJrBG5YherqfPp5sNVRoQQELISPYseRM61iNlzhGNcJj3wHz0gkoE6YXKGZNbYkWwJCOm4hC7WJb/6//Os25alOG/s39/e9Yxwe4eD3vn/m2YWAT0pfh19zPGjqWPwg3XrYSnP3U1fOpz23/Ohqf5Y9+LQ/P//BlPebRaa14n31KWGy9Y9H74x/Z2fvsXsvzh+c+89+MU+O97/UsaINIg6KTQcWqTJG6VrHlO5aEOhSsVCBGjmUgMGailRE6vQ6XmNCAckTxVGgiUNWAJiLOKjZpAbh259ivoWeLgslPeBKpDZFs3HG6fCSPzktdOXGcH5loOy+r0ByRM5QRQNi7q4MxnFbv/W8UDAwEUET37RpBtHCZRAqUcRZDn6uFpiV8R4qdJTSPE1EFd+UgBNSfOZ6lqR063zzSMH/imHjs6TzT7ceaUNyymNs7BV4X+y956OhoOn9tMZ39l1jRPGdr/dp3jGOVhLtmwieNHozx/1+5K55f++V+7ffbDP/D6RuzYirRIJE3essIJfs27DKKKidgQntKIIKVCBnH24TRMuWBfEEm0hgzXyaM+U2ljTmrdC2mtRtzcI1UUwQNpgaYYr+pD0aDYMkWCDGzGGsueRXRIRGEUq+epEAADShZGv9uruCZprj4vRDWkjsp7S+CCGCSEHiMU3QwQ0VEwGpkG46F+J69Z003JwpEPNOiPrOYF+9EUlUBZrpsSHLIxs7d6xBvkUccbCryS9aQ4SRgaa7wBp5lO1CTMKdEdb35umJJLXDZgTMAMsZhONfF2MgqzcODRX0pHi+TLqYAAHH/CVJy937Sh0kdGAnOVyOwOKPTaSabMlSrN2YMl0lYBhBqkR1GLjBW5s9ZbioEbKfXCIgVOqEaT8OpRH2MveiOcbQz3Y6oVxLteF0U9T83KdgaiSsYAaTjOJRsQRdeAnQT1/kQN0XGq/is0pTM7gP1bTFkT665uenQecZT9IpnS2LTsDO0AUkTOe1fOhI0TT6HMMroLYi/fvOap3jtaaGIASWMDpxBPJvscynfkmhtC8r3feU/EaMc8EHhIEoSUGyNPIVb+1KciNj7qAQri5T9263dXdfzOJBs8P+tdw9+9/Pl3m7La/pIyPMe/8nU8aKePLcKrXnIQiizyDmxT8Ism/Lvfv/jnY4CekGN7YrzTPDH99sSfN65pHvcbJtyrVZV9XZQ/9bZJ9IzPbp3/wNWZbdH9j1wOz3naptORdJiSYn+KN2a2XG7yOjuk92GxnBpxroFeDC5SH7++UBd+NV0qSjXCaSIjGLHxZ2/jOI0UqUU4yyR2vsGM0UrqsFC9TttoqgFy4C3jyPHEmR9qddej4FpWGnHRs8hJdaM50zDslifVh4b2aQKpeLI0Y0m1D5LjctZOyXpX5L07GqccuXcqr1gkr0J8sgG2UgE8VpWYUynXX/6jx7o/95uvHfzj//1vFsPhjyZV9ZW2yr2rZfk1T2ua647E8eX1LP3QRhJ/DrCMzcXijUem85c/5/zuv/rrn/ni9IsPngu/97HPRs/5iqMOHCiXvHWNKyKS/9YLf86SSD0QfCLCQw2KeX9T0pjPhFTmysa1zFjMmXrx+VJ4zzwjokkerMZsi4pN5LBjoLwWUvpkDIDSnU4cxr2i/qCFogjVKErVxTgJebLkhESkyYGCPk5CoJJ9DT3L1HMFJFo7aLBl5a/rNgrR/KYoEm1US/rJZWf6JvWpxCJWTn2QINJIs+lumIyu0mCKx6ykgyUqnImaQjFOwyJJMl2zbqZ0JHUYI8OMNSbR4iwYBba1STwfCDehbNVkGvngtoJrDyZ6RImof2iarFCNaMiGacOZwN60EXiadZ0kteeEszXTzG3NSmwlZnQICNrjOwCwA8NW07AuNGwUKUefWAADNifiMTDVzcnFPTkQRX+FfUYc13Kwz2vgPdH0SgNpBiDrKLUopLMZHWQweNandArF3ScDx+GBA31GqV5nSPFZc6wxO/KQPXqRBluy4dZnDqVO/cQheN2+s3XPiUKF8U2RY7bXDOPxVV6ItPrwppI2NAtORrlgvrxsZuGb/u5XPbeswtuipPhqdi13NsP2A79qQrj1JRn9mJHkn8966jT0O41DIzVo7Y5nHw/djoWO0/LPNfIJj4t84scKQk/8efwn/X70hO/Nq+SevUn/9mn+1p+8fPkP3rG186GpHYQaAvLW7/u2hqh50t9IEJAmiZ0bauG9I/T62UU+Y68CkG84RAt226O4r9QR8PykfO8dUY0AvUHjffUoeGES3e9RVTMXzu5y9s9kPIwp5huZlxWR1WDAw9BgCJkTm0J5IcePPoeD7Ue4H/D8EMoH9nhUoQDJY6V5NmjWJZghVs0m9hHopIqqJw6HDfy8ejcQvQ29pyWYh7evwirmL/XW1c8x3NY47CRbDhWE0j7+dX/raclo/F91F4uXPGK/VhbFr1hk8bZOWf3V07PZ658WRbuzfv+H7+tk73/lIN9tXEH89qi87rq9/f+lGE9ffWVr+2foUdtP3vEzvx7e8qavaTrwjOuFz9maO7tF4pxyDdOLPY6uLxR1kORShnz1+FNNmWw7JdKRUKG2NztYNlo2QfOCkHoZH1x0kMYJHXywLmfJEiXYoFfK4dpgK2ge12bRfs1ngnwj9aYJqTNGNhyD4bBdRt+k6hqrXwXplUIzoWb7W95pn9GIkRy2WGV6V2i5jHKXpDJOMAYgwYX8KFJowujgPGUWCMDeynq4eu6MM/jfxPstRofO4c6OIB9tnvPZlKLr87pEzMEBATFvU1L+yS7h54xs1aAwMhlaP3Y9lTacsqLXpV6Ewag5W8dRhazNTFjYRxS1v3WJCn7jyDX2fjCUI0eczh1RlnONMUQOzmLbzqKx4LlQjIiQS0W8LZgIhhRtAogKMxKzjjUYMU18KrDou+pyjWsEQxb1CiIoJ2OLaPKTYRVwfs4KE6iHLQGmwHGWia5kj1GH8Gk6YOROKl2mYveJEzkdbFIW5BxpPTZCownYzi76unjmzOlY2TxFoBHOPyNONvSacSsbohg1pO8EP5N833d+faSRyccZZnL4kB1M/L2lgRC0Lg7f8fdv7b3rg6d/pG7Sn02yta8s+teaMz0KV+/7RXvA8ZcsT87K8TsZmr7ihYfhKSerZRSEPzfWuuETn7kazp4//HONfFrjE/2JBij8EQMUHodc+OO/b+alV9bpS7LO9V9VFrc9sn3+/WdmZnS+cP+j4e7bni5vD53aPi8GigJosjlrQik9LfJHTQ+ogFDsT3JNQEy9i5p0PGTDXjCiSbKuU+dnYeXodfbzVaW7OCTNJzOm6peAoMNDPMBMlqZkmJ44NQi8Ieb2OWlWHiHHVADaDKWMOlAquPPk8KoGztk1D7YeXkJ9g/8Oh7yF2vnG5ksvn3Q2Ser301A09RRVIsx0zr1QlT7zJVVm0hTh8Xv+mzuO/Pz7f/ziaPz2k3Fsp7/7jm+988a3fPPWeOf0dPa312ezNzdmgK70e9/27PXuB34himbT2TyezxfxbD6P35mEg490i1+5ZmX1oV+eTqejySzaWF9tThw/Gj7+2TPR3bc/jagojGYG5Pdw7wJTl/I+BySjhcOX99ZYG4udgYHjpAH8GAmmz5S5w3RRHwLcHE5ip7+5jKJRF9Pgvw4NNfYZ64dcPWd/cdhaV+AWXH+hUdCIPAmMqObLHi6N5ejSeLNpuJ0xVVZLxgI8N+oq4/1LTGslnOx56G0eHXX3w1CBBgdK1mmJNCCupAwpAsm9Gfoif457smbFcfGXyUgART4+2BbPHRtmBb7BQU+cmqcdzql7144c1WBCoOFq57oMUePDGevlpOPcp7C2OrAFMQiN1vPBipPHxnrP1JtEEtRSPTIcJof7+ygLeRO1p7VmnuZMvEE1YmSL9B5rbnjemUgCcn8Hru9wX7OoyGZTPS76A9lAseR+w2d2rpxb1l4ZgfVEjQTC2ob1zVSpOKTnSbqqOnJRaHy3apWlUtZVtWz5iEi6u+ZYATV2M6q2NRjtXuFgPc2Kyih/SNHDAQER7Gwm0l9MJ8bvs43ih777NQQmsLAdxU7TnTnHUFjSZ7z8x2578WgWvTNKuq9Lu8eLrHc8XP78z4Xx3he+tInarr8nJBatHdsow+vu2QtFrh4J/A/4bJ6n4dFzB+EPPnnpz452eyLs7XGGp/1O9McNT0uI9gTj8yf82f6e9yHgqlUd31DW2avr3ovWps1TPn3lzIcmH/z390af/dx94TlfcdwhzLEzC4vLrfLcMwlMMxVvQ6Tv1x5xENLKFJume5L1mrOCNEeq0ztKDzPNV9gwKKEf+MRQTxl4vwwEv+MINMIxExWU4bVCCaPGCI90ZoqZExuhJM34wJNHN3XbdLp7+UEv4uePzUciTdDCx1PUXGt4iKnPaFGja24H41zA9OA2j43apsg0h+pEN6W2/rIfvW7tn/zLf3B+Ov3R42Z8VnrdN33DV9389l88tf75937soR9aG43euVdVz+il6We+uDr4pjuy+AuzRZlYpBiXZRmXthlmHBAUROdtzX4NXb0aVyrm4/GEDs9dtz7d/l15j1FhhvpRKtQ+mY5zFplh2DFokFT5UG6ZmOtn6Guyaw7WxIrc8tCxv8qUZ3/tlEU9axyNrUhjQ2SikaiLIidOhTFAEymyHsH3mgMA6bGrCRfGkHx4pepSE7u3eP7Ehg+DMDq8oj4u538TnX/ivWkL55uTEYx95o96iMTH1vK1MZJDL1uSOMOE6IGG+xcEoMhgUMQ6ofTlGul9gAZd2TytiZ8+wuKx1GvqQxLT5cgQjj/x9BgNo88vmnL2mSa/aqjcmNkDpIMJZGHUon62ljWbgALWOhRZtnO0YDQE91cTrKIgJ7FNFamxH2cxWwKI1A+mtoIKI1cs6uHoC19bEJe2aUYhCBVdI2WO04bfJ/gjSZb7iHWeDA8o6wJnRESotuw3SJXhbACaDeMFB01IuJipN86UA7Kvql0uNOUXziGyZ7PZ0If6rdPYclTEwQ7ljP1Vjpzj2JOmVC8R2c5nRJ0C7FESoWjr+/1vekVEWnsUnNzb0RAj8Yy96n9+9to7P3DqbSFk/zDNN27ILfpZDM+H7Qd/5S8HW+h1X0O9eOdXTMKLnztZRkAaspby74NeHn7tffdzwf8sMOs/leF5vPH50xiex/3zses+vlYUZ6YLn1+H1Zfla3ed2Tn/rx+Y234+fG4nfOKz56LbnnV62QAqz1gHDdRLiHYwv6Qs1XWu5mTVRmqfp4MIBukdzp1nbr5i4bTooAKS0uMVb1riUxwDvXVwhqxhmiWbaGdE0AFGzqWDAiU4IFaKYrTPYvyqRVjsn7DoALUNCDvShYim1F9yQGPTIXIrZuqGdPJQ6Exf5MuIiAzPTCPPxYJNQk5R4gCRw05wIrzysP6iH/iRanfvF/pRNF1bW/2vv/7Op/9Pv3zt0Qt/54ErR9/whTM/15lMftDMWqcXxxc/N+i/8gWhesQUd2zyEtdVE9ewxCE8wXMOvk9ZljaIXEzGmtVeEu541mk+Q8YpxltUPjAeioL2/m/q3gNOsqpMHz43VA6dw+QZJpARVhEUFFAEFVDEsAZEyaCIJANGxICyIEGSKKgIhl3FyJrjmhYFJYNM7gmdu7qqK95wvvM876manmFwddf9/u74a4eZ6a66dcMbn8BxULFvmYzACbAIuOTGv/uwOrCW7SDNYoSD64ZKm2RiqCZH2voZpex5VoT/tvc/5eltrHQR2JD02RG0tdFiS+ykR0zVAhV8VuTcF3silCnXWeDA6LSFMe9Z9YC07RbyTHYwspNx1pzVFSxyFNRs1jrGasrabFBMFxYlIMXjc4dNkdshyEbACOAF4bM1q6IIAYAN7brZmblipsZdmCuE3lAW7Qj6svvKW4Fmj3JHhNTzHpLqn+AUVyD+bVM/FAVt7iQV2B3P7rBcLuJxX2Ish6Ar1IeIYzeiMdlxyd5IdqItjiOZsE1RBTUG3uPkrPp0TRWUqvi7tTtQOWZHvNyASk4lqWpCWkVSkl15YptMO1AU+D7VVeAPRFsG0yEDyUZHA4hPOxLfi73DYlpqjgkGdkweBDcl+MxRnYUjPBG5xuQB/w5oPhIkwER4Ptlp8rxr1TO01Py5zqTFsbHd0XIUboFTKESQoAIItr7lTcc6lFlwI35YesFYWO4JHzn4Fc3Q+6LrZ09IZoddP9Wtxh+7VTUr6//PSFbnBwWafcpLZtWiATHPaiegdhIaHsyr7/9svZqYqv0XyWd3I7dd4QXuX8hhuyaf3Y3tnj4B/aVEFWlnoN7yX5HoOWqFn93nvi1rfzAHkuu6TePqec85QHlOUvY7maIQ3oKaXSwGdjySEhYzeUaRrU6FuR+TCS+7Fc8EiJhLzJb1gMkKTBsjAiWds2v5SKLPpazkUETRW1ord5S069bVNWZQ5HLcfB/kQWSXl6KOHB54qEIAdSQ+9wl742vLlcqKUGL7KxASLNQhIgt9BnoJYxc8+Li38QD3H/+Rw7tu+Po3Us3W0cl8/oO/Wdx90bkrh9aXKk3nM49s3mdwuvTlTKt1DA0NXHdqe1fXGw/W0UNIQHEMNzYyKHFPaVM5az/hxeae0slEgl9UFTAnoJhP61wmyU7o3gfWOYcfeoA1Vcuw4wFpU7yBAC7I8T5B4qSnkd82ipTiAHIsUum2mMBFgblgvaTklmjrgAkfpsVEgyDU9j0SxesEgyhdcKmQkCGSjGACwHahX2eZ8YgJEIxF4kdSTCSSdmSaYEIXrUCBostoJ2ODuRA5gb50rV8UUXOIMZTWSbA4UlYdAigyqdIzHVVyouVcELRjQvk5EgR/xXrz0FKjvdOLhWslKhi+1UKMeEw5wOXBm4FquSl6kPCRfBCUxeBRW2NOz94nHhMEIMrU/lOiHgMkG4JtRKO5msDvUwJywe4GgA7sMdHZ0uIAyDZ08L7HRC70A4/dQlCvsQDDdcGIFO6mua4+Hgv2LUgo6DrZtXiepV/M8jwCVg0bBY7Y0N1GIbXacL6gscfiDooJtUpHoodYJPN8ZEy3jP2PWFlg9JvlXleET5U1FGzj0sSOnmNvU2sBDRfxOsvoHkkeIzgokAB8Aa1LAFNkhNm0Oo2B9ZiL2AGlaeiXFl4exLDPeu0RDv+DmkwpBpoTP/zspXf+YtmVyk1+wkv2DiZzi1V18n5V2vzd/1OeCV2LjjFBc0D1dYXq9cfMqkxq51FcOwnh4k7N1NVvfr9198lnt12Ps1PicTr7nr8m+ez6Grv87jqdSlrt9Lq7G9HNA31rx28G3oGNIPuyZM9hM9Nb7nkYcXLthnH12/uecJYUSoLoiaXggNSMmxDSYBy3nTFTNHEDsgwBvb0Lwo4itkQ1JDDxh1HiCULkU1Nsk70kAxItCOYmO+KWrNgT4hnUJkZTcp8z35iBFtpWJMWhWoI8DsZ/IcYTA7KrSoqOlWh2ecJpMx0A/lyZ2axq1VF2DKK+XbWfUUn3BEUABdXjMS67l77ihg+NlUqf7U0m7m12d732hP0X/vRb5lxNl+ruv26dOapYmftSNgz3zcl5rk/lcufsqcOfma7H1VouIBGIJCw62vPdOJVMxknT+aSSnoZ8Sy6b0r45P8mEp7LZtOrvyavzTztGIxjR74kkxzTHPy0u9dPUhWvbTaByROfAmbzWVslZXFob5mdqc1Mda3IECLdt0UGF5SoDLAIuOCa0mIZ3ESp2GNkhyLUCUYFAla9FEQFKAQCZcGxJIdEkAwk6XoiIdvcutKMhoWyI9mCTwdekYiYZgeJaUmYYshjAroS2CxZ6jCrbtVJAIgZr7jvApFt1Is/Qtbc5OuiYI2ueiKTIzpwW7eOqPLVZEkxaiJQdqw/uT2bEAsSi9Nqut6jQsQuRTkyImhlzL4l8lSZXive1E8l9ar2SuLxP5zq7ONqFd4wnfeFS2rF2vqdfnKRdZTUZRdMOUwSuPyCTE0RWny1DHyEUTEgujbkSzzWgzHhPJir6WUWi45guMhklKP+UEPCK+Wy1ikms9TpdVye3bpR9YbUmJpExngGTFFsYPZqEQYBMU8xLXd/uixNU28DYkZwnduOmYAgD64qgrZyQKDmwKwRYKqh0vLPA9WvV5sg1g2o57hspRgNLh4gohiqqGmJz4YuXR54z2YtvXeU9ujH/BnPZLncTuaXg/OCuHn/sJvV/8Ve6e2/+/sw9G6orJ6i4drvNKtVxOl9HHbZMXfPpP9iRnDsPsbZrUtK76Xz07rsZ19kF6eY+BSmnrH1353ervtyx9X6672MC0rs5Lkc1I3fl+GzmtsLQFSeW05VLf/3769b2FDP6TtOOX/KWgzSSC7XhlC9oKuvJ4+mYAoyuG9nup8pqFQEJ6CZabaOKNckKSDVqXYGLYclrMEZ0LTINr9k+bM6UMROG9Ewyb31ixMXUAeqSkNHYVHKbOR4pDqww3VDCIr8sFJQ+O3WL1jRdgON30GxtN0pRrnasAkPaVNvlzjmkpI65x4dP/syq7NTMp/0geMby7u7zX/qMRbdOTJWc+vYZFw/a3aOzL86VK3dmtC621cEqhcLlq3RwD7ofbZOP4qpVaVPEmO7HjbOZVJTwPZOAfJ3NJLTcV57q7c6TZr/Hkh6O5RIWPo0ltO/DMrko0kRkhEK+p4eeRBQ39bL0iCK4oiWLb3Qx5C8pYaaHLQRMCeoOR6GzFkyUsMaFbke6iTsgi4BD1wkQEgIgdgV0UsV7YOyXSFhJIN+ObVodl1GKXOrY1lbWrppqDBnZjQC6q/KyW5J0xREajgWdCqWTaCMvVuqhfZ22JqCos4hVAAVgCZYILFQ6L0RrKlSH7Mj6F+7Nf8N9C+g4ErND0EtG1WanKNCJLs631tRI3hgdZwoD8ux7kiRkfFlj0KU4s++IYgCmBFZ8VfaJ4lCMuztpa0uK2yYdjp4AzMha1QUkM+GoVRnY01QzV5xIEMpt/iyyTE3V1b/EFFIjvAbJLDyqFnKELB2Mz/0PpgbYRSGpN83nwh422zXA40GBOLhsLzWx5c+qaoo5HBeSIFCCKCqVytj7J8OCAAUOwDkcO4KgS0HXhIz7UJhgV4Xk6TtErOLexLn1LIdOBF/FMqVpkl9hcKl0gyRZyxSC9xtQiOYeReGL1wX1AoVLFWsAUwjRswmZGN3A8R84bG/T/X7YHMhJnqlYKtt/bDLznBra50I1tPcFuw3yYXNaTa37wj9uFrL2NPssb9q9/s4JaH4iWr1Hrzpo3wH1hwfGd04S+qmwaVf9BSj1/I5HP13y2f1IjcFNq106qp2/Z9FBb979282b3s1u+6OqjD7qVev+ia1W98E9ve+5bvPGS681STi+7vbvMYhccNYJGqOBkPpn4iCpPDlmiJKik8DoASrUCBK0TIDwKQilkJsBwEGJnw9uUij4yj4BVU6TQZC2wipp4a3mPdLiayIaWRErcCglo2rvHlxpvpao8c0PqdnJDWowvT+X4K1m2XoIiWUxxoIMaFRrli4MAZBq1soXD51IZOPj0BdFa0eRzNn/sn95RW565ibH80aa/b1HnLTv4sdmShWn0dJOK9DOdyu1F+Uqc1/ImgSUt6e1mc1+YamKbsIIjpdGiywlxm/moTadjxeZCjMuFnPx4uGeGA/onisXaZHV8fjAo5vDSOJtp75QUxYFjqKuqIZzv4AK0jLi4Y6rI6Y3otRoxGZJtcLZajAgtuf1QPtBhJTzeNe1kjBhR9yVoxhHNNkUOze3ow0mo00hp4KXI+KjLWvNEpqEo4VXZq4PfaQo5ROq0sQmjnA82xEI817InJSXAdhBiXW6Jrw6a0e1ysoY+VYMWUZckVW5xjeArAt0I4ocfA4ImzLo8Xubgi6zFuPoeJEwBLkW8jVS6W5zv0wIvxFBmiOiXmtcF6mUeW/c6wjc5J0pWfRzHO1nrKisjAaTBEQ4JPySY8YCSFRklAqok4lOArbZJB77BTrkkn9G8rdPpXJ0MOz8YGdhEmgC04IMlNpNF1EPOKJLgnsETyjlcjcTRxkLPhJfJoyP0WlgzMfvpxJCUXhKlpiNX5ksVOB9juWQfJEIIDOF+wb7s1RywBZ0Qjp1LVcOaiO+IztaIPCIICXXMGFdWWeYuDBq424Lnk4Uyo1JOjc3C9XhG+iKTUwIS1UTOhewU8O9iWIylU5T2cFEDcYWgh8g6fTCt7WGG43GaXH80/fiMwzucxE/TO/qM9tx/OlXHKleNWCS1Pijn/zH64K69uax9+QjdcDqxk5JZ3edkKle1WGHLFa/f2BsF9i0fsq+R++282l7tevdwLT10+x/5v+McB2cTsfz1NddeNCpKrZTvHby6Xynhffj7wuLD1LFpQe132SR+boy1/esV9Xjze/70R9u/+WK/g3h9bd/X531mkM0bhIvlbfIuFZHpgk3fFffUkk+jqDcquVtKhkXOA6QXYEg3rB8TeQyrKpDKwpJvkCjTqg4d0Bpcd6UmX3Y2c+AYOkiWSC5tA0U45gwUupdJQS5Q1kUwHCBhAMiCRpYcVNg2pBugcQNyLN4sJR4W1GxuTKu+q78odv9wNiHN1QqF++Ty35166LBc08fTDZGRsbcZhA5YRg7/16PXpwvzd6RiePiiPn5fVFkpVK/+mg6+e44aMkOSAoFJKDY81zTAXlxKpWMFwz1Rn09Rb1y2YA++7XP0qj8ydo3gQ6gCSRbOORysW4VFBKm0BPpe+kkYWrGitqzPkXNJoU0ca3p/+MXOyrGuNDiTNriKAUJpjZXZveaKw6Za5G2HCDh/DBQRYG1WalwBwVoPkVTuVCuWWh9SsAc1hqiLZRKng+8dkzlDgVqiKuy67RLKMfaxiMJiYbfDsXtKKia1xjgPQDUXDIjdvOidG2+z7fumtBjy8aq2DdM9W5xw01YAVLTReB8Yn/lNuhqjj0Mkky1NmkTsDw/tFt3pdjJ9wwy0WtrwY3PCE5PFEqiBuwbo2MZp3ncpRF5huNzJJDj+oDLkuwI7jZlfInCLZXp6MeRe8jEIwAVFA+UAMqkpMCIRUGC7qymQ6qVtjGQo9uBN1QDCuFAqRIEJHpvQMpRbqm9H7WWGviZtgmkR6sFl+O72alJlTJdWG9xAZ8ZQqB1Q+VN4mglAetuqfL0NIsXWJi3HX85PgWVItstICXzmdEdo3CMnIjXcW5mlJ8Zz7jjix+ZOdsKKjldpgtCdwf1ftzv4Heha5oaXSsQeQAb0Im6ic4xg+ahIqta0mhUn9W/18Wrzam5yxwS8JhizWd+NwfocthsrqjG7/gzi+XYsWV+0kt0v8D89/A/WhIqLnoJf9/bdEED3fFOo7j5yWf+1+EmCX3q9j8yO+++89kNgdTZTQek/osx3C6wbGd3ex9n59da+E+n8j/9uHGfF1af4LZ23re4vp39iTeAdiKHHD7f9UU2oH9N0nNWn7Smf9X6tT95wWbzYMaf/opAXi848wSNoCF7Cs8uT2MhlwHd1qizvaYkPQzuTGVbnR1jgADM2qP0yJQJpBlreOZaZ872ErabAY7uitwz+RzNoAOnorEPDoSiQjHkQkC6g1I1zPo8r4/JBQS+OK5bTbiUBBYs5124yxbsONDc5CBmBnjvSYqpLnrnD7ozm7Z9MVOrHbdPd9e7XrL/wNVT03PO3Jay2zJxCDJk327oo4ul2c8hAWEruJ8AEcbvy2UvvLZZbyB2yD1v/tpxtcsE5EcYwRXymbidgM567bM1bbRNsEYVWoWOV1AlWRpoRCx8yZGoz4nIo46sTbjs3VxWntAHK0miBi8DKs4+9jWi8ByjH9OO3cGFprvMsHigurrWO3hUCdnv4hyR4Bi27PiyqnI5MabTUkUIEg1Cr4BIh62OwCb9YFxJQlhwRxYoUexbIqZp2IFYO3JR0vfINyOqzyZQUfgWWDL1/zDqY8sdW+FZ3bHbUCpFQATGthz/JUVYN7T0ETqRauHH0OlZVXie0GmikQqDHTqXinshkaQJqLvXbQsW2RG1uWG0m2iKsaIkUBHr9OmoJA6ocjyCIJXRoBJF8oxwKWEFLrsueR3homlbwgtpPOT9qwkawI60Di1GJFU0EZRNy6vy1DZ2mcMrDmRnyj2bI2KvrrXgCImkswaHDOhFolQB7BEZogZdeVGYBCWM7abkmheGeK1ELdtTRXcxXzOMWtacr5udlYfrhl2guW7NqMpxd5KK4y7lttCtY6+KUR8RdYDJdy8wx73R7gDLYg9P59w5mvVlh/qZnGL6F02xi0Uh0zSFE9GqRx79hu8tqL/qHtw0/3n/Ey7IdaXZqtcKQrfZCvwoij2TdfGFahA9s4PRBMKon1nmZxacfpepVP7hklBsW7jDDtihFTe/C5qfjNr//qwDF6rli4tq7abSTskjUnon1bedmxm7x9H6r0s+O43q5kGtd+2C2tI9zo7Pw/hS23z37+/e70vzZn1aDAKU3SrIFyYijiPMTNd1Is91I5NgovzQ8U6y2XImp2cdPECrVwxr8HJCKikkZJ8Tig2CjN1kCRxQFyuyi3ip+OhxkxRXUgp3wnHUFUZ2MtPPBEVorFVv1tYSgLYDCkvcmA8VAi2cMov9S0XOw8uoVLFLLMvhxpkQG2tIw1Tr22ngRRM1JcgnAEyAQop1naccI6RmdUItOOfuvfJjE19KBsHquL//xJfs1f3dUiVwGoHn1JpNN4y083Uvc2BXafxzqTgGzZ8JCESeiWLxPS9qNdZq6l9oYWbB/RpdkOtiDBfnc8l4yYLeGOfw/NOO1REhxVmOLFD9AQEFCC9QU6gsweOAwjJAFtgXcJwYWxtoLSPPuB50uGAI/tmC6T6imqrMjAsZMrafGXwQT3hbCMQIIlFSFurK3rVAzSGQwRa77QKKripXWMBqGHL/dIQVyqDMGh1llSe8jtAtrhmCCF8VpoaByBtRGslee3LJ0FWA9Bg3O/e4GMBFptIXxQUmR8gphY4FRMSSfPl5k2quOsWEBwi6Q+Koqf6tBBN2D3wGXE1r8HogLHzcquC7oTuo008nZteA42pAUUErsvNpZwGxzXyXOAJY7hC6KIyEackN0Ie558CT1JE4mXrWz4oEXXY8nt0jJdnNONa6PebyPUlpHxJeM1I8hWHNWte7pB1AAFrTYwtIw4TyaGbYZ+1I6lSfCM37Qj8RbtZevp/fh3ucNhbQBHSLRO5RsTsWfp/YvJR5bkQKyaP6fVivqjgtgKBi/2ILHW8IqR27YO4PNY0TASjwbFfLyYPoVFPCCl1sgpJDLu/hEND/ZluIVcajGLXBaBMIQX9gOQsInCMUsLQLgdKCOb5EKEKpOFb3mtN/E6FCeWLtZqcyV3XK5SqSD8l3dqfrgISHL3aSmrhUBLjI/tX82PcP8ZXu3k/QcflI7b+yuVMC2rUbmp+gEubivuiIZR3kmmtFK9ydlAv0DsCCOx98sDu1A71jPLeL+EG799mZU6R3IaXqHT/ktEF1NjtIZER5TkEqh3IAOpbks2NeiC06CmSMk0wV49bG74nrjcCt1prOxOS0QygzBUgdy6toibwPZtnQngN6yTxQxb6l3Av4ttNB9VPoWkBOEOb4FHTU4jZJRJIjVgBtpnwU1bmXQZXIatJ8L+y+sftIZvpkeW3Z3uTG0FTPY+Wt7SKcr5vwxfDNc8QFGBDguuiJwQiPI76Eo4ZOuet5PdtGf5jU2g8WLTzi+P2Hv7t1rOrOzDbduXrgmtPh3Oqmlg1MTn0xFUUDqMN77TlrFPJf/KegcTcKL0HC4Sy62nM9juFSST/q6c5HyxYNxmtWLtZvP+N4jZ0DE42FvdMkj5yopHgrMVlmWLW2fXfweRU18ESQtI1uozJyHQipUfF1wv6IopMB9eZQ3ddmtxN4AZViBDws5dltWpg0K3Or8g2lBOxY0EXKAt4ul2ER4AosGyMdEn+tMrcQBWPrwyOItph8QmtNEIlmm+BvBKEnRZYrXa4vqFMmCcKvw85ORXZWTVsRF4m2pIMtdgcmqaZSouqMYO36CUtC9VWm0C2ozZagq9DdyDMm3ZvjhNzJpLN5vg46AtgSCC9GtPLEcE5z/CmK1gl2mLRHR5dBN1hxFCVq03PncajqPI4sdjeua0fYmrByqIPUK9Oyg7MiwYAhdw0sFnWBphCPMTpE8kAiwe4LUkr4fHMzW/msQDOQwR3oORQSpvtAokEswFjPtXQIIQH7qlYd433gWQdeuc8SjApxS/alxZ4lEvcg0QSNt5SohLdrZNrRO7rDB+MOJxIACnZQorkntArcy9ixcTRobSTweVBAIrkDnJRMdJnH3DPdf6/Km5+nRxO0SQG/97NgOlMM2bdSYD7hjLai4YnVgv7B+EGMUpmJYlvFO+48eRnPzwnoX+l/qC6oMPRinuODVjdUX1fc0Yp7ug5oXsBWRz9/ubrtzodMQIufFhG3c+ejd68D9xRV7HkNkf2DM//nO0ue3XdRvBih/XvNilxmptLxdLKdJKBOR4WCQWtBaEjmgidJFDkN0w1lUq5+Yt0W55YvBeqSt5ykZVkcWdMtl8nHi3dIrJCtrUXskcZy5r6ZndjA5JTLDhMUgFkxqljRxaoLQCAWngACTfL0O/ZthOFCU+isMTdnqjNATCS3x773Z3+PRQ/F739ZC4Z47VEGAxeEJundkhGuCSDi0AGLpKIVk7KYsOSuE68+OT869nmVyfxHtbf79S8cSI3Xtsv4rRXETmQ+/1siVVhVnv1iqtVaBanNbBtsk0w+ekUu+/7SbMmVAozPA7pJm4ASUTabiQv5nN5z9RJ9wenH2yvmcAbfYgCR3QHGG0hCDBw8Z2lWx02SbqULgvAmg6mW+wq8IvJ+zPkqja/jkrd3aBUTCFBhATqnIOT4Ml9ApS5qF6HXtPWJYwOIw/ehkjVUB5Ji2eCGAmIIKZ+TkG4KRnJRZIsDZaH5cefWBJIPAItC7xD3drz+UHNO7lDCUK5ryZ6uRcZF9ismqRb3ROg2ZSfgy0jOtRwU8Z3Bn7tpuidmmWKBgC5CKvWQ9iCuZfRTcYKJLiJwpVEb52fFHjOXHFATWx9VWT3IBCz6dEi+dXXKp4/cb3rDf47/6FpnnAUMQSMNK7nTJCJMAv8cHzh0jCD5ovvJ5LvsXia5Y+So2sK+viD5IqtSn8IuqE84dBwtys84THox72MNRCCQnuaZA1dTFBYSfJ6wPwM+Bd2FZ2H4+L3ZmOBIC2onmijANHdZ7KDiluguKp+FhpC/fY47qUwAAqtJWFFggSBW+FdbNQacA3FmjahKQcCHteJOF3osrSKpKrNjotANNKQVmRXVK/Fbki7Wof5hCANFJdMKls0qsusDT84bdAAx3xO0h7JyFxiHY/lKz0g+GFqibqR1e0VuHzsvHWj1j5eEYhurn7FmBypu13Hc/EQ0vxvae3W/Wr26Sz36eGnnzOE+DVdnt7+cXYRMnd18h21XnF0zlLsbnW2Hn8k6NuMCMwG5eALNVW0nIpuMdto0KUcSkWPRXLi+pgLRskhNWJ+XBCveliWcghfi+cIup8wPUFkN0cNCG4+gn+9eSCgxiG9ZU4UnmJRmOEkX/oBoggEeWjj91p5wcubsYr3+wqDROKgVRb3z7xg8DgPmC1rmweTUvY3XrrtzctWSz/z7Xr0tBJYLT38Je248bKiqQDKk2CcW5I7clBghAPKdffHll4yPT1zRVch/44ne4mmndCdq9WrTqVSbUDhwkIBxUl5WC65NNRoHY8i0DuK2sgeqrCsWL7qqVKpb/X2b1BXBCD7Gmfl01N9TiA85aFV84Zkn6LY6M/XCTBDPFvqtm2nKcnt8Lm2hYC3EX/GAwpgGKC488AFVB9JEGGEdCb8gzNTzPQtNlznORKRA5GWFnTHVfh9FZqGQoKiE3BTibjLbseIQPTjpdjyrJsFulfueiMFVutdA5I6shA9Ea3EcJlvZfQhkbWZVEkAKu3NiwFIe7xGKsLa1A6FRp0MrdtmyE2VX1Aa0VUegmGjSAmBq4nSKTgXnJmx1nJqRXBHMUdgIMVW6JXDbQPBF0oyc2GpcKv6cgDWa3LtQ3aEFVYWilRVy1cW3L/dNEXJ9M1DfN53GlbL0F2POREqQhNR0I4m1DVt22VmRH8PqP2l3RC0rF6U4giv0DvP92bVZcdQqVM/NM4XPiWTYHlt2FHUhedVsduzAQUkAsAT/1qh47IiR9CBoW69Nq8r0CLly6GQwdsz1LiZAQxQuapxSYJRdLU3wGIAsxLGiC4ECuUKxAhUI60TsWJsecUWQohP3Z517NLFNYfcC5Kw57rmZMe6AqOQQi4tx0sLmYwtUIrnYEbIsrrGYYBbEzj4U9110Y0Ao0m8KYB1WJvaC5zJJ3Wi0tOmTYj6DygPUNIrj9shtR+AmOiNRsM53/zhJyPWF3ZFPx+oZqxr/5S5op8Rg/q67K6OOOGSxevSxmZ1Rclrtkhz00yciZzd0oKdNX7skH70bJJ2zA6boC/NVRnEmCcG00NzAEap0R5bmrDe03gVWTla/AolSJ03OSSYc3d/XrfdcuZgBngtmyx6nFTVvNAlCgiyS0ZqoPkcMdtgTAG6MwENnV3j+hCL54mYTqnjzr/34R785V09PX5IIgiUAvx/IrOON63T64TideiByvW0oef1mc4/BVms/p9F45p/q9WcPVSpvO3lTz2Uf2nvBVz/1hZ+S53PBaS/SUWjZ2lzmKyuLYqr9y76dSN770GUbJybf/Yze3luOO2DR26Zna069HsxLQDET0A8i99LM3NzrkYCg/dHGEVZ6eq55Zq3ye84InQ5sUXueE/m+G2XTyaivOxf3duc0nhs8VERYQaZfCZy1LRYpSshiotbumrHrAJkPnQb2Ww1TbQshMSNjWaiPm2SDPQZ+LldcyA5IBDYDyiNR2TnTa4JaH0UgaWDm7+CYIVhi15OKZMcnMOjQSvdDVl8cbFGNw1BI8/hEuJMYajqRJoU/QkKiCbDdw7zjMCZKZLImKPbThoPjOFarEYzJrGxSyIIXnbNrb0JK9ihlFRwC64/jdNBiig6+AgsHdw33H0ZzzWCW+z0vEmv3ZnOWXQ0V2hEww4iVNq4Fdj4p0wlATgbdZc/QaquxJp0I3G4fX598fmHYPdKcw0UvvaRx87H7fGeOAr9aUIDvOv8NGp207HCEjAsel+NlWIi5Fq4soz/HirsKsk9ki2iO0JHGatbmGPwBmMH7MPgi+Uct6/vjUrYG+xckKYzdCLgx5wujx9qsuB2XJ9eLay9H4ykmYVxLBHTssjCKzRUXqBAurDqywBQxgyyNr6c6Rc+CFSptrhuOrWUXzFBlIFgGIqi0vZfdFxO/6WJ6hvfgNSXSEf5R9ZJJhNtE+Hl4uXISAr/G/dLmpnnICyjKIuGFmaxpitUEkx9Gz+A14dnlDk3KO+Vjno6st3xRl45lnhzPVetOshVqiiMGgcNF5fwQbNEuzUQxjP5hOiHXQsvfJqi4pU21cCD6q0dx8xPRUYcvU7fe+cguKLn/ohNydk/cceb1JU9BvznOLsnIfWrGar/OTgpB3MYReOB7bogA6XtODL5KZ9gnpYj1UwEU1WPgNN+jUXFmUr5uz/bf8dZXkTNEi2sarsXCx4lSO/WXDLBRTkiHFtaLPVJIC+NAOqhYIMjO668cDraO3pyqVF6Oeh236YDjNKOe7s9M5fO3H6Kbj3L8FZIUo3TG3FPplPpjX+/B+9VqJ/szpdP+uH30rg81m8/77WT94n/v8ZqfvFVs4t9+2tH8LNiHINh3/ctP3PQDo59dVyq98cDBwfe9eK++j8+WG870bB3q1kw+SEI43m94qZckJ8bfhfHb3LwEFORyP325im8yn81jOBcQgiaow3OjdCoZgQvU19ul91q1VF987is0ZGX4s3BthTgmEjjlW2Y69tcINgQDmGRNY2X61yii5xjMXUXS5dzMNqon5LILrTPnrLDpMZrBjg4ET8DkoVBtqnQkIoEUizmcRzfLBIMKRSIp6ZOS76EMUMTRj7IVKp71BLu1JkdsIYIJvGPgbYNAxXFUW4BV+E7gjKEK9/hzARNDTKNL8aLxMOLD/YOA5ovgqABbFHX7ZJQs2nbYj4kShBxLHMeWyBnIusLxiJSLNJBhMaVrRFRZs0OH+gII1Dr0rPpCUjpGEn6LrLK//Ks9nTc8b6O+6+eDznf/sKig/Ln3RzFGV43VlTnngh//IfWJTPSnqLcrr/dcvUx/4lN3OZec+xpN8ViAMqBrZhJeiufQtyAQLV5HrrLH7PK/IYYLKLzvCEDAMV0UR6/mWlXnJnidMHblfoho0zKLfwASBJknYBJ0TQ0qjfg7qVGk6AeW7BSHdEiuN9iZpDL9LCAwDovN+0HaCee+Tv+opioOLOS5hskkpgXY6ZCMDJVsjAqxv6J2oXRt3O8p8QCigrsSFCFcUV13hseDc01oOz2TclapviUSRzL4twnbY1eLnZKrU6KDx3VjyARamdwmxhDnvvH5+uY7f+WsWj6o14+A5Y1KL1LTparTDo5t6GccxxY946qRSncU/j/vgnbenbRRcc87qL7TmG138OzdNjHm7//pgEVqeDCjtmyv7l6tYNdOqN16OLvuitrftQu51bGdld6VU/R0fCJC6sX0y+7kZPymYhfJJ5WI0kkv7u/vjttsc76rHZ1IJxerXspGyIMOSDHe7oxXP0vPzY7xwZdRRqojnEi0G2XoTcsfogUSld4UocYt+oK0eQDtBIyuIDj95v5g89Zv5mu1Z3e3P43vT5QHB960d1T/WVwvO1FMxGXnBFqUlN4vrNxn/njfgwsXfPmA6ZlrHpyeOec5Qbikuz7wphtmN872dmX1dbf/iInIvJsaeMcPuvNbxz+fr1RefODQ0DteslffNVNTZWd2LnQDdD+hSUCxjOA+n+taVdi2/bqM1uTPtyGd2hzbb4qF991bmo7naWTw/GIEl0r4USadiJcu6o+RgN59wck6oAy9ZUPLkFuM+jinz3XUklGVI2jDzqItrolxD7ggtMtAEsN4hLL38BmqsLIEtBteMYgAs+NrqVRQ7FnGRITgRFQWfaHEDrxBK+qA3Sh2QBEVj1O2gBE1ApJC6UTrWT8m3FeODYAxj4tzeujIwY7ZF4kn6A6GcZOvKwrUzQ6aE0EHKEhYtzeqYybgLWchQ1ULfK4O+sok37Ch2kKvhI1bEIvc9pFMr11Rb0YAh9YgEh+6LoAVsDXAuIgBjSoLqqNiTea+SZxITgJY8NW1t/7+nM9889ATXT+z2LzpkJca7lVunxB3lfrgpDr0PKUO3bp1NvXkzH1Xvb63u6Cv/NRd6vzTjtMECBDB1mLXCt8rwNixv6IlNap/nbAgi7p0Shxvi0SQjD2lY0JSBOgDBE0kX6ejBOlKsEfgB0G3Z4Edn/rcwzEJxS3R5jPXFfYfHLeiM4kVuV40IGTnYk0SyTerMYkjVvcvXs0dTaW0nUUmd0xUE6kyqWC/hl1Wew8McE2QrNPHiKaJNPxrMpaA7Iqf707IqJOkWStG7FDAOEkdQoye8fnT7fslFIAMeE9NUwelkjnGjrmpcZJ0fSBw0rl+de7rDtOz4xvVwOIj9PVf+JGDDLlq+ZAWjJi22dERe1ebibf/vhir1l/uhOBo6qcXWGJUqP5+XZO7Sw6KVc+y02QUl43V/k8zimsnoqdLQGQdpxPq2COXqtu+/Li5qHnzUBY5uti5w3F26XD+Ct7Qru/rWM052Cubh69RHtntzwloZKeuSu8gTrocsfX2FuJDn7k61hYV1SbNtRF6hJhGAmlFoLngzJdqTFmB6EEAS1GuJWVJdYE4RYJ0GMpOAUx0jh4QpDDbD6ARM6vmZrdzH5Sk8q+vKjd9y1EjW29BAiq2L4/nlaaWLH793uXp35gHwQujyBW7YuEY2kGvyIFyPm6SUa38+0/2dL30DZ731QcqlePWuM5tRw32nXxPo0za/LW3/1id/+uNvfnRyW/lq9VD48WLT3nZnoNf2bplwq3VGkw+zQDvI0nipGw+MTw5dV2q1VqMT7IWck72fI719V320tLMk1i57JTgXXSYJgkl/bi/t8skoMUaAA7wmWJ720d250JPpDjoTAoQMDFeg5cKnhWCB1qiCo3xSItjjLRNwJEJ5P3zBC7Ng4oRnenJ6BVkKmns4vLZBaajWiSkUNfreDRhhFQ2nRSSCCwaoGCRSIl0Dk3n7G5GW5QamW+u0xGWFRuGbgIfmubYvFik9glECQUM4KdFoDMIZa+B+ICT5Dm+tezoMYlT9ileDqitCcKQIY/DkR+IqZG4l9JeARTEUJB2lIhhEMtTD1BnIib0uBV2IN6YKGIcJYg0SMGUeCyO53W6TgIBEKPCyOqU1X81s+Wnp2Iwwrgw9CI1vfl2Bn0c0MBe78QqckDHze+N3v8+b65aM01hHF/72W+zcLjo7Ffo0tRmdpeJtChW1GszNJgLWmJLgE4BQBLo3tXKM9ZCo5uJCp8NiTRb6OGIFIEdUk28V3CuOM5VqjK9RWW7es21HbYUBkesDwKJlxixcUwILhb2Tri2NBI0BQK5OQ0BKXDcaQqd6pRyzL2BkZ7s7ULuIZsYiZmuBXtaFD6pfHcnruOzYFzsm0SL7hcadzoWjyXoOGIsGumAO1iY6lGJBF0PrDsC6YDRSYG/hu6NthUdcIrYZeBBTwDlSRqAR4QfEqmfLQ6wclOhw5sJC7W3vuEIDSfFQs+wVLnI7hCQJDqjwjYKN9N375/W+i90Qr2r3/e/1/js5q/bXdA+K5tquO9vH8XtPJJbpb75x2N3r7Kjdi+Z89RR2u5ldZ5uole0H2Tsgc/t8o9Y2vLeUPPcJrTsehxTyHsahMmLzzlR0zKhWe9wj1DliNx61ElMXiJr2U8OOa+cxdPOOkkUF8UVbaCS9loqUCRCVIUAAZA4Sc/7jH3oMmKI+NPHz/BKpZOydgSHy1IfGLhyz9Lkb8Ezg/2B1YdgG8ixsefG7b3V/PNxUa1Sjrq7XnOK49z1p9nyy1+WSr/3K8n4shHz3jeOR0sHt41/Pd9o7BUvWvTPL92j8I2tWyfcZit0mq3IBQChXSD4nqtPrTZgz30UyEBPmq9nteHYXV13ryzP/KtNQE67AwKvKpnwQiSgQiFLQioTdCTq4VKcxR3yI86J74ryBPZUVCxww47ahSyyUwwclLH3reU0rgIW1FHTyq841nIgR66TAyZ7JqtmStMy/8eKCKMhcG/mJomOguoEEk8AGwUInlpDOpi+0TaC1iwRH3rlCKERiQ3HLpDdnLhz4jh5n0SEzYAvgxsSdtZoU2ibYDpAjnCgtm6SS4tBMSJHKMWDU3L8JnAFTkXACm6Lx4txkWdJxWLcZo4JYzzAxO0eSURElWiY0VJeiLxccsdA4QTWyC3m+9EYz3UFnWftL7Ang5Dnf3y296HjLjvp5dXqxKdr499+aWnLNzvRo2flB0zQDOs6LF9Rum/ZtYmEj3vTccdmcPzxmj0gvWS6k+4hWf6bhFc2BRd2TgXzd9iVgJ6AjhSQbTxjNG+zahPtcSbGkBQmNYkM0lZtbUN0xnioMQaFegF5N5G47Upp6pIgjj0RCOMpWmC0FFX0EmK9jU7LBHBKAGG31KxNsXgAKhPyQLi/sGtCTIfLqm8KSSD9Zse30DFW6BgeP5+GeLHv2HtEINnU0cOIEccWBEQrImlBlBSfE4mmfRzKFl+0ygHIIZVmB4vCN4yl8EGxEBDmnrKo1jahOZllEEF6gow4eRjMhHl5kxhqrxI23KTg90VSoz162n0SyvQdoZIJrVYtMQcROZTa+LvkIPe/Tk5HHlQjbv5vHcXNT0LP2H+pOvrgSG0aN0EBnE9H22X/bkR7nqbR2dWP7qldorPTa0DTcXx8Vk1wdL7Lvqgt6G2VLtvHYoO3bb9DK5VvdfI4U65yBi+kRIcGYbjJENAg1gpDrBDBBNa/phqnRTKQWqg+IS6ayHKUgt2LLCBFGRmvlUyJ+CaxpOYAyx/8ZlaNT7wDf9psvoaQ6rLZBz6RTtwWVGMfCtRtaHpbJd4l/Bldh6M7vaUrr4eg8M5qpdLf23PqQUHwk+0TE5fctHzZPYnI3bZk88afJ6IoVV+69Pijev2fz43Ouo1G4NSbLYIQ2rB3k+D0v6XyL0uNjZyHEFCZl4DiVGrTl1LJ98fNmte+fHbXxj2Q6YLi7q58tHRhf4ypwIVnvFTTwoK7th0abNyDoDsAv6cpcGecK1Sh6C7wO64XuUM0ehNUkdgHKC6/KVhKC+iIcGWxDhASYiLdpfoW51nZEizCxbLHnVH7RktbJ2R2Gm0YcDrbQd+RZeEKd0vcPRNEJrXhtDQ6jNrk37RVOAj5/VXTfKYL3bIvhLYYbN9DUeDmfgpePJ6omqMoRcckREhROeAOAxUUuF0AMtAnqUXZH9wL5K1osVJAFa0sclPsxuW5RfWOoAmpoVZcotJ3xgqPSjEQCsEXxw4FcqvefOziU0e/+JNF57WiLP1n8ksv4Rmr1SYBQ3yk8sdVN5nX92PhRIaVubqenC5xH/7JW76uLjnvtWx5QZrt7teCYlQiO5TNiw0HLSN4R0cW/h7yukIVgEho3o6+kLWVVdwORaECXVWrVeYeEFw6TZXqbu69YCzIooTj3N7OOBXdJgVeYXkRlE1XZMe3piNKwSNsdtJONESLD8AXkF0pm6XhnZRkYcNCFELFNYwdqywylCNWKyxKWMw6Mt4zxSruo6AODUiTYEItwANeK8ciQWUMSWktR+xeoGsonKi0qOhHmtcGVui5Yh/1CX1UNpncIDNv1nQ+ncVXQrzltZ1rSkvctBpTiTYNRT0dMq4++XNV6HueOmBVQ73hJWKjwB30LqOv/41fCV/v1AG17bz/0ihu1+Pq63LUJ84PVaMJ4iHIkyERSxGdZv++ezAKVJpjfvCRSXXd5/+srELMTtnViTtwZmcnGDaTquyTcC2xU+BMHaZn4B1YYzMkExD/4jCyKsi6MwrBHLqdCbkvUOIjoymNUu8cS0R4cY+02yQ5pqnuG9AzxVQ5G7e83mSCVd68hX+5p+dzn5ycaMZ2BwQEn6RYk5GcBHk3SBSmYtS+52ht3TODIHIioAJi7Zw+V5r8wvDQhX2bR77eMz7xSTeOC34UFaaXLD7+EF2/15lxQbB2gqBFDhDN5UwAgrXCp7Jdw4lNm6/OxnEqZ6Hg9rOGI729l503MznZ5iNbEja7IIA98rl0lM+m9J6rFul3mmCESrTVEAFVBHDCZX1BIQl6zXaRQJippLWDFkttystArp9IqAJZ47zuRBx67I7apmx4DVO9i76eA0mWBdagzueOCYrRkO9PF/qZOTEONWFSdlGWp5PKwkIjo7Dv49jG962GWl2MykA+tLI4QsJM8N9oB22OiQZ7qFJNgmnUp81rpGUkBDhuKIkSMF0VCdAiakFJOiFimGTkN0W1AbBxFgMpqxuoGUQxWvO4sBb7a9xTkIjBPez4vuUvmS4L3CAbf9DRISAHLWvlbWVxXO6Rwh2cHchLmX/65M13O0+sG3GazaHBWNfczIK3qBaSzw6wTY9K7ZuJGw83ZTendNPci1PTZd3blWPZjE4npIJIlVOBYs+izghUrMNTfC/YRtSrkzR9pEQYSMlWTggPLxQuOIo1XRqSL9UNoABPkzrNIiSZABRc211sxiQ503G5acK3Ca2OFQmw0InDecqZjqzG0XDcCQpB06emnU8JJZMUQuloG7WqShe1yEclBcHJLkbXZawL+/cCbN0L5p4ZJ9ycBamTsOvuiAUVjiPnD1mV9YRwkFg4eLxvmXxN1ycdc4sxR1nLE3be+S7u/jCOJDeNXlapomQ4+q/7ks8x13NQvSi2Vh6zv6KDoLDhzSnGss3+7+l+jT1xubrxCaUe/eNS9a7zDlULhvJ/1TjsfxzUnR3Jp52A/tpR3PxkhPY0jTYS6CJWdZpfIh74901EP/5VRV3/b6Gandtf5RZ6am7b73ZKN23hUr1L90UQnOWnsnqN2zskn3h9l0rLHiGo+N5WfdLa9rZ4I3BOjVESkkijSg4OJd/pfJjg9RZn0ySDJVr8ViS7hLbOGBWuMZ0ul1+M46vvWPhP3RK2vhGGkW+XH3ggtQv7A8+nAnU+l4IKtc5lElo6DCEXV6sNpxnEThACXOA4b6rM/PQb3d3fTE5Pv+ZZqdToCBLQ3Mx95li5X0KyEmFMkbJIpxLxUQPD7tD6jZ/ONpuLMYYzt6I6xB5bta/3S/uUpu6RISfCpIM3lj2Q70XZTDoa6O+JDzt4H/KBtJWiF0fOlEBgtYixOvOQjYRbwyohLbwePNzkNWE6kO8VMi9sFGplEgOzNFFzeK2oGIGH3xWwAqQcu/qWcbwyM77OVMODci0xgkkVraq0ZsDme0OPDot6jP6ovCx2zBjZIaDTjsMV+RVCZMPIBhtt9dcSYnhHHTtTCERzvDeA4qMnjtu0+4qA8SKT7VLZ/j4mEoxpSShOtkmoMT9rE8WMxsI7LfccQBmmmIG+n/ZNtwaLAXTxAEy4iY4yhptAiygBWDo02U3Xa2JUuIMwrsTx1LW3WCR7jERCvGo8+l81D/X7ToZ80ZSKa58zH2ShcjKvNT+5VOdPXKnqDz8OTkpIq/aI9+nE1IyzavmwZrJMisJ4AucH8kVWJ861lgcRtQqniWLEtShPjXJUmCl2mZ+1ArsWBYhAHStRrsfiH+NzAArk3jJ/70b0D2rEpY5aOKSrqqVxflYoGHSZgrJWm2Bh4UDfDvw9SyBHgsL1KBQGZPzrRuyo8z0Fc9/0cszph2KyB95RrTTKfS52dzDZq5dF7xFFbLU8SaACzSbBI2yYrjMp8G8ce2zjPwpW2nybAjWk2krAf5OdJ/tU6kUKyEksPFBY4JwSmuGZTMcZn6s6BEPwPrS5QZ2Ea9utZGcMoO2iGjetIFv+62D8s19tUo/9eVK987znqGOO3OOvHov995OQs1MS2l0i+mtfo/067aTT5jf8vZLQ1Eyk7vhuRX3txxhLLFaprm41+dhXnzpjjNujt/mpyYok2mNhuwswnOdZhry2y2mR9keSEbkUt6N51U5WCG7Y6WjCs5usJnFjiV6YVXpmtS6ES94nDHxZJrCNp32y6Dabq+YPaMNc7sGPlEvAcnsWM0iZIc80OKl0MirkMlF/XzGG584eS3u1GKUJIXLdxkkH6KmRrVOmy1HO5zLFl7pbtr7gYFR72eyDB81M/Qm4DAs11XK9SMpVULaGt8+Z41MXpUuzxyIB/dl8HdpGGmYyj9/i+1dggmAVEdqacPAECjOZVFQsZMkHigjoCDlGgloEkm27u0SHEVGORhBm7TEoEjQIfxLQxRWzPRNHYMYIC6gvBG6ZoYurKd6H5mZhncoL2CeEJBaKrQYALAAR+ewuPEqgIOlIMeByDEJR1JYJ9u3RnJ+xCuuRBGSOtSLb/YY7KBcwwiAKsiUw5FyRM31BobliJhdKxyxSTLzRZF8Q1iTwwLAQTp3oyCB1E8kiU8CZAQN3eNaNxVIQr25FsZdas+JB793HNQgpV5ElwCdsZxlzj4RjdDzbYdl7mEKpvkB9MVYmgiwtWnMY2wHEgdHm+acfr6+++WvqRxtO7Gq1pm71g0eu8ac/OmbimB/0XfFtnVjyZken+30pkGSH6MhOxHW8zqgbZE8UEIJEm5Zr4giKj2M1X+YTQrr16eFT7F+ocl39PDZl1ULQkWAcTh8ukEHN9cplBwksiKwRH545bQrG8vRW082kSVTF69YqKZEVgq1EIinXEnw8FBkkjE7R9h73FgsGHCtIqhx9RpQjshXrDikk6rmZjjrTRUkhP59l4qqVp5WuznbkmlyAjjimTVK1gtJdmZzYxreqjDk4lkR7f90SVCFIxkTMAriTylk6gyBI+TwpEWL12xIOjtWmwg2GIgxIHbC/UUkz40d1VoAIE0RCqXZl/tcF4+3jc+riy36sznjDQer8M55tblTvrxqP/XcSUGdP8jeO4nZ9DZ6seQlIRBvjv1sSuv+Rurrqzln15BYTqAq9rBSnH//XXVQUpAWKXVGviKP4KRp12t5c6Wy/uamCDnEM7Hdx8WyKsRfRM8KgRnLKFIfEDM0Vy2ula3TeRHCUWXTa6rZpQbvQXdHlA44xHHhDGDFQ+qkRDLhR1IMj3sMeXSud+rM5COvDY55yOJDSBM6L85lktGaP4WjNykX6onNP0HiYa5Xt7Bp8E7hzXcP6yhu+7pi2Pv7CuHNKdcPGW1f19Pw4MAfgVyrPvmVwYPjMyuw4Eo/JFCBVQwVCp5IJk4B8/dlk7tDkprXvKdqzeOiOixtvGBy4/P1jozNtOLbV2+P0LwlZnkw6XrF0YbxiSa8+701Ha8d2V2JP7IrmGwRYLbMf54ZirxjVoo7EveZJkPLSKZ5jVLzoPiDPEjRK/Lk0meOiXMTdT0K6KHBOAHVH8GFCMgEi37uYHZGQIMt8fOH7RFKokvsyVoJabXcT0BbD0jhqzfH4AVIQOaUaq1EELz8pS3+R3PGsErRml+TQWtvjviJB6/eCcJiqNZqRcXlukqn4HElAwvgRgVPHDdUyn1XkYcy5O+uGHn/z1g+FlcpRYbO5AEOW1sjI9u61m974gWcvvt+1BOm3n/4SrdjBu+yawGHiJ4R/Epf1NTH0S4mCA1CGSLAweAPEHRIyCKheQvP7UJA9q+/9H98+OuHNVRt+y1RXeHz9yXf/3Pz+y7YoLZXnXTrisiMf6O+lqgjGfCLaKYoTHKeZV07l8yoy742dC3Y/AIZAmqY8tVV19y/hrpUwfkdkajBqbNZM95AKOKrL5AqU2MFbIwnhWQosvw/xNZ2pMYG1rT56BldzL4vP2zDvSY6UjizS0WPnJby9Aq9jq1aleCgESTO+QLIr5ueS4ILB58v+DPdoiVRnD0fbbVNYVKa3SzGbyFhqwRybExynjN18XgMHHZiXZkdNzyL8uxMImZgK5y27D5LdckxqgyvSVrCM6BpWPiGHxQFWaQ3TjiVUnm6NM+NbVb57iUolhL0MlIaH4IPxg9dWEHDU36KWgAfi1jvuUw8/Pq4+eMlRas9VA/8rXdFfUkn4W96n/Rq4ueZ3QP/TJBSGWt39gymTgOZUS5s2OTegKlt+o1pzW3aLtLA8NuKxVKifJmk67G44NnOlqo0SJgi6JZXpEYHQNn2pZSprEEtRqbOapclXw87sRTYF1xjzWllKeqy8xLBOFuvYD4F+g8qeTHvX7dFhSIDfYHsvmEhupQgoxyXSbWDUlUn7UU8xFa9aMajPO+W5ujy1ju+PJIyqDBUcUFeXvOUVOvu66y5Vm0c+sqa7+5eHJ/UrvpvreVXP7OyRhyWTh5mP8s02scd33dj3PJ3wXf3+Yk8m+eT6mzJRlMXq/nHztcAeU22g/wsHjI3+BMrw9txhgMnuDHsgoOH6enLxmpUL9dtPf7Fu0Kk01xmpcH7ekXJq2sQsQAEBFMQdsrBUiaEJKl0m7KTFeZT7roYq9Cwlckn2emLHjTETBC2F5xMwOGG7xIedkOwMRyRAZcGhsl1suNSha/GtsRMRywfHAlHAKXKkY6LZX84kkRIRbjhmJEKOuebEkRVERm13X7T7xsw/rlg754S1sBYbd+y1sL8omgRJ5JbW9l4SAVZ8dtiql069YYWzcfO38nNz+2FwiMHSc2RcW2lEYe7eBza4UO/AEV9z6z3qgrNerv1EQVG031V21OYSsow9gmNFV0lcJcBDOnPIDQGhBq6QdDKiNUhgQSKhXbfJIsh0ejGAmBbaS1IygCj0iDL3UDqVIN3ygrNepqH0nqAckShf4LlpW5LIgELsI9Kqh6EQltYAH2ByAX8dHAa8pXDcldK40nmRV3Kcbn6GWnmCEjyQaEKXBC1GjMBw7uszk/Q2ItcKHS3uMdMxN2mylxTB2lCEcAFcqMBiwc9RQgrXCMkmCYkjcKbNiU8C9m3uA6AmCR5JJLmrAkIPib9aHjcFxKBJukWi9wA9p74ekXYJglmo2UgCsxbpnYR4MFGN3BGX3NgJ7a7OJ+qTGoZ8DnIcyWGtQ3tyKIIj/gAeGTXrvNmoAwT1WfPm/Yv25KwVOkSKUuM9qjKzlR8MF7dFr3L93+L9/ObeLerkc+9W77/4CHXS8ft1gv3fa1e0qzr2f6fjmv/97Z//eySg0bGmuv7Lo+run5hqId1jvgpq6vGvPkWNwXkKxM5aKnvaeeqxCjoHwYlBAIKeKVn44kJnC0Os2MB0ZseUE0l/CirGjmqwOp+zC0iH1xqs7gBqv4xlnqg+I0GZAMPuScmYDwrIICUGrttw4TMdhp3jMjXPBLlQLpFZgJJDBFSbwKj7egts3zBvT5j7DOMnBs10l8p1L+PNnHrFhy9fu3nkfYcOD91139DgBVsmt+nvOO5Dq0xTdUArONBch2+Rf+a5DBomiehUKqlXjE9+PFOt7ttnXvEx8/XcHWO4DR+M44+qTgfU5gM5tLkA6beQT8c9XVktpn0OEwJGHuLNg1q1KURPIJxi0UTTbVQZR1MNBnAgyQASkYnCgE0Kmgx5jFxicnES7Dw4QtOiLt6qVmgcyERPWRtPNOKE7EOtNDz4XFjT9jmUcSp3uSEViiVJmOtDUU3xyfG40G8xiOCZTxV77H0t9gGU/idwpcUKHMg6PP9cJmeKtIPQttuDVYWg6Zrc7dA51wIUMO7T1k00lepSo9f+0K+PTVylTQJa2FbOwLH29Pzs8aGBN7+0Mj2WaiXcWiPQ+WyGouXXffa76uJzX0NlcioDmHMK22xA34HI5N7N8amorbijqgtoCH5YXkios6LrjKveesqL9COPP6kr5YrOpFNRXG+i1QmB1ARRzo5QkZyIhjQFp87nsnrVskFNwIjpZEV81PRZ8MdBwGbn6jLBUZ+NgBRoqWWkI4ld699kOl9TNHAPk86bbmY53Vo9O1psAyvwHsLfEtFTKqGZz0MLchsDMN5FckGRkIp7OOXAs5oxBSyuLUahhIA7CRlfEriWEqRgS0jC8OmiXYQpJiH6musaMO8xqFqJOVG9QCEBAIQWGgCf4cokkx2uBa95W8ifnDjbLStlgSIeOYaOVQbBQZCGQB+rOX4mdJX4O4rCJQRt6WNMo+2yke0dqqN8n8onFvJhaswJ3hx6QLih2w6FNBSzo6m/neij1fjknHrbpfeoPz48qt7x1uep3p7cU5LF/zQh7QpE+O8mor/XHug3fyipj3xmVD25JaESuSET6EtqZsMPd1LWnv9fOytB2N938SFqO7LSNoEyKLI0RWBCC4yRqigo2CqFmk5SFbfI0UgK7p0oUlHrhRZVmK5TikO3d4RBbAlmGbKnTf2ngrDGBwdj2jjpz5onuYqrC/wRwN4p1x0QnqQbiwQOEpAXm2Cg91q9VL/9tBdobd0dgd5DAgIpNrr0djf/4MgXnxgbe92hCxfedvzeC87evGUc9iLeJTMTT34jmZxONpv7OYL3BiKBdtuodm/Q6Zento+ciTpzdl4CMickWDs48J4bx0arbaUGJiDHVMDYUSUTJkelqIqwZo8F+qKzX65RjRLcgWCO4IwHLPbog6T8pG0sYwZtVspYttJ0TIvdOAh8pusIApmbi9KIPNxtZ1qPyapqquGSVIqmagYrX1TLBVSiLLoOApdIdOigiC+EggCUEZIin9I0FXWkmjK+RcXKPU/CdjA8VfY1fe4E0OkS0QdSIgNK2gI7EiyDeN1jQdYhkUGOSHhDfSxw8LyiMEUlj6QJaSK6w3Iv1yWqzA+tW+5NT78EuuF/sNdD53JP/mp48E2vHt8+hWzRCkIdhLG0M7S/WKqFM9Ti58LnwKgHxwI1BK4HcD0Yg0K7Y3AJgiDXSif4OYDswq/VKxbqqelZLXQ307s70IiNXO3GHV1Fc+/EqVQizudSVhvQ7llxXk03TISf6XRTbsGOLwXxhc6I02YoolvZIMC28RyBgwk1eHRKSJ4yukayDKwYrStbOd22iUhz7FqZ2GyVacz5nRrheE66YV+UCaBSb0fCMDzURLqJ+gS8p7Cfg8CtqDmI9iOuO2DmHPESwRlaIqtw07gngvAszPKCiCN57oMSCTvCtfYO1nOKGAGQfh3ZiTkE43SZe2GcY18kXoyRCeTBbjQSK3iquEDWyXRoKCSwwyNZtTK7XUJdLCQxMTdDlqqqTLGfN159rsyWj5A9+o8kOpn8b2OY6p0IP7d/+X710KNj6sPvPlo988AlfzOK7W/paP6nP//ffa0g0OqOr4+oq+8qqVZcpB5YefMvVFif3EVxYWfTofk8IpY2LhuinRyJHEsgwogCLGe0yWDfi9KvjOeAWAEpEfNiBMmQaMgZ643rEP2Cf8ODi+BEoysSy5QlqrYELWhuYnRAjmU8I6g1KcCYUhOF9NjiRGLCfPuKJ2wSSofB4o5wkVX5xr6mkM9qSsz7GY6FIqo+d1GWJjrz2nx+w+Y79fj4yw5dtuzyL+2/6qMbn3jMhQWDY1dLUTq9xWu1Bl7d25v+WmmmbjowDULq1anCkuSmzVfltfYwpMFwc027Kxsa/NeDxkZ/pnXHphuCNZA9IhqurYoAQdcLzzxegzOBpN644OZMeWT7YdV67dnVemOVk8s9GnUV7lhx42njBOw42hqatRgIyNUwQQPPULrYRWQa9gHhRZ9NhtVgr9pM6YhyrbanOWDAyx5yhvu/Pvihk2ooDhLJfiZ3L5bziwACKRSOYajGLSCJ+tlX9jUmpw6vNRsH1JuthTqVXK+KxR/s9eWPPYjkBuY7xreouLlzYLbStoMTjyiM4Xlv0PdISKQUSgUk2hefprmzru8KSuV9VaXy0si8z2z76e3u/vc9v/ahr/la9gdUSk6IZbjnVqVgAwADiSPhR+ZiY9aaPqz9PBTy995mDiLRDBKDhaK7uV4L4rjh4DizmWT0xNpNztU3/xu7Iapjo9gBXDyV7Wj1ideOFF1tdBmKLpzv2nm3DswG4ZpaKyCR6kSlKodku/54nVOqm2seVap11PpRGIYOFQHMPZlMJsxp9PXShQPmHliikaBl7Gy6U+zBzr+lp1lrPSeozj3XM/dBy3HCZjIxpgvFf9/jjvf+hKg8PqA+EafgTkHsVesi+TcAicA0rjY7pQrdC2WURrmfBkdiKDYal9zRNVup7lOv1g5p1Gr7mjenEZIuFn7hLhi4o++dR9fq5SlRaciahPKBryWbk3PHzFbmXlQLgi6dyaxNP+uAf8mffmCT5nywF7cwaBQFAjISJ1VYVmDqlb7lP/zmw+v/qdxoPH+uVttDpVPbdD7/7Z6PnfAgpl0JnWESYcMRB5ZG0CKQpq0pKX59nmq95VNLo0bzmPFaff8AVU8+f3+cTX93wSdPnsaeToo6j89Ks1np5AUfOj8titHlVNq0guh80EKiG8LcHzNCBArCSQt9wiMBOcvVqu039Nd0Pk9hnM77uXv/tE29/pyvqvdedJQ65TXP3Kkj+t+Ecv//kcw2bqmpf7l9s/rOf4TmITLnL5VRk4/fvYu8qbuTVYTTESHdkZBwI6HmB++rvXNo+8yL9I/fIYwRvQhorLlpKDSKm8R3iXZqwytRpWa7h6mEISz3DBErmHeTcAfSpbWJDu0+pG2nQAfJlCwa6SFkHqb/WJIMXr0292BidvbZ7Subbrb23GEvoWkRQna7I+/DCl8jaQ4zgUanXrWiuGHTHYWZmUP0ypXvPn5591Wbnvyz22xFVEEwVSxFSINUeqNTqTznqEwmfXd5tmbuR42g3VWa/XimXl/WHsMd3t7B5fNrb04kPmbTuNN2nXXoOIucloyKhZxJQkUtIB1Tvd74b07000fPd7ePnpEvl/d150HPvXz+nPXnfObYq3rdDYDx4u8uPOsEjfFCUuUJIBBH02nlX3D7sBqbfENmfPxkc26e0U12FeaU9qxs77pk7QWVk3588PL10iVpdeG5J+m2fQcSmraGbPr1VxztTE2dUjQJujsIii1LCuZC23Uvf+T48y+9ZtWC6/dYOkiU4DvPe6PGDiBJYmLMypQkUZx/QIXhJGrRrjBC41gQY93Xffj4YGbm5Y3JyeNSjcawCbhx01w+cL/+hIPetu3Njx974e2fWDN0FpLnXquWsHN4+6kv0iJF5dlApdTKG0/fsPbEj3z/iNHR17afieTo2Bs+n8kc+ctUanRJreFHfnJ6czrzuGlF7xt38vd8VTkTvJeTCTv2C839kRMEYSwq3DuI0y3uwQhRP+fWF4RTU6c5ExPHueb8tDnizzIJwz9g/yOuc5x7TZIDQMZ0PDk9V62Bgq4KuSyvITqgPVctY6l/0enHaSrIv/mqV0TTMyc1Z2aOmWs0Blh25/NPpmu1pSviOLXJXPp1x1/0xa0Lhs677+A1c+xqGlV10VknacCzWcg0ZlS5tNU8JyIthE6hOjPOTiID59yzP/OKeLb8UnPsxzTq9SW4rs/jB0rM6FRq4tfj4yfp8YnT11/WOPGGdHP76hWmU//j6FFqZMsVfql0cGyjxOHmOk0O9N12ysc3jiGRRhauftY/P0+L/E6OoA2xZG+o4vlffKUaHbskNz19iCvjc7knE4mLG++KX/n+Hv3zPRb30K7kvFOO1gBF4ZpIjEmzq0u+7yvJeHT6zcnJydckpqZeQEKwLQD5K5tdv+G8z7/6qmLwwMplQxqj1AtOPUE3TULGPZLvMwm5aQIOkg/gdkGjIdjyQOQjxEejSVQGvTTIFzItVcIanO0yONq9ro7ejdTBU43bpkoNddEHfqDu+9MW9YFLjlb9ffm/657o/8Wv7/1iTF3x2XG1aRwS/YMqqI2p6rrvEHYaWZ/4DsRax52l9o7fd/xqTgkjfFSjzN31DMtuTlp9kV5yCP1NKTcWsUHAYMmYB4KKVWs3O9swFAKlY0dEDWtNDM0rX0m322pElKSHM2pANFLMSh9VZ5LS8kVZYPb2fdvbtv10x467EtXqvi/q6Un9yHQrXN7bpNlTzEiQBUEu08fjaJzysf27n3jy67m5uVXxnnu+6bgFqbtGtowxATVaIfkbQkQFMSlRdoKgMKwdaA4xAH4m23VGZu3aVyIBbZ2XgNAarhsavPz9W7dMW1Kq7qgiAA2X8KJMKhkvWSg23VAUd9509WHp9Ruur5ZKB60Tzyb9LPNKaAwhZHP43NweUal8+ttqrQ9MTpd1f2+3vu6273NkdsEZJ2hIrCTfc2dGbdjyltymTZc80GgMHZbJbA+6u//wu0plXzeKgEviax04O7t/err0tnf98k+XwEqlt6egr7rhqywqLrLJKHzlew5MjY5dUZyYeCGuiO7quv9XcZxzTHIE6u93Mq9NHbl167uHerq+fMb0nydNV6c/cf3n2VG9+4I3axrXxWIAqCinYu6HqGXh0OaUfvRb6fiJDa8Lt28/W5fLB07FcfK5iUQlWrHiipbpspJzc0f8dt26yw42P/F783bP37b9Dfv29Fx9RGPmyVKlofu6C/q6z/3ABN8TeD08lSTE/NFTb3rJkaXSC6LFiz7fSGfu00GwMBS0ZOpA07FOK9XaFAQrnr1ly7kPmddd1tX10HuXLT3lo2rkoSuvvZP39vlnHCedMwRCqQSSZ3zCOI3FzFtuWhCPbPmoOzb2mnwYZpGSts8jTEcLhr90WTZ1v+lCSUnOm068t1u+9lqzh27bc7dJlRc8tDkbnfzxU9T27Wf55fJ+o+Y40cXp/v6fNBcs+NhIMffQ5tGJ85rr1n0Ar79k2/Y3PjeXv//6/3zgBtzffeYafuoL31fvoNpCyOTpEuHnqhymFCaxpi/9cl6Xq6eqsbE3oTjxzXust/etSXLrw0ULry9nsz9Zr+PRgyL9zPsff/zf0lOls6YL6vILf7vp7YkNGy7LhGEB5cWydrG1bNm1tzcqM5unK26p0qKU18qlA/qWL/3CecdbX68puwYvsIs/t3dxw8br4snJox8TSX69t/l/RPeNOAbTVUWlmTeONOJfTpfmNO6lT93xQz6/F539Ms1z9Z5Pu5mx4NTsli2XPmieh8PT6fFgaOgHv5udPdAx9zuOySRotcJ0VwsnJj50Yd05CfdJf1+Pvt6cGwCR3vL6IzXGjH5s/S+wB5jato4ieuh4oFsUOS227WErookZZn9o8Si/QQmIXRUT3KdPSpHeJT/t+r3y57u+/rB69IkJ9dH3HqMOeeYyNd/J9f9KMqqboH3NZ9eqG++aNAm7x1TW5tyuv13poLzbBPNXIepqsteZqTcaQmdwLcnR7qusRwjJxuYCo9oiYYyM91mLbRBUI22mIV5qWvtGo8RzjETCJTeh2cnOayMxxapuJTngOVThqC8FEzQ/z0QEX3tUvTcH09+/MJ9f51UqqxAEFjSbfR/N5Q//UWn6R+3FeRQ6amqmbA5/scZIwEvmVfO1l72g75FH/zVtqu14n71feWii/u25LbNutRG6JkA6YRCwYoWqAoOyn9iK5JJxXSiU6qsGF67OmoeyYP4RWKi5eedtbsHwnQdt3fLDeeKksTilqijhu2Ey4ccmGMWrlg3ri845Ufuv/NC7e55ce7lnAnBxxYqPJwuFnz722GNfv88kPd2uUHE9oig/Y5qwSrWpq/UW2tF4pelAajPbVObMG1+WN0HxT6XSvocVi48cuseKDx6/IPvZSfO5P7Fe3euY5DYz/7UajWXTzcCr15OxeS0E3Hj1Hgt14q039XsjWz/SPzJyput5Db1kya2zfT3XHOs2N36kqs5Il8s3/9a+Bl7LlL6ZVLPVv700OYMdyMTkNDXvrvzUF9XF57yKXR612zxBfNJS4a7/9Frf+9Ubw7Gxt6Smp59VtiPMPbq7759bsuSM50aVhxuVSef1ydxDL3Td9/7eJKfDbWMbRNHAXK2xrhVEmmWyuVOuve176sIzX4w9nQpO+/QxCx57/G5neOjuPVTznLmpWT8IIj+KYn+HEJWK71y05HUjrnuCSaTJ55uk3KzWjt00Un5k0nwGWGdcc8u3WLxc8tZXAw7AZIodUaaQVM5p171Kr9/wiVS1ugIVOK7/r+ad23hw8PuXLxh82+c2rMPndjF2y+cy7NjWmI7igjOO1xTujUR3Lj75Y2eZTu+8VKm0H4IyOtdl5txHy5d//MBE+LFmddoJSuPOZ10q+qo2JSEql4/YVg1uxrjZ9fz4yQ3b1JWf+pJJyidq7F2LXUsFtPGu2wrRpq2ne6OjZ5sEtyeSyEM2+Sz0vGa4ePGtP+vr/tCZ49vmotkpcVXU8S/uLBQedWrVZ3zGK15iiq2PJU3S8G1XzWdr0cKvLq+X3qtreE48txnGptOroxuK0a0jHuBoi+fedHLPk09e48dxRpukdUix+J3frl//2cfN+Zt/f8emyJmda3i4H6uNVjwxPaMP/ac18XWf+6Fz6X1bn5fesv3DD09OPu+wQmHtc9esueDB/u7bzqxONT6h9T2JRuOYjfNfKwiGSpXYvFagGy3xN4EMFkRbqZhAPkm9rKqNrSYojVLLCC08ltKRJbrDx4PQVMIRBT3j2gpcK2c3Hc58lWv9l3dDu1gxoGL408Pj6nXn/Jt651ufo85843Osja/zfyIRPba2oi79xKPqN/dXlZscMufSV9XNV/+PXze2yaut3rzDEbydiGLyR2inbefZKPspp+LY8WbbetlaQIe0C6gzASkrpkPJdWufTf0zL8nRG/ZK2ISnKNsTszOuzmzn5YPSM7qA8XxON4ezN3ZVKtdApXqBecFl1eqJ5o2RhByikbTqwJLZ0r/msjOGnnjiOi+dnmqtWnXy873ar+vVyDE3rAsVBFCAtJWH8swDjvm9+b9ZiNrM+R4WRXrR1NSVuUajr9/Csds3f5TLbbpM64/o+bI8SMW2CzJJKC7kM/QIOvPh8Vzh+Pff8dC2bS8/bNGie+aGBt9xjFtf+6G51plpU13vWlpNZTO/qpenfc8LeUk2bZlQHy6rwvCPv3BNcvPmN+ay2a3P2Wuvcx/PJr70Zl2tlTdOu1cnek5xTScEJk9j3mvVCoX76pOjCNDkaG7eOqk+M1o9sWf9hqtTtdoSvXjx12t9vR85OhE+XK5MOx/ID+zhb33yEjUvAfHeSCYnb66Ux03w8ROtwIrCemwVqaxul8oQVsQILjjlquODzZvfn5yePjhvdfWQgOLh4e/9YeGC0149NjIDBS9o8T2zv+vF5iInOg5brtv8UxxtqdZaftMPY9F580BGZlBXp950nPvYY1/Z2wTHW/ZadW704AOOfcqdtuUJGpAfDi08r2vjxnd0mQS0nxxwWE0m15XLZbfRDEyCb5KRjUCK98A4ESi45Hu+mIw3bb8u3rLlDVihJU0xst3cb9vmX3+TSO/u7Tn7hnXrYwDgzLngPt0kNxEhWblYc2Rtimz95quPcbZt+1ByauqQrCU3U2MwnZ6urV519t7To9+JahDg1c5lfYPL/Y2bXj3/noCjJM5FIhHH28enHXMNoGgfX33L3eodb/1nHXz6K07id+vPVJs2XZSuVNZk7NjKa3c/JpiXli27ZJ+xkR9G5hpD2cexDOghaC5GauCZ9fqycHLqRTnzOcfmdUBRf/8vP5xOnlebnPUFGh0J0MOcrsnpkrNyab8Ob/5Xp/DD+z+1cePGc/r7+39bX7L4oiPj8v2Xxc6L843G8K73t+laH6uZogGI1gC7sygZvWJDLfOMLRsu79248TzHJMznrl592eZ89oZXBtOz9Ymqc7VXOMWbmnp+0Xb57V+tQv7+xuy0j2MKo4pDkVrtxNfe/j11zusO1z4ghuBpzM1uUYX+xURDYJ6NICVKvzlC/TCywRXkMhDIKKvUrCxh6qmJRu/S7Li7T1Lz/s6d9z3lUku976O/UPfev0V9+NJj1aIF3f/w47mvfHtEffDqJ1RpLmMC93IVzD2kmrO//vu8eFsiXMc7hnAdEVPR9wOr22+rWRBQ0CTKhkrG1g2VEvnW1hcIrgQNulwuvDHLJrM9LDGZ4Vq3WnNWP9CjRlxjcrPKZPtoJoGxLNBRvcNrzIP8gMolAj3a1fPloWLx3GS5vAbVfldp9sjPL12x9LQtGzeA76AcPFvSsTmv+tBH8n9+8j1eV9dj5TWrTjwmqqyHXM9creWa/MMEhD0Q7SpMF5RJJ+NsJqMBQ8DO5zeOmvv54OKz55544pheGzieN6/KGRke/viNW0YqzLraoeEjPqojXRAg2fHSRQPxjWV36fC69d/MmGN+7j77XHzckH/99GzFuTQuHpJa//DHe7X2kDTa1g9Bd/eDN9bqv2sFYcINzdkxVfTPeoePX/joE580FfkivWLFZzYOD7z7tfXJSrVWdZrNwL2lOPz87iee+EQhiihmsqR9kNns6C8977uQNgJ/5equvp6XzM5eoUfWvzFZLK4N9t//Za9cWPh3BJPJqVn3sp7BoZUbNt6Zq1RWAnr4yLxbZHZ4+Iu3jm0LKMhpLjjg8HO1pP7z+hHnmlu/od75tn/mKKV1znWr1aaRy/0tW16ZMSm927YkwHmFy5ffvrxRfmu0ZaNjXsODq/KL+wfSudHRt+Pb2ue3vmD4O68Z2TyFNaH5tmhOm84kkzLvtd1x3nTDP0cPP3zbwoULv3b8yu7TRjavxYPr2W0nYfEndvWk3+O6/1LcsOF1Xfa9eW6Hhr61evvI98094rcSUWy6rXhk2yST6XW3fkdddM5JOnn+F/Z1/7z289VqddnIwMAvnZmZ5zi2UHh++3HJ5Tb8x+DgWaeNbKoAtwyet+fJw4N7Cc/Ln9dvdZx3fKEnXr/xSn9k5JR0HPNcBDYBaZOAZkxhtNe2kV+Y8+C3UZXLavXzTdu6AH5Uq9oddzb7QFgt+7EOzJmPo4Q597hmSxcUdHTutc82SeujibGxF2bsZ/3V/GMdGPj1fYMDpx87sh6TZJ9eeZ1ErfUVQ4vPTK5duyxjuW2/m/ezJtE+ck9P91mf3LYFoxI8XNj/mELLHEkYAZmqzn5kfGHX5q13FMfGjjpw1ap/OWFp96WT/x9z7wEmRZW1j99boXNPznkGhiQiKIIYEFeMqJgFAwoiiChBXEHXgJhFRUQRE6bFuGvCLCZERUEkp2FyzjOduyvc3zm3qmZ6xvDt/r9dv38/Tz89obv61g3nPfE9nV10sZAwwHXwwFMJYEEjcBRbe9LpbFknCOtwf8P0a0yX1H9m5Ywp3LV/FevsHEFyc9b7crIXnRxuqQz5/UivJaxNyp6YuGfPKrgW0qCSw3upuwIbHI5nlDa4Frq2QQgFQoS1d/qYGgtzCSZhymM0mEA0TyJxwBM5gjCmgOCD6aIhXxcIqRhxeY3gJmbAqJgGiLQKhvgjfbqC/puWj/W70BPboH2u896n5eRAxRtk6V8nkFNOHPwfryn6TzwCQZUse3wfWftGHQjmNCI4Mom/btV/9Dt6LaHeYsjeluuiQb2CnXAXrU7rbm0f0xkKjlHRCer1fpV44ugfsi87QeOZKWa7biSUxCQTXY9wEEIVHK2nKGiZWC3tcHuM5ldYLS87jcwkJhOqBUhXSyUAXiLxt9WD4pLD432LZp/JZi9+nj4caO14s7DgkeRdu5+uhNEdGQ5nnBKNXg7jvAc3C3Y5vdqV5jjvs50r91dVzzguM/PL5qGDLz3P39re3uEXYopCY4qZhIBqOCc3FZjDJmH9jo6WGgGsPMZm604V5NGe6opbRdMtEU/UjkJyaH3Nu8QipDJjQcgNZ7dJKgJaRkay/rRPGJe5b+87dkqj6vDh55+dzD6ra+wUliRkZWTtP/BCYiyWkNk3qUatzspc9Vh1ZRiZUo90uaVXE5KWenfvmYegER01avJJNPgpi3aSDl9YiEVjdHV63qC0skPPecFaSzGTCSwQasnOXnNJTWU9Ct31+flHj6mpXQVgOEArKVl9KDtj6bRIV2egpp4zhI+WnbbBjc1PecFyQatvd5wwUpKTdy7y+15AVxdv+w6rFY3GhHA4wtOXKDUYvyNTll0jlpff6QiFcjxm7CTZEmh5ea+dK7IF4UhMYpblCn+fqei3ezo7j7ZaPGoJCWUf2h0PIkhZBxmLQCNRlT7VEJrTuP/AYyPz81958rgjZnXs30vx76AEG72iQDo+mZWff0x39ypnY8ME/G6X5ZZMTt6x1uO+SQ10iyhLdYPJl0TkqMEriDU105dfIO/d+2wDWLktBQVr5Lq6a7IikeTGuLlgNlvnjqLCOWdVlFczLpgNRkLKvdYatfglH2+NTiYV++5xdHcP9ZiSR+BFBxyAOltLS6cPqa38Nh6AFuTkZjgrqy9hcQAEQrv5J1Fcb8yHQFQAAJhD4TiHV7hha91fpYqKhfZYLNljWsBC3FjV/Pw3VzltC5ZWVwSx1tdqc2nt16WFAwoTyituSgAA8ptKR899OhztP2Skz5paW9NmGFVYV2aUQ+jmeJ+jngHFhyrfdvt8xfrw4VdOShXWdXR00onuNEf2wYrnEkOhvCxzL1kg1JSdvfLGuppOzErHuO1PadkLi/fsWcJkuVsZftjlY6j/DRJpIR3dQQG5HZ9Ozx+RePDgWi8oAqgYbYsrWO/My3v24urKOoNVGFuWUE4dGAwrtAJ0GJAxTMJAMxbToZ+Y55obifq8JkJTBc6eii4ZkVOAGAVzXJPG9FSjR7xgKOnxlo/w++6534gD9eUGMDuUWq214cf9B9vJFXPeJbfMG0PmzhzPq8D//+Ke27a7kyy+bzf5ZW8E5iiHjz9Y+/h//ossS0jvBR8S186BB1evvH8hq6qaZ/f7Cx29Lp+7fPX1G2p+2nXF98NyWojJbXbTnIsYP5XUoP7H/vJINcPXlje3YwbPk+AwSBux9gOpPhwJ3ILqaD5AwmEfSXMMAw04hQeihw8byH78pZJNbKp/uSInZ1JmQ8M5GJyUmpqmLSwqenllXXXlS+k5hUfvP/TKgfb20ccVFqz7oDjv6r811+qRCArMqICmv27yeIlY4GpUsOvJSS490etgPDjdFcypBRAqrK+/U4lE0lDz2huvWbpczS+5XEtZe5vZ1I7Td3NaHkkUNBsAWmKCW3+TeU5P3bv3FbvD0RQdOuS8CUrXoUBjSLgwMcNRUle31uPzlaabPnvr2v7cnDcPr6z4EM25x3Lyii/q6nrSX15xlKOw4JVXXc75DwZbA4h5cD80EtOEu9NzMvMqKt/xgNaOwPFL3LVCmZmfFdfXPo0HYUd2zvXFBw7eIoBl1Hr48ItGdzSvtzVEOO24oqgcvG+k9sfcDQ2TUHBX9BW6/u+zMm95o7KCyzhDG+YUZfzR1tFN79vV4A2etmClXFU1zWVq49/Fa9Tp6d/e7LDN29TSTM00dn6RDTn5NySUld3QAlM43gCKPd9kZMycXltVb3wHLhe+V6df2LwLyvftf2B8SfEz5xQnz20/sI8GQ1GKioVVHPxuYcnIwuqaFx0+X0lSfEzD6638Ljt75k3VlT5DoOpc7muAqtiiHe9hbW33rY4DB5Zuzc9/Q0lNfTX1wIG1uaFQerwFxARBqSssvP248kPbOd2EIVAMCcWhSGKXepOkazqjy20V++Y4wfpJMNfl6F7h3tE4aNCVw6rKNzILgIwYKSu1OYZSAJQTepUSrSE//97za6uruEAz4e6V7PzS4oraVY7m5hNdnHOj73zzZKPCghfTW5sW6Hy+YWCmgx11Qpx+jHeOamldkRQKZWf2ByBJCh0sKrz+tOqqMuRmNKFLt0AMexZ+mFUwqnjv3vdcsPdjI0eefJY98FNNdZsQA+A4vUt71NPaenxqP2UmnJ7+9cT21ldwJuenZ6YuiKkrDpSVnZafnb2hJjvz+rO6GyvAKsVkIb6/70/Lzc6oqX3RFQ5nppoAZF0rmpr604xg4HFminjd0J2p0WrFrL/EfkUtVduJB5vXiRKPA/G+6VQikWgX55FLyz2MZ89gFhXWomC2DQa2MWPO4C6KTzgQfsfqif+b1di2f4vs/k15+r4C4pJlj24GYd9Clt40kRQVpP6fWkRoiLz4ViW5Z+UB4guDpeAoJDH/VqL4f/4vfWN85pxFtGh1CdfJA+Wta8TKypluU5NDF8cBKyW2oXHiGW7PzcuDHTcb2Wku9vDqN3j2DmdC4O45I9aEhXGp2UN4CjfOK/bA0XmNicTPdCTQZND9wx7IKT0aLKECk+I/xGvLkIy0vSukb0jLnntaODyosLNzyLdgAYzz+e4qzCtcM6qu/skU0MrGDBr08HXZqbd919SgYyO6UCgsRKMRitqvwIk3RWaTRR0DySlJXh0z6nIz3bydAq3uTm3w+QYVguZpN90Th8XNVGNu7oqFNdVN1HCqIwcYuuxNbjhJcznt+kf2pEsdO3c+68rK2lhXOuCSi/wt3YFAiPoCYeEk3bfU1dB4amq/gw/Wxt6FqnIXTv7XhcWTRlVXPyhpmkMdOmRObmvjy7ZYEN0gxoGDb7wkMdV1WH3jG2jZpPYDILjW7lOikWtO9CS4X3E4lu+rqDgvLzv7k7e9nnk31FY1wH1j80wuUzRNpW8lpS92l5VdhesaJL09kXD5GwoLHzi9ouIXE4B0S2u3Gsy/RDxHO/YfXC23tY30mnGIPgCUnLz/jQTvVc82NmrMENz8sTk79w73oUNzi0BIDkFBlpf7zlMOx1//VlvtZ3G6IyoM25MzHio/ePCa4wYNunucS72bdvopn09/CIuMOdH45zkFFyceKn/EGQ6npPCS2B5Lov1Afv61k6oqKnuEBu3pnU7O8CZK93XGnglXV0/dMmTIPeHkpDdzd+76JB0AyFJAcizNu7DwiUE1Vf+Ms4ANeWOwIuh/LxqYX9rQuMbe1DTBSmT4Ph4cRDFaP2DAdUPLy76DsyJbijElAq9z6wiHdk1NTd3GAoEBoOw0NmVlPjS4qnK9NW5csI/zC8/MLTv0oCMQKMD5jvUHILhOsKRk5bHdHfdhXzprLlF3MCwZ3nyUrU/PvjupvHximllyEPd5vbG4+O5RVZVfWfRTAq97MyxNpB/6Jrfo5JLdu1+0uVx1XSVF556u+WqDbbAWsEOfS8ya4d679+oks1QgTnlretHrWVRe16m9XVA0+sSWlhVgQQ1wlJYuzWpteNheF8KaOuR4J7imk9NyHEPbO170dnUNw/29o687tPHtpMT5n9TWxKihFfWKaTOGPc9PT4KJ/YJrS0gTHuhuI66EXFgDF3e9YDdFJdpJouF2g0ads+CGTer3vrUsvc94brX+v1vJdMbPWs/fzFe9t+6oz9/7vb7/cRW5YMab5MPPdhukjf9BQtF/9dHYHCLXLtlMFt29m3SHkwgFCyhQv4bEfFt/xS/3n3r23KtpEdE4y/GppMwbNAAgmwlAW+IAiJiBT9DIzqttaJE6OgNCXWO7cKC8jj6w8hUe9EflgiczyGbxIXJ+eVO5xYNJC5jVhgV72MwM4zqY3u3knSGZ0RIaeajsbnL9tPEMAcTpdLBZdRVtm/Lzpu0DqwTH4G5snFRaVvZuuqIkdo084qqC7tbbPzp0iHT7A4I/4AcLKEY5fzZn65VAGbXrdrsD0595hldhbgq7+pLjGFIKCeHIYEHT5HY4s5vNe0y1AqoZGRsH1lS9zONAxhxxQhDRLEq12UT964SMedU7dj6fmpf33qsjh5x5kb+5OxgKU38wIjybXXShq6Li+kSzbiLe2vgmN2f+uo6OwL6CwhsHHDy4htrtnT8PGXL2wLqaV3U4lNjPKBJVBHQnHjmwVLoopqx2t7WNTe53QDW3u/7N7Ozpl+TmlryjKB+l1ddPHjZw4COpXR2Xz2mob+GVlHA9fGJB5au5hRcnHDq0xAugazO1auvhKypaW1pbvTaO68lyOyIrOHs3Le98ad++9SIAkMdks9jS974CAADzZzXWd8MeQGI18dXSwaP2exP/CQA0vwgsBS0lZVfn8MPmZPm6ZtzR1NAV5y5ih5UMEPenpT/RVlk5e+yQIXeNIsF70Ppp7/DBukY4AKH0+TynaG7i/gNPuAGAkuMBCL6/vKRk2piq8q2cZ9BiszDjR2uHH5H9UIdvw87a2vPtI4+4Mjxs8FM5e/a+nxII5CWadUvH9Lhgsz/Obax7iPRm3pk5AwY57SelQ48tPVj2hQwA5DDX94d+wr1j4MC7hlSWb0CmbYNl3SxuNmNZd3e0tuRQ7YRtw4Yek64rY4bWVr/DetRSQr4sKpmZc7DseRcAkMXevqPvd2hdpaX3ZDTU3VsWCFJ09ZEeDnZOTMPZ3D8uLp2dXFExL5kXdBAyIn7NwYIaWFv9ogleVgt7xnmO4R6+Hzj43Pw9e/4pJyXtqDlq1Oln6MFaXBN/MCo8ljdwjPfQoQcT4L5wDob3WlbR/QX5Ny+sq23cVjLwstOqqt60a5r7wGHDpuY31q4wslsZBYURE0aE9PRM4cpQeHVCU9P4lP5WmiwHdxfkz59RV1sdl9nMgRVrBY8cNYp+ptufdezd+/pjz62nvIEQNkfChlnIhuBNyTPasuohEg63kpa6HSQxtQQEUjKn7bHhihK9t+4HYzc6+R8tn9539LN0LP3hV5+lv/Oqk8rqbnL9cjtRhACZfLL7f0XN8+8+WtsCZNqcF8jmbc3EnnQyj0SEGlb/CdCn/4Y7k5C53cEBaujAQouJ6vt+n7LcBmD22sJhxjOwkEOrpr4FtRF91dpPyIJZ53LnvyQZCSgUYwchozYMDAgeB+RJDjyrReOsGu4kAN7OWp6RZyU2IK8VsmJ3dIVYKBjSL6yr3PN4YcGitINlz+WBxTBU00RfWtozJVXlb2PncEztRdJiFLS4brJsY/jEwHGCx6W7XQ6WnOhhJYWZbMbFx3NP8al72zOU7u5CPS4of3KvQOv4NiXlQdbVIRhFskgVRHXDDYfccJK2mbpu3btj59/+Ulr6xKRc16LOpjoaDMe4BXS7K6lA3rv3Hjh8tn4N8PTGAQOWnXOobHd9UvLy7WVll4/NzfnkVkKuX1NxqMPqdWO5GTALa35t04326uqL0dVT3veA+ncNHjy7tq4ua2Rn5yt2uO99QwbPGg3aNB+z2aQQXZLIh7Y6KfUo9959y52aZket+ue4+41mZn5xfFfnnYz1dI3XrUJcQaT6R07vVPbzz6ub7PZ2ACUlqOtc9o+JO2gdhYXLjy47gFaUeK2ipl2dnjG9ZNeu6x2wXlpCQrUvN/fp13X1xb/V1/iIyaFruvvIRJinZ5qan85ob5/kPWLE7CHtTa9IEu9Ah54L3pAQue/+KbsXgNV5rwsEHwKhLS6+1lZaetOoyvIfiJlCb40L72G5w5V64rZf3vMqSvaYkSPPmKB1b37o628/cXR3l+C8/hQ3F2hZ/pXoC9C7z8w+nOZcaCjUP0lNP929ffszjTabLyxJIVFVXf2LJSLZ2e/l11Q9x4m7eyMDzPDyUSuZhYcez6qvqua9rDBvhvKaa/p1UsrixL17bxLNUoGN/fYnt9RKSh7OralchQBHTWFlfAffqxr8UXsnJX2yd9++Oz2wB5ymBW1dI5aZ+c15kfBdrLeS3VA6jG7A6tbElBmxX7bf58rJ+fyrgpxLbm2pjoQiClewLlIFj3vP3tX2aDQh2dyX1h7vKixYc1Rl+ecVKalL9h04MG9AWtqP/0hJmTu74lAV1nsBKFON22iGx+Qxf+QmB1imuCfb4xOCYG+0lJTcN7aifKPlGrbKIpAk9hRNF9bs2Pucva3t3BOGD1+ArJmSGusGrXYwsbsyOd0EFjUKNpEXJdp4MJqYvFiEVydTEEySaOfxI2NA1MzYor2uot8An97YD+vNlOv5SP/Muf7AI/QBKm/RVZxkymHTecdTq2fQn1FP5PHYDaoQNUAibe/9ef6/npiQ3usEgdtM1bTJdUooVzXdEvEPZ9yBD4fDXymiU9Y4h4sxR1g8xgwyOl5FHfJ3ccZfznGFLaB5ZbTECSKVaIwnNWAnSey6iUVmSO6JbQcSkgp59TM235o//VR24FAD8weC7NH69mGtHfuvOAUMMfgSTJZL9tTWXnUHpWVLPc5/wLlhXGMH4KHEACFMQvC4bLrLYRRuDh5YxG6ccwnzd7Xy2rWubb9M72IsY4iZjl0cd7+1ivLI2RXlO3rsRLNhCaZjz1BU+aauwCOfkM5Zl1O66Kx878rOTj8HID8AEChYVKotuxu04yI8WB/Ac7p53Q7CHrio/NCbb8WUv6dEWk4eROnf0tvbnkMBh3RBqN1hFhn+jHv53nbfiYHW7pvhoFMMJo/tVR/C5ao6q/yXX7KXMLYaFIdtL4rCgrmVlZWC0U6CxwGs9ZkeCCVIbV1PxEBW4JjeiRuTArJpVXvb9YfAuosXRtZh/6IrMLe1039vLSHraCh0TJzHqkeg+Sh5pqCuZs2MmDL4Kp2dM5KxaWJjYyaoGt80UvryQi32zoamupjRI4lRvZdzj62IKnlTVO1pd7StqEWgZx/ZVPMlxpVjMUbNQmQuWp9s7rw4yjo4aaxkxrJM1ynrZGxJcWX5WzB5Yk9bDdgPqM2/EY4OPjkQehFQU2mTxPGTNN+Bhb8cXBpl5GTU4N+NmwtY5ObXfN0znw9LAQOQORUvVjYDcEjqh8HwyWpV9Ys/EvIhmKvJ8bhgXQPOz77bW5sXo8+OYw+jFojx+ZRlVGJsGihwusMhM3QzaqoG+hjVz43prjlR5aH2cOPFuwiphzHnquYmnB6fvUjJypy66hXMTL82CYN5lToApYrW+quByEmyv/pxmAw3KkLv9R3j/sUd7TO/B4Wi35proAhpPwXC13/rr7t3GqUPHpfhuS3Q3oyxSaznoljsPaKlfWmIkcML4IPvx103SMirufV1970cVVfnNDVfYKPk8TG+zocOBbqjJgibLjSj99ZjXcHTwl3Vi9ECwgLuzvh7hK1RXF35HPf6cpFNTcucavdHY8lTFO3Z5ED46JAgnHJmgvYdqW2lEhYmqrwjoB002zp+Zw5vstlyOAkEQ4LRRVU3TzUSGnKOMXdPtf5v1wrRX9X/sJ4/s36xH/Yb4EV/E5DceRfAzmBkIMzkMSMEzp5rHdr/Rn+i/g+nQyaTTh1OfthS8afGoHqy43jngTjLUmdH4Ow094P9GX1tqA7YuDxzigswRWVRUWGBQFjfX1ZFmRl7UHg/GK8J6Iwz3+LPSDKIV0GCTQcy8VLkEmw3CE91G+edM1oOg+LiTCbLtuzzJAbC8wsZuxkOpDtE6WNfi8ILJ6raQtg1VyUw9vwD/tDxOyXxwdfdjgYkkMZcGCR08HqdussusbGjSpF6myy85jze7A4z97adecsRoAEuyTc3P973BEuLJeTbyyTxNdMpxeNAaKDh5n8zFC0ep+krQZCPuUygF08++ai3OzoDtL0zIMTACkNhcntz53RQuS7BA/pl3PzBdT/ZSYUNL8WUjwYAQP1M6ZQT7PI3BiErt1y4nxjBE7n+5neHspw6eww0deyDSj6F5xATN9opvTcJZPAFjN3aDQf/Ulm68ytRDBkWEB8z77mEQDRCUcVRkdgqGNMIrAf5MG5MsJ4tX4nCDXdIYmdvPMEAIAA8+oI/dG8zYzOqKF0Ik1EApkFpklm7IfVeoxFs2Nq2cPT1dTCmUSA0/JS8u48Kb9zskH+BtYlhDKWng6/JJ4DQ8kEwMu54XUcXYMtuSTz9zPTkA5JogKeqGZ1J8RMPtXT9xc7YSpgLbgG9G3cPQUqeznNILzCwjhG5DR5eo+r6i7ByBiz0GtiFv2yz26ZeVZzbOnd72ZkyI0syiUFMGyfc9QOU3jJbEmsY57Hl9Qo9lsEPgdBVYFE8+Amlq2BUByW4rtesiRreK6EiOwV6xxOCGDB1ZZ5qgUCG17DJkorUTmCVa26X3aqN0NHyXdXWlTda0Z77Gi6nUvKcxMglinkUz4x3ocH/BtjlBwm3gCxrjxmWGnwHFpy95g+dmqiz5xJBWcPWI2/HzRcqcdsEeuPTohAgpovQ2DNEO1PTpEfDkeU/M3LlZZTOHzmo4CkWCGKWKTUASMX9fS5ognNyzUSEOGVm80ZReGpLJPYaKAcnlFF6/RF2CWNqWAiuc08CNfYkzu2tvnAJrimMkWfCfRw3xjAh60+1SY/Gjc+yzrVnI7GCSZr+AuyDPL8gnDNxxIDvhaBK/f4AFbAQNBJoJJFgE2i3IgBQiknVj2ytmLadCUDk5e463nRLFOOINRm2ZhXiAj6mZUR7fhcYD+n1/l9nvZF9RuI+Q/7g1fLKwt5Aakp4PWEkJ5rhlhCncceGYoz9KfGhc04fQWySQPre93/5qevmk/XgvHmbAyzCH+sZD0Cwyco2CcLsc2zSPlwO0FAFODz4pJFojGLx6mNPv0uRmdflTTHLYRkvPo1FfaSrvZqDE1pASGSIyStGkorAG5ghWSp2c+QxXdlBQmOvPS3XH/r8a8buAoFX0y4Ik/ITPbdPddirM12ORZWUzpgGYxoP52CUqm1Y6gtdNS4SdaALTpIoQ+oaLB5F0LnpuotYONwNANcJaupTqHneA6ufgBXqh/oe0MB3An1gC6WKaSOaLRoE7Ydg9LKTNP1r+FxyQBTGHz+q9J2aujYB08EVM+4yt7VrCBysZelmrEKP0zw7KP1svK6vAyAQ/yEIZx1vkzZaAt/yc1sM4QhKWYp6NwDt4ELzgF5hDjFECTJCDEtj7LYGSu/PssuLvxRo2GRN4TEcfBq/E3aRP3QNCOELUWj82HdN1WpKF58ry4d6inANQNTui6mpb4Uir29l7LphAr08IIkfwOVmoNoSNu9rWq/jPDubsWvBymo/ltJlsyTp2ByH/daJDtvPO0RRMe7HqJPgVg23UijbEghd49T19XCtLR/b5EkIQDgGXlis82Q+pKSi89t9eZLOVsO8J2WZluWM3nndukSS7scSNh5zMYVyPkzltkhs0Q7G1sH43nsyyTvpSgCgCyvrMyRdXwnXEpNMl6T16ALhfqRN/oT0BlYwF1w7BoT9zmDkru8YeywLwP+xgZm3Ahhfg4GENHMuLLckWL+fHyfL3zNikdtyixTBgWdTogsuOcGtIcP6MaAcIcec22lnH7Z0jjtP0T4DpSW7TRQmoW4MA0h1mNfP6lVkvpkpiQ8EdKPDQm9MDRncAYAkUX3DFzrXo7O1oHQk4z78R79km1ZKH5pgk3/pJeA17vN+Rc1YE1X+kcfIRacI9NKjAID4d0YVGo0p3AK6qt2XBRP9aIo5f61xykwbpf+cqOnPgKI09GuBXjDCJr1txFFpjyQ3wY4dF1PlRFV7FMaYn/9rxaj8BVG8dSfBbWBZzIaV9kEkNuYiTf8I1k9uk4TxY4vTfwgGQ5jxKKAMkpC+IxZpJzEtSBJSSzhxJQodmyuRk1diIgImJaBv1+iyiuSHId65T2f6H1hCBhhqliUk/GuWDunvsiNx7jruXzESGY8cpHPgsSwgK3D/32wbbj2KC1PJ2NFFZOMPh/58Syg+NoQJC3CG4p2Z8QFMgIYPV4rCsrtFsYkam9dYLGoVuxoJSLxtgCwTNYy9cLqMvvFaiHNcIaMCbx/CXCQW7iCxgI9nTSKJrdNTQAIhbGzWQdSJdw11KtpiAIhp8EWRqylZtsNhf/LsJK9PiMZEy9U03GF7/w5F3TRb02bNZGT6c4w9flYoMv+0cPTJsCh89FZKQjl3d2LsictYyvNNW7/eNh2GManEtFTiH52UvDxJknb0uiiItjaqDD1Z12/ZRshfBlPy7E8u5x3XFGT4WCiKwVVqpD1rdFAwIier2nI4nGlF8OHP47RjsLEbQVDfB0Lqq4ckcclDotBGeRMbA3gMElSM6Uq8T9LtLZ2XOwm5tNBM62a9oFYOWvxIAOWCvZTOOlIWPzLONjX7s5tuNCN+pd/YHSgVwVpK7HEHxtWkUfLCYXbbx1YaNTU+q/0zEhs9Qdcft8F9nCQIp44bXLjxuv1VN8MXpKBFho3krumjmNCbv6ZC1YP8nkwqI+PJrKQDS1FE8AHLNX2yot6/nZALTgChfkmiZ/lPTrtq8vobdFE8JkbJ4YomJiraCrjfwnzT9XNN77y2bxXo4udFGjG4/PgK67cqWupMTXsArKazQJtfOj4j+cFmu6yn+INCVix2J9xsEVqpn/W9j13XSWBdWP4VwxTS/6Zqydeq2hOpoNlfSun0IwZkrJtb3jyRmXRy/U6t8oNAnzEBiJnp/FyBwTgiZlMmJTi13EyPPrAghVu7l3f66PHbK26MMXYv7Mkvj7bJV3+laqUYshTN7EVrjLCHataKws3vUyHCNzNWRRjrrMJ3qNhOfn13cHYXYw/vBQPfbSodJM6NCyD2+Sk26RULgAz1nOpvxpQjT9HZM7DHpE6BTh5TkLmJRSKUt75ArkV4FkZjUh6sG8xrdvz+Rl0A5m9/JmNL4LXqSVG44hZJbDQJhy2CXxwnsxSS04KhWXCPp+TBGz7pu6bhPbCfFklCKyE9Y9QB7NnHkdhsUPCWwu9fbbXLV12Vn9YWg/OHq4djRINB8iQXkXCwkXS2lxGbzYnFRLweCClbsG0xjwPIbs4MTLm7SyfhAHZZpP1iQr8GFiE+7ZqRP3C5/VZyghkwQgAys9/t6afw7yzOYmRQUS/w6P+f+hr97x5nTDyMbPy+7P8wJmRMESxXmcjIcazfxgUA+uhUWVqwzbQOLMFJeoQM4dXzuL6Lb7iMYTMqpmGL3gDvQYMNu2Q36k1GPyJ+euC92BtHZ1HiTc4nUQCl0IlLhsqqdi0I3llwgOzY7TQqCveMHpCzM6roVA2GRWsPcCCCTX23TW6/m8j3r4spr0zR9AvdjF0MWuqjz6jaQzO2lb0Pg9ukfrvz48dszoO4rJc9/05ukq7f5TXrSlg8ewEhe0fL8gNmQhVbq6jHjNXZpZsIOR80v21HC/SiYUXZH/PJiii8ZoVnnZlJBBf4grMBOCYWmQIOH7OMF4edkJM6CXnmSJt0bxPFdpG9cQIzVsCBAwFoXnt3IQDH3WlmLK6p9zq4q1FDrvhMEC6ZLIs7aY8vvzfmgI1s8XrYnjxZ9S1B8MgxK+tn9d7r9rskablpPfBDlgKzAQd9bj5YWCCMdpRJ4nln5WeWgSqM6QNnMTNwHH86QNK8coYkbe3JqDOD+HiQaZz7xVQe2YYO/4XDDIFLxwh06qDM1A/6RnuxH5nGFxgbC57dFjgDvVEp5vjjv7uDkidPkqU9PBHBIAzV34nGTpjA2EMAoCldlE4dkZXyvt1mYwqs1SXNHUfASKa4zUB6nJoaOwAW5TvcmuTOMz6nbynq0afqbCUAoLMVrPBjC9I3MRXkPmPHx6efz+qNh2ycK4q74+LJKHR4jAXjQB6XXXM5ZTawKI3dOGsSU09YNCRFUVeAVn8azMfDL6V4l96X4FZurGq6m5nuTiVuamCM99woCg2GoKTMilOi4jBPUZ0zAuH7vyLkSthcr1HkxjXrmCf23qfvU1G462DcrSNAborEriox1mTLQUm8elJuWrnReFGjmGmKijhapJd0B8+HeZ1SaJYysLh7h/09HuTE+7dLwpI1guCjhmZqgSTGqfj+lmVJn9MVzID9Pd9Oft3ApxvWdIwsfWemxVP87O2KmnWlpt8PG+WMqyh57KYk923rvS4FrB3Kk1Y0o3iZt6GPhrETosh7tGMA2u5MI7FYlERCbSTRk8Q7Oeo8fVrnJH+GReQgdhkZbSv6DYf1AyAr9vNbls5vxYJYPwCivQkMAEaSK5P/fszhlCQnkD89NTv+MfaoYuJx20ggGP3TbKHeV2PecGbClH6UztgUgAtHbe/sKhsF4SkAoJhpF+u0N1WVu32wCNTldDC0aNCyNTLfdLBwOwmFNXfYHYYlpIZ4bxgdjxbGZgSj7UPXuAWDbYp6LWinMxOMrOEtikCXzR5S+OlWTN2OKjQcVdD9Z1VOYsNJHXQqZuUST3MK1fDTwyti6tNnKcqo6Tq7AA7xGfCB858G7W3Ck2/UFVPytcZILmhfORlxmpwJQjqo8W9MVtURuYydMZWRU9cTkgGA0ual9JpHHPL7j4MlJsaUnkwFpALicQsYw7wO3yA4WIsyzBgTxgiO7Z3DUC1o5INk6VXTt20lOhh+coE3S9V53ZFD1pNU7R6YBM4eDEKFzI5bObCkNqwWxZtvk4QWK23cjFvxzC087EZPI1lf0NI5FP53Or5ha9/TFSsT6P2gsfqtuMWzMfVwtPZAQE0YRMkzLzjst92dmuiDReNxGQQy0lco8sc+yjObqenw5nsDF9+whDBOwUkm2d99odIRqr4YLJkphxHywQFQak7PTK6XqJEBrfB4mkqtujUEoKNDEUnW2XRMNLBiLyQu+L9ChPnkmiWjs8FiAYv4OhjqdSBMfywThYtOTPbsFUHOxBQsWqbUqetIJe7FwdbHpWPDem08TZY3WgLkDMZcyxTtmhTGboQ/bN0Ngvmc7NQKTHNzR2IYkM75LUnRSenmalQwTEcL5fQ+AECwHi6nXUtLSdDHjizS57y+MYW8svGaPJ3dDkK9Cfb62eNGlHyCmWejW7ow/6eEmWnfs3stmB9mS+KG3moqI0CPPfU+CkdRWXoUPpiXC9ba84QkwV6cao2rpDeW9NYUSaw06mwoW6pqOVM05RawRC4YBhb+Cqd9yeOJriA110HXDaor/OzV3cE0sELuSDVZKQJ99yVtpeTBEyVxdQXlSRwm/xexLGIOQMgdh/syTdUuhjfkSqalNqB3TQ88IIrPWmnxAxiTnoqp5xzD2O2gFHkvofTqkoykV1FR4xYOEhCbiRKcxQN7gQW7O4jN5QCrx8MLb1GmR0N+3p7VlZjHGzJxt42lCSN5qSgbnQ4ZM91xpE+hqdCTUvFHgPM71hAVfud3Zrji4F7GDBd73G7/V8wJw4flkEEDM8jPO2r+VHdc/HzjHe+327+5MhJ5M5ORaUqfzDhmMzjlBEtwagZrAPdz606nTXe7HWxgcSZD4EHlApPv4d/cIkI5xMkisdUDsv8ylbvhYmeumAC7/EoQtlOTjOS7H1WBPrG0OOfN92SRRcNRHhCNxgwA0s0DgSnDAutdK6PRp+HGucnl6P4rdXwF++bLBdGo/dpQ7NirGBsD2uuQ5xg5Cb6nZKwZ5MfHnLi8jCywAFYwIscI2Q0q8XcnwTWGOW0ftcpSjNcFcdei3lN7YgEQ/I8lqtptcDizikz/fVKvC6VqF6WLx9mkTYZH3CAK6a2/ETURsNvO20DI+rzqlknwlsnopvii7/gwZvHsFZJ0/+egEFgpv1a8Cp+ihAIPgcyueTwO3d7cXqqbQwn1je2V3yKKW1G4g5ZZejrTZxTCmicT0ipTOjM/NeE1UAw5jw5aJXjPelz6j3U9FwcGbj0wEmeRWaSuCLDPBCKFwzR9VjYjMxPhFqYBoA8tynyF7zvFoL3BYDdPrTfPPc4nUiGNbe1KxextZqZQxz9gjQ49IlIfKAy21Yp60VjGboDrFwRBk37aJi9b5nb40aRRNZV3JWK87p+M0U1rjpglCEdwtyTd3WFC7RsxddIYxuZmw7/ClKxZZ7fdeVtygo9bJTAXNlWDXd1DzsAfm8z6uXCvt7Mn0wzdcACoOq7HsgO1iXm/HLoSLM1rYe4GwJseb3LY7z//sOKOUCCEdWE0rGqYomizJBUmCaG63Ezp+i2UKGYmK5/n5Yqad7qqzYe9PA0Uni87RXHqiYPy9ly7r/qz+JTxb82052pCv0cAGqEzxyOaOmUMIzeCNeK+mNKF+SneZ7CgW+QlEkb4hsflMKIPQj9HUZfAmAaUmNebE5fkcIjSm0fI4kcsLoOsp9W9GQtDy9ztsmk53HHMxsavQ5lprfkp+WSlwJNA6dqYeiKs6XVwb8eDsvDNblG4eWKyd5eVt6xqvOyAGiQHCEBISAwg5EjM5E3JUJ5genwsEiOqovHOC5FgB29RjNXx3BWH7Liq0ZpW4GVzcLO8SQ3ruTse++mjcvwR8NA+FUSkX0VR/MOWOoHrbVnJjIwc3MuUEJ8V92fEg6zvhQNHTpkwlPy8vebPN4TiHusdcuhSVb0zVVEH2k1Fvo4QuV5nc4fr7Lo9Agvw0i6QTZiBg5k+TrukJSc49CSvnXGyU+wtA9YN5f3uje6bNoeHeEABKZ+8QAofrCkVNP2kZJ1NAzV9jMn1tRHA56ktXtdHs7JTwmj5RP0RAQ8DHHyDNUDTOWuXwPnfRO7+wxbcvEc9NVwHqLVRU4PDw7bS4YiudDq/goP1JX5mcUPLK50AQuiDvq7vdHTWUHpfJSWHdlLa9A0V2j+RBL/pa9dkgVe488NpsY3jpzCNGrfnjU3t58DLhf7e7DVLw/56vSjccoUkVhs+eEuA0J6iR1GiJgDZ9CvafB7QYG9HV8+euDHC7/4mSpcNsMt/h3sT4wo89V5hZ8QdEICQzRv2FA8j9dfYtxnXKxmvqMtOVIj7JEImjYLvCwDAvSZJyxckuBsknlmMcRkEIEMbhjk6CDdQmmW6B1+EJ3YdC+v65SACbrMEI8YmFkWVtLG6fliOzi7JJeS8NMAMhdLVP9vlFZflprfj7ClmoBth2khCIMi0wgWJLEvMYZfQjYcDkftv3yqjrmvC/VFlHUxG3iEYF9zHtv0CnTfO48L0bh3NFQRQwWoTY3DG2/rPx0eY6g3W/z3RWAZIoWFgIY0Ea7amRqCXjkr0rEclC6WZwi1COA+gucK9bIeVn1JqCtCdpoSBRT79eE3//DsJY2NE94BFsCAUyTjMr+fntHZdCObNZcnGmmwISOIFpx5Rui8QCtNIe7eA1hrOxx5ZVGFe0ao/pshMnMDMuH2MDTxSZx4XaPcnE5Z+mq5fNgSu54RtdiWlC+5M8Tz7Xloi6PNYqN1D4ccfWGyOMbCvGZt1d0w9BkBtYr5RkfDNVlFYcqrXudvyLRpEv6wnjxGTfOa1dh0JF70KFdPcOAACy2XXZoHedIos7YrvMmwkdGA5AypYos5BGAAoJdmjn9jQifef1H9NEb0/ZeSMZTHVBbLn6C5YB/RCXAD3NtVpf+VrmxSVTHmMSmk8JuAYQemBybHrEnZUDYW7AWRcvFoem0W5E3N5JpzKYiTY2cCzoHjnTu4VM1q0Yo1IT/2P8Jui+n947RcHonEJDTTegjLeL7lz+XtOOYYSj0voA0DxIPRnWkVnnz6CPPDYJ3++O85MgWVm5txlXlfrS/7Qlaco6nNw+k9Ep7IP5M00VXupDRTbtTbxIz/fXIJuB8GZkODU01KT2KDiLLb4hosZpuhzlxxTUI0m5ZessIutvtESYye5dXYiHIaTURAeR0g3bPWnwpS+O+GIoi/DEZ1GImD5YJ2NmWlmWD9mUg1sMkkwhBTS8EiCzBwOrAkyYsDRmG7GaIxDZPiJjVgjCtPr2jpHwW88rjE3biYAUau3CnThiZL0U7+CPSvAzkiPq9aMW3KBKfKY1DGhiGTT2cL+1wWN/Jk7JPGB1aIQjg+aW3ECEQPVmK7L60Vsempqop5S14qdZEfN7btSZTtgfMfZpK0GrQq3SHuLJ82UXLTUnA5Zc7uxqV6qXlqSx8ju8spJuhYq7OX1tB72owi5zIz3vbdFoM/8xen4gTNB6JikQ2hvby9j/x8rCCuP1PWJhvu/9wHW2uX3xZTkKAhmsJgTwKIqhTU+YjOAw+mg7IJ9s6pRFF4an592EM86krBimrzK19Y8nbpOjKA1JmYIHIAK8tL1SFNHyzkx5dvBfQjNjUeRQVl3EuyySgDoWy6wyS9/LQkhAfv4cA0WGTNEU2sw7sFJyZarGTnuNw4EYuulmBnZScnjKyTpybsdtmbJXHcjVbxXhBRJ4luTFfVS2HkjTom7yHZCTjlH0147Xdd+wF2Zy0gxSLahAJI5Z4NAha3z9xgV1o0/YsDWIFj5JBjmvIB83/KCXJ12wfeMFYSnxuj6ufFzDXN59UFVQyPeCZtgACgO7bDH1vwkimsuTE+qcTrteiwYFdCiBCt662TDyOvzmGeEeceCFbm3ltLrU52213DvCMyg61JV9G4LPXQZ3L0FAt6l6fPhLa65fRWsd5+WxFuWSGKX4dJlpLeYlKhoCRusImCZg6KakuTWsUFf96iB0XEvffHNJMZO7j++qUb3j0GoFILVv/JpUXxmsV1ukMC6R8YO9HbwvWmm8/K4mYR8kJLusMsIQkyKxWK8G6fd7eFElbgQstPDe8aH/a0k5G+Di4SIw57G23zzfu5gEUWC3UbRJgoM1rfIVPhXMt5+l2fO6pdD+7jzeHtrkD6jB0l96oIsAOoPRP9tSwifQwfnkNEjC8mWX6r+hLwEiz1bJ72FboRZxIpXel2N50ZiF94Tjk5PYWzmXGNzjH0CzOjFUbVCi6rfw27bqftC+8Vm0iUerGP0mx3k/Rc/Y6CppTgIK5J1NgBAbDioZKMA8lPMfiVII7M+W6CvV9ukr88qzGjl4NEW4L1V8ACZtEIcfMy14L1fUOjbYbOhkEIt3+NyMkxvNZZXJO2dAc4vhi4NlcdqdJ7Rg5iBICQzljE3zo0CM9AUIuTLf4rCimslsYH09gnqSRjgac5m8kVvYT72uJE4MHndTp3JknJtp/8nGGUSM5qRNLQIdO0gh+0T+F5MGzbbDhjN7wzgEFWZ14vYDQBKSdCPG3O4fur2g12DdO1nuI4HBWKMkk3/BCEzSxbbCYu3gAwAQksNgAMASIDrSJrXbdcLOADloLVIvCce+WP2V1tvYDq7ySxol+C+g6DBtsAh3/Q5Ff4xyyYd5GOyLDxzz1vxN9QwUQCclZ606ZfWzktTdXYHCkFqtLBB4MVxnQPjO8ec1wZ4/jyI0kU/26RNU3NS2hBkFB5LM3jCuGJgpmAb7kyJM1t4PQ4d22PDfLBBJdmsvTA1lPXihlmwjg/DO49EAYwxSpjjDli7fZWUfvCkKHz3d1HoxHkwF9B0+SNTBEXCFg5u+F0jZHmFGlNKYMDjqaGN47Wwz3AjANn6dwX6/i2yVCdiWnm8ogJjRoFsCefrkjyNBZ3+KYer2t0gQcYLJlmAabkeBrvlMGuPwXPncQCSe+3S5xcXZLZhM8Bod4gTyfa6Io1EDJ5dCmOdlOjcsr07NDlDZ3+DsZaaOTQ6zHUyAEg5mFkrn5TEj293ys0o6B3YRp3HqgzAjNikO6Mx1Qvn71i4qtvcl+1hQvZXUPreg5Kw8T1R7BZIXwVdg91u1WihCw7PGrKNzKFt1QABe9Aqhftp66L05WMc8j8bkOOmxzK3rHKiclYRScJsPc3tBAso0aknJ7pZcX4K55fMSnI/qnUF0uCauGcSzfF1wr2VVcM6vCEKm5ZLYjPFVupmUgtW1KDY4g0pEZBQEYS9iS5sOwBQQU6ajuEAum39XVixyjOiXIlpvGMqBqJ5DAZefe11vG9MckYpj8rw/uRw50o4SCZcvcsd0dM+j0bJMXoP+NA/dKv1+Z2SftbPb70fTDfvcCInDCPpXpW8dJ+H5GVxfjH+tNls6OLhP+Mh/leAaNNPjWTHzn1kzoyT4lLH/70HM7R18tDKj8my5R/810HInmnktLBY9SKlcsrrMG4FD57dJsOrUcGK9T/YA+S8mOL9W0w9PZOx49ygkYpmnPMNs0YAswjyTJUtZKasXthb19AMO2gHiJ2fQSP+uUqWNp9fkNaCac24q7C2RmeCyW2mcXebBT5mcNNovwCbzeVy6nYZN53A0PIaWlrAAWj+jNPZyrWfYe41OVheT9u7AjQYMjJ6wuEI1zLxYN7WHfRcGo5ORqaFAAjKnQI9cL4s1TKDPkYwEqIMzMJDJCBJqchpWnScExRCGFTl7lxZZrjxsb4jPS2Fdxm96/vt3oO6Llxvl6MwbxIIF4lzeZm8l8YBxUp2gVtAdtAQk5O9GtIJHXPkYFMr0MmhqiZ6+w+7kyY75RDMEzbvkg1OsF7NiseAOIcdWkFUc8FBz0xP0LB18pDSQrZw1lnYA42sWruBfr7xF/HGqoaEUdHYINAPHTsp6Z4riU29dDRUsywqHqMSeaIJTx/CKAqCP7o98S7AUhUmBMOOW8PRMQmMDIa94LXKncEiaQ9RUvuiLG190Wnz22CukLGck2owI5amqgb3G84XvuK64scxpghzy9wuG0NtuRQAaP7Vp7BH1rxLt2yvEppafeL7TYDPjKQ2gZBbLdB6HhcjJo8Y/A3rXECAq+j+4fTTiNpoMUsyF6Z4Dxh/xqr/b1raR4P1WuinRNlCae1sUayx6mXM+BpfJyuri3LCUsGIOXClSOcuIXQVr/eFhufobBTMRWrcXHS0UVK+URL3PuhxdshmQN6SQZpmxsLM+KLFWGJkEuoMzwOgI6/De9UXGOJgJBEsVv0duO9XJcGHwtlYe8MFywudTYVW5ecIBTYTXgqEC9MYS++G668Taf1blAbxu3B/m+wf3N3M3ZdmwTTuc1QIwEJHSi6Gsd4UAJAbdpQ7pHDUc5nL4Y9GY7LR0ZaJzLKCkF2cGtfEuXM57SoCBFpARx9RpKNb9Ibpp7GVz39McY+XV7eJLzS05yVoLLcLBvWBQJtXCdRqZNy7Dtb4BA5wXBbwteBPioootmVhA/LTmIDYg901M/KPJqFgq9FnHU08JWD0QXclEZvLw48Sxg6i0YBBVmlz8fYPfDXM4knhf2BM+PXvFqAL/awf9qsYkuQaRLRQiIw80kZyM6U/jAX9TwD07N/3kr898D3xtf5EvvxmL1l+9yWkmJPsk3/blYfvPXbsQALCCbPB/sQU7d65MSwOw+WFVWJYKPY2Y/63BIoF1++sUtTsUjgQJTrLO4OQQjthiQK3KdEpxu0p8S+ATfBDTZdAa8OUtm+1y50L07xBFEbI7kawyykKJKTk70kq4NYZNXvVIB7wQCMeBuSDS/DYdY/HzlKTvDy9Ff8/9/LjmWh3Eex1Pw82N7aKePKVb8hgycYQjPBeOrr82JWSW0cPSrL/rmjsVQAHFB4iWikUtThmOCOFuPiKaAb5ceNjTACFKcYp0OJCFyAWwaalpDBsK4zfU1ZRT6flpAYDoahAgmGJWQkUghHPj+cdkySkfyFaUqJLywftbdCAPLbw2vMYqIhk1Yuf8lYpl2ck+cHKlAxmE2pxjum9dSd4DVFFVwf62lNTvHoKHMRS0ARvnH0WVmFzJc7wLujktkRPMBSO7IopGqKCbNR5MeuAMKtUuZfqhxIzSA1ga0OBhC23eY+pLzR79CNB2AzWyVbYH5JRTtPD6WUAIzJrGgXMgpVxyntUYUtBg3rFsH7gZ5xX2PMsLytJHzZkAF+N6644AQRxzOjiC+uLbPsnJ7gqYjGlFgGZdwplvbU4RpNBaqwkllgIRjCdt+5wyLpNFhiCPeg+aHWwccmJ20CQ7sI9gNejvfEM1uPLN9q28poWnAcRLXAQzDaZcquKp4fB6xlu5z64TpnZJ0iIS0zg1DkSKHNKTwdgi4g5ni6L8tgiWtewpnwuuFtaUVkY5MBFTnuZ2cJcNNmjLf+5sSmwmFM30t+Z6UJDhRYViitc9ho4x/U6fF43MsWsbiQwX4Lp+TDVdTPWCt+vy9zFZWOFuRlcGcHx3lWUFW1q6VT1YETqdVRRg6mBCLwlPQKQVZCL9VAemPOjRxTpWJYx4+KjGMr7+Vefwebd/iK1w5pclOhqDEfVNlgTGYYE69Aj+uMyt1lPKT1fB8GI/7idso6ME8lJLjawIJPNmXocvx8JgUbXo9zV1tVaSWTJRjzJ6ZwbLBzqANDx8w6bQX8r/zkUaCeepCziTkg3XGSw57Q4VBF+gzOur/VDfzt01OdzPdx8AIbdRI0YeUIn8CbE5FfxoH/FFdfSFia33L+ZvP5eNdivmdxE/OCzHWTn3lqyfNnF5JwzRv0KYP4Vl9yoEQVkYEk62b2v/k/KjtNJb1dVwl1fhvZrCAdFUTSjF5iREzDPJtfDv+tgw+/C7pRW2iWCFh5M3i6b9e4f/BtqeyxmtCTANgKkpxDRSDaw6kfwEGDXUwQiFCB4EDDAjnUVqSBgBxalMxRIfwWBjYc/Fg1y6BNlJ8hco9D4r9ddCNqQjQuTh1f/g5OwHaxooG3tnRyMeGkA766KDIb8ADGzzoL2FFmafYKwaBRZskEn4EF+1N69HjeATzIz3F02Mn/mOWz5k6/xq8Wn93O6HKRHM1x73AoyroluM5vmQbdZXqY+ZCBYLXPO43OG7msjqcLoOiyahX3YIdWwsLlmxQwgM66DcQCwCvVjRg3QseRh0bXnci5K7JMkyDbuaQArifkDEkMiVJBLaCBpZoW9VYzb43o0ikspw/tGgZTgdeket5Mh83hbexevxED3kQYYzvv+GBp9HOeGAQTYQoOpuOaiHk8WzLVsjO2hsDXBzemQQLnwsAGgs6ugSCyacz5cNsobI+JZR8uoozOA+0FXsAcLF3p4D4LR10fXWE9SBH8yIxVYBmEqiywlwaknJrgY9rcKhDH2JOloxaCCgGWBuN6MUdbDPG2lFRvlB1ww8zYgcB4Q7A3meYP8gYZQ1nGuL8zS6hM3sGJRRkwTLBsVjQ6h57D1CFRsM4JCH6wOj8fJxwEClqFrmbvqYN8YTQE5r2kPI4RZZMrPmJmlbyTKcBcqbz1OuacUO8bzRGD+6EPLJFCrxELQ8R4RtL1uByf7Rat68IB8XsJ+sLzOKuAl8bEfayJMi5HvSxfsS3Th5WUl6iUFaWzOZeOYWWdE1Jg/jrGfmvsBbTY0/nSzlsaogRIMd3PPvrTGaONKi8xcToklJzrZIDiLC685G3vOw1rEiOR0eYkS7iY2BB9PCty/AoIfDhUcWJszibgSM4kWixJfRx2JAAjxAkdV4bEirgUb+hLRfwVA8bEeFgdAeh8/9q/fb90wjqOLCPYC/plEr0DGH23/Ffj8KwD07Y+NZMEdm8j+igihMjKGKz3fV1PXTqbOXEMWzjmV3Dz/TBBajn/ZqsL/A7KTE8aVAgjV/UmJCexXY0Ci0fS0ZN5BEzXfALdOGI8d68xotGWcCdzHAsZeMJGAuxLgcFuMFthNw2i9bayr4eswi8qs9GLRzC6ztBuJ9/3BhAPZoNxJ9vBDO3hALlsw42R+hng2JYARKjbcpRENcTpLEfYcPi3Necn8yxkC1SNPvU3Q2jhwqJpW17Ugeztn8AWRjM2GjRZjRqEjCgRu+jtssuZyOXS7DYSlpLG0tGSG31mcl8yQ53DxvEsZ9snC/XjbTbPY/Y+9QLp8YYZM3pgJpGmCxhkM+P7i98YFo8ft0NJSE3k7iUEleWzxjVeyGGiH2B4d7wvZRRA40NoC640Jqo6fIxw6OLigu0xEIaFh/CQ3M1EfOqgQO3ySBddMYph9itx72HY9Gg7w4uHkBAcLhWO6ih3ddKMXD+JaXCzU4vTiWUzoNrLZbDzuVpiXxTdKaXE2z0bEtYRxIT5ollYO1zSZpqlFQmKwU9DeMgouRHjch8D6wrWddhAidpaemsyQrHZgcRZbOOtsvtbIIi5IThINRcgN009mNy57i4LcQfcngpCGlTE4H4YbiGeIMLMOhQstWaRceUBXktMuMa9LYgU5ibyBYX0rnFkaJna/DGInZpKkGKVnxGoXbrokEdAkvBYIPoz9ca07wbA28b3l1S20pqEdBB/uIqOEDufCoiWyAL1HyTQbdnELDRUCVPTgZ6fLicoXcblsDK3ZIQPz2P5DtRS9RZEodlZnWJEJ+wJQ17BgOQiI1jgFQ0Aj+Tq3pGRqKGkqQQ8AixCVK0Ww+mJvawvu0tUtSx9dp04Huk9t3CWKfbxKcU2uOZsrhY888x5p69hPESxjEhpVWlzLcO4i4y5r9BjgvkSrtrQki11/xQSG5Rg8EY1nTXMFjQwsymCd3UGwTHUd9ArsWcUVI73XtcdMFyi6G7F+jlvlSEaM7kFUWrgXAvb9vKsmcj5INGJ4bzJsUSQ7XHDQFbCAsg2QQZ8wNVo++zuaOXmky5sNQiSBV9QLkkCC3S09BBKGO+730q1/hzXBzFj6dfo2csRgI7VueAWUdJ/A5e+4I+xwOMV/yxWH0nLV8zvJPY/9QoJRrIXKI6r/W7hs37RqbNr3yBOfks1byskj904hhw/L62mY9z+BEf7vgrOPIk89/9Wfl6Ldc8/GEwUQgsexYw7TN/24E9PHGVK3R6JRQVU0OAgGazx3e/AYjuEyYuaacJ1X7bFwzNIYo8AUs5W4oJHMeA/6w0SDU0xGPzQADwhqlp6SyA86HngEHwEEvqYh5RPsI+yeKKPOEuXgYyT1RXm9GYKPINgwc4AX0aMQ3uR/5OnW8p9sWNSXPuaYSreup/qbKxLDPuz6qTa6krJZYs7QYn9LhR5sr1NY9NDfbP5n2zCdNDXJzYrzQICBcJ975QTY6xrs7wSCGvvEeXI2YO7FKcWjB4jySlcot4Gpcjl1gqBwEhZzJmc1OFzaG3UbL6xxmmnTaFWMO2qwjgA2D4RuONgJAGwnp91AUyJROjul+PECIV9yhSI/KLYkVk9aX3pYC/yoYBDfkTnNK3nGXJZaNGaQ7PK6m/ZtVA6CTK2ry63MLB7y/ONrZzTeOPscpkT8BCxYTo/117kXgaX2D3IoPDdPTvCcX1w0qkiyuVKDHbWxQFs1TlwI+9gJkhhQuje/JtuSNWYfcn3KwGPHddbslPb4wjR72Alf73G4nxHZX1oxNmBoH8Z+VrFmBpQQ3Wj41dMXCN2oFimrxN08lCsX6GrygDWJ+wUtnMGl+ey97ecfW1WbdeqPTwzMAnkhdFT/AiIJ8wLcuDu7CFn0viOPVjmF5KszMgYg8YOto3Yn0ZSIWeqmd2cOGruj4qPRb2B7DfgqlpTgAAsxmeVleMCaj5Irzj6C2Vxu8uqH+8gOZVmyzd20SIiGBnt0dXtq8UjB5koZGWyv8XdVf/N4oOa+faBta+jdwjbwuP/zs1N0FHp4gx8fuGqE6Ei8JDFnSKozS5ND1b/oshITTOqqkMObsLPhpymvpwxecbo3a/h4T3pJctPer2Jc1xLF2ozSUe82bDh+B1rDOGdo9eBYh5YWASBHyQHnGkeNo/zWoLtehimoBdsoeeARp6XGAi37yz8e/Yp34KqLQaJ3hKpu/lwwrVYEM1SY3G47P0tB1/VOneVOycw7vEB2JeTGgp20q26P6cNTUcMNpZWMYQ5vRg5I/qRYqNvWVrklFCLqmwXORzdggH/+9NPBMg0Z5xmEPAJTIAiKFmiceGbRcuEJGzBRqLh4XLKOVjcCaUl+MkMGfE2JcVICDa6Da+5yp3F8QHmIbrRgOMpcDlmLwjUwvqbHpYajJwLFByofyHhhWD82lgYKHCot8648hWHxO7ptFdgL+D3YqVlyOD0khn9A/7Gi8hRsxrXViMk3SjlACZKDeBJzOLU/MigL/H1NBmfUH7bsZv1aNdB+Kdm0X+gjAF/ebWS0x7mhJh7n+LdccfVNQbLork3kvU/rCJWS4ZlIou1//+OEhR/LyDlTV5L77riATDl/bB9W7t8CIut7jzi8gAwamEkOHGr6r7vjDOs3ftoMcxu1Z/TfjjmiSK+q91HsFxQMCgzdIZhBo5qJBKTHW9tjpptan9CbCCJYrg5q1tXoBDU2XEeRaqBxy/xnl0ME89rBSgvTGVpji2adwXBjocBHwMOWEJhJabiu3ERTJd4wkRKZN8hD7Z+ztTtkHvhGUEKroKXsh5lFY6Z2g2I7t3bLC5tV5nw29/BJJ4V2fUQKRp2/JOrbv75xzxcXEWpbWjTmUqKGqu/v/uGl1lQQuAOLsjDESzDOEuiqxxoK4vAkcVBNTdDaWcq4t1sO/eBUVDY/KffwOajKFY2ZskUN1lytqYFYsOHDZguAMIlh7JGlqPWRm+ZewO3DSKib8yymJyb5fWTAax0VP+XD/ML4zhxUD+OTUy+nLPTjvRins+l1fnfKme921WwphPP6ENzTaBAoc6nu/4wEd3eW1TfRR59+n7dRn3/1aQwJYHU9xtfYKXU0pww76+2upvKk9sqah+Fc/QXPls2Z8FVKXt4qTFHxVWwKxNreUYl8zdOtBzeFC8dc9gD8fTGNNb6sNazrMGo0jGw2ABCuNfsCQV7LpZk1XNYD4ydW4BgBywAfF8tIS+EenWIQUtjg8Kbrzmc/3jtsdzAYamwr25QJ9/5+xqDxqajhupOzp1A9uF0L17TpgT3hLp+6rrXsq3QieN7KGX5mjq/pAEnOG3K1Gqr7SYs2+eErddxPLpeLYV3awKJsNuPCsYxZPjb4aWvggYGiK/MNV7K9KCEj/4KWLddtbvpmvm4vuGuQTlL+IdgLvkoYsOJG0rTkJW6Vg2DHNiADwRLke3LO+ezn+/PKA4HY821l36aBOH4/c/BJ6bjnbU7XtFigYocSbgnaJElNzEj6IdC655C/ufKmorGXX6lr4WVqsOr1WPfuVtDs0eIiuCeQxBTnbPaUsWzumqFyiHifdKcODOYUD7q9+/tj/ehG1oOlGS1ley/NPHr930JdjWfD/lhWVXcLWjGMuxyTDIUJzxm6rQ80N4V9iad/3Fr5o1NjtnNEm/dh1BNgzzSF27b+BQ6KKggxxhQfoJZzVGv5j4thXYcXHj21jOx9dMOhyma68oVPuCfkBhD2aEUOGZjPA27VIAvwOCONllnjyAwr0cmKcr3cZXLt1HEcgLCQVAMlQAOF0enN4KEY7C129QUj2Op1fgKoq3f5bbxnGIIbT07CgJ/p3sd7Q/BB5Q3rEAcUZjDsUzbvytMYd6gDfujRKL+uJHuMHNTan57CwB/8096TKKAiKKGGDQIBNUpk1EbziVe6okjSoty1MurcD90xlv1FOIJVzey3raH+1g79vboh5ILzAfb4etR+KiYTKflcELACeXVFFikpsPMMOMyGwydmxv1WVtynX9eQmwCADlXH4L7SYeK6iebb8G8J/WtnnETuvHkySUpy/2EhrJUld+f975Dlj3/8XwMhOc0kX1dqFul101/HJmVg9ipw6GKJXpcKFoj20JLJ3BX09GubeTYLrhdsFopdFcORGOdswo0SU2KUxiU2oDVi8a5LvKjUaNuOhw43FQorl8uJpjWHr5REOxcUg0oy+e8LZv4FtgfjBwCb4nH2BbAcJNlFRAAh7FGFQIYmvt2RyBWeWCRMUItExnYbKEIiFsualtkFT1ykggi6LKF83Fs1dS1Ct/vOZ2F/XFkwehpYVd3TKtYX/QM19uKzG2+nov1WLVRV2rbpuBo82AiKgwfkcD/7rKlHMYFIxJuSz60tJRbje/r+FS/Q93dNnQJ3uA6vCSd7Xf1H+VdbihIKCnTBpaUkcVcOCjIqyvxs+LubOY8i8iziux9d/QZ9f/cV05VI4DmLGEAQtAvltts+xfmA8XArxDZ23zgAzTu0rUPPwPs2Ass20FZdIAgSuKWBGXI4Tk3RyKoXN1BJdpLvftop6ANfTm9vaPhRjQbyYbzdWqTpzPrPh3My6QSvW0dLRTpq+2mw2ccllI29s62ji+J3I6ij+4wnO5jkvh3dQR5r47QyUcXgHIB9wuu3uICS+CSg1YNZe2iZolvzxmvP5SAZ8rXAPIY4e/rK5z+i/9x6PpJETIBxderRhqP9m4+toTwrT6GYEIAAG059+C2428k410qgbETdhrFlOB67TdDtsL9cIBBHDc3WZ154PHMnZfOWITpYhRfelZ9J3QWf+Zv3HV5w1KXTWz7NWgcyj6qM8tiLmHPvKURwIz+qItud59L6+RtSwRo2XFPZbP7Ms7hL1u5OAMW5jdz8yC5hS9WxWOt6asHoK1qjnb+Mrfv6FK5JazzuaFiEeSd9lSEnHPZarHPrhS0/nNshmakwaSmJfC3RMl40+zwWDnSQU/6acnLm8AtftsvkhJHKeZXfbdkv4NxHFEJjCqPR1HvvKhg9fQlT/We1fDH4c/wfxtYKclMxOYCgC2zOJUdzp4TNkUSuX7pO2N09+yhG7J/BfCXC9+6qfCd1jOVNwr2JMSDv6PdTxISRm2Fhn1F+GrIc1xiTgHDxSsECxPVa+dzH/EBhF2X8Xhw77gn8uSQvkcdMr7v8BIagQwxmO94hGQEi5G8mxtwlk2jEB5ZRhGDc76lXN3Pm/Yradtrhi5j7B2OHNj4+dH/itQaV5AJeKeT6q05jKA/QRYh0X+hFQ3Z+XVENNy52Uo5Ew0aPIE0luOklu5MPEgEFw6AiT81EVlZkPY1xIeOERUVSU0ODNhynwu8Wn9J+njn2GyCEvHRgxWvdfQSvlHwO/9/IYQ5SlGf7QwsIX4MhhSxf/TN5ZA2Y/sxDBFsuGFWfg/LZ+m8L/TVrvyQ/b68kj947lRw1svgP3XP4+4TjB5PH13xGojH1v+qP60PaQy1rjCcoEG9yGl+7a6Ycyf35a9b9iECETeZoJ2wYBIFAMIRhYDOLScT0V97iG7Vkg8nAZEWGzWUFXVMSnZw9eFBxhqHNwFsWXDMeNE2jwJlbzGAtEyZyuieRgmUDigHWF6AFp6CvHCwIT0IWB6NoxG8wcduMQDxn6eaxyBhvFQIve52Bt9/p7ApSIzklWgsCFv9OkNDdKmZt3P33NzKGXr1QjWFtj07a2rsEXXXoB+EzgwbmMU9CNrfcY5FurkhhOqgSVTkFka7FbLhr8Zpwuc4oZoWZsS5JtDEE7rRknm5I1CiAl8sOgkrjB1SGcfNOs0zlK6JGQ2rO4Zc9DDcyv+6X521UdD0ZTVx0mr374fJwVKUYK+uo2NSWkHfi+og8Vgy0fcyBHoGdH2I4ewOKUjF6xs8gbFgyd9pfmDcpj+w7UM7ay6a1SilPPaxE/CvbKjYnJuaOviMW087DwmMEkpA83i4d+v6YlJwhL9Q2tgtWVhyhClcwsIYHhZ3hbpU5KJVVNGJhKHd/YlKSwNOwJcIzGbkuKpHFN1zCFDXMvSI8CQkmy+FOAssymaxYs56nSeqImIT/i6rhqL2j0ycaGrHMMCDNk5o0pYOYcw3WsI1nWRo2NwdHHTTwsvJ6+sQLn5L5M8+GZQFB7XIRX3fXLZnZEw73Zh5dpfu2v41hAcyugAnmiQG675XPo94Zu+BKhycVnHkvSX1xc/jQHH+XL0LKKhvJ42s/JH+9/mI+x053CjnUPNAG4xXN8Yo62IZW/RMqNQ67HWMnpHnvG6GsUUvf03VZsIFWH4tFqdtl401osNQAW9wvf/odiqUGiqKOj/g6XOFoi31/Vy3FPWxkOIr8TNlslfeoMXYB0wQ7T5Dg507gHgCMmxraSG+Xp9KiDLbrF8yMU6jKK2X0JosLDs90+vg9U5v3rP2K/Dy5wXNs5afwfwf2xcLvDAQjPD6E97B89T/IotmTYQ1ccH8qW/HsB6ZLXiPXXXoCJuATbN+CLPmoFMl2D1HgjIpcxoqGIolnkWc8EsObADMw/6qJHGSeeOlrMoD3vzIsbVQ2NXQpwz0sAPC3uxJhjiN8b6FVhuEXVEiQTpmHS3nmrcbvXaKSjfeyxY2AAsGGoIOThIIFgUfzEyN7SeQbVYUPohtFBU3WauWg9ZHIfV1zfctw2G+kams8A47o/t91QY070mHWhdHfjQkdquwiC5duJJ9tbAR5lQIT6CRK+7r/ldj/aVsFOe/yx8ntYBHNvOLE33XP4c+jR5WQ4qI0su9g43/fHdevqBcPp+HK8vRoO7i55l55IsPA+ZMvb4IN5+Ygc6C8gaJGg5sCg4IcBFDhkGxc8zEar1IOBphRpsF1kGF7wTUTGdaPYS8h1FRj0S6iBQPE7kyCZyrX6nF32iSvAT54XUE2gvbeNCLDpuSmt2hopkbdiUgkHpy0G/Eq2OTLn3wLtNzLv4pW3qn5A0GKHSx1Oaajiw30H9inWg8tULDhnQZ14FXblJjmDgTCIvq9O32YqBHRK6rb4b43gnUxCbThaM9+Q/BArU3XIxRpqvCaAAKtMUXhgW6N99CJ8Wykto5uim6dFc+tpzdhBpiuEl4gqsYM/juulMGcxLpdSqT7QyJ65PQhl8xv3vtKviilPBaIZV0QDlep4XBUj6hbqDPz2GCo+yBRFJ2necG9YXo3z4k6VNVGHn3mQ3LzDZcx7N2Ebjncb4NLC9j+shrSEdi2jghZ1/ia/x97XwJmaVWeef7t7rVX9UI3+yKIgjruJhiNGBXFZQgo4oIYREAQBXU0M6NJHI37grvGMcZgUDHqDEmIqFEhKiLiBk2ztfRW3V3Lrbv+65nvfb/z36puQJOM5Emex+qnnu6uuve//3LOt77f+970kMbsiSevP+nGk3b90yO+A98ZTDzkyVMbHzu/cN3R4LD1YDRhlOAEusFgNPOHfs6lFzzXQpJdYhMbNZq4IazRkyKHzhlKxTUNRhCdV8f5XJwKqAQOVUbMOD4ibDlPN8BpvWTQDoZxAgMCw855I0T9EmAocWVm23Fv3yBJEh/PvzdIDUpyEhQVk02x0WJv9my7xYzNzZgXvf9Rx8qxX7LrF1eag0487ye9n7xqCO2ZQtHl6mSTW23RHF4vocNDvWj2Ybb1uGesdHpfGAyGMMTFnfcsGpQ7X/uKUzm/lMTHyfk2XW/MLA57u2N97hyetnrPInnn3uE9N31sZd1RTzZyrsRjioH3gS5dWFoxt2zNCHjByIotGoN+e+dEd8+P3rFgX3bpWPzndwwTBQI2GuLw93w8yY744y9Y6zV10JxjaGZhuePdducuNvyjSoOGH3sNPR08+8Lqepf3LKVELdJZ2vaeWw/Ns1600u371WTwzyj1YOhVUXBAvyWSxZKdg4FdLt9ZHJvzX3iShR6YISpUAQE8puxn3wH4aA/k9XF7JzOiEj0KFW1PjotMBlULfL3qpU+2AKyBOScUZwYvACfDdSLBhawF7g08ZwSCGnAkEhB2aa/oAOWz8YYQkYrvSSpVLcywu2yGnWUn9w7UizFYqDQQrjxTqdbd0FpEf+Oxk21XHcwoUPc1J7LmfspwvprW+3FAxq/T3jbrvjn58c377AWVTuHKr95m3vT275vtuyVKDzYam+wQA/n934jx37uvYy563V+Z799wh3nb//xDMzc7PsqK1mZiQNU9ShzRLVt2PZCJ0H7ccbYcubCrTAoB0Vb4O2AkAmfy3179fKtIrj4cjWKhJCuo1abMn3/gSq9w8uyvu+iFNon75Atsjs1w0cT9RTFMQ7Jpp4MV1EhNpTItHyiOzvQlOhuHODE2CCMcOJSoMsZziSWyEqPDbCmqVGnMsIghjNdZ2smov1IfJ29hYRONysRJpMP8Org0ZVKALkrsY3/J5Zg8zoDsYzSbL30zjgfpz/LYRtmIodey3AS4KrSxeku7tPlZ1RKPzRUMgVIBojYcU6xOIO+ntEBgDbsyYZgx64MzveSPnmnVIEtUmfVHvTTMO3kkDE3EllWnu1vf9pbW4W96tPz/cfL9VG/qpX8a7/zjN7Fkmw283T+/wq8MY/Tn3HwXEIvIzEqARiT7QRmDcB+g6QTDEMmeq89/ZGXY+O/vlON+Zn7Ll/2x9Y97Y+Zvek7QOF5C9fiJvXu+9FY1mIVKq7B6UQB0wR0ItCHufwIEHowTmsMrkpHKOkBpjVB4uSdx2jFpMaBy8qC7JIfBemrKs+mLQe4aTwwvo1pZJ7iHOcN1w/uYDGKbZeTTRByvwYwvrkhSAfxbXtMbdvbJI7U6ISNOj+DJSshIulKvyXrNZN125bPSk+UlE+uPv1iOm926su8nJMUVI+4BIu0T7GfBe3mLEfuFzze29qxef3AVoN4LLP8GxRGbJ+27PozAJmbEPzrfQbE0WLh1CJAGbVNWmBzTTBWg0qDMllShiFDy8QGaPERW2yiYxSJgw7OxRfzd9s7v2ebcY07p7f3+7yzW//hbppZeK++6bWAHW2vDD25fuvFtfzlz1IsCDGE7OSqWQGcmWkSymUBHI2ASOZuXqRPqLmw3UX2dVyL4WpteVFvZfeMTpg8+5bPthcu94cqen/qVuWM57AqGiyzwgDBcag88wPs1eJD7APRZ6krsBJylVEFGrwYZEIAH+NyhOBV4PkCzCzpYyfzrE+IDxghVAq0XymieDqcZn0GsBC3IaHirAtoKlvz4uRH9RZ4MaIvQF0ZPGDdYhTPlc+R3vkREfAH+RjkFMGwsODgceCyPvZqMJ52TQdvjooygtjKS6t6/7eN7q23uktrivmeAluWur6zO3635DqdOo8V9+PEVs3FddJ+luCQtxPlcZ1766q+b7fMgWN1g8pWrTdH73n0e8//n+3NfuN48/bR3me9+77aRftFaKQmi5E595G/8c1e/12qnmjVzPSNaJhex5pTlhhghFp/n67AdjVmlwSyFGaofEkBw6XnPsZe8/BR78TmnsDYcVVrImspSKw0OjGMlbJpaYx2zHpThgqAq/542teYMDRrUVfEOZMmMUkuQQ6VC1BcxwmIE4GhY9nIzMcPuIoEuw96SGYrDw2bK4/7No2tzPUh8w35kCYWw+A3QVzqMt6aDzqDc2JYDFoFBFoO5tri/rBk7NZF8GjtsuP2OGRcqtOSOu8oYZWmwCcMW51BkQ+3PVeqOM9EaLWkNdomdTXrb3jMcLm957eRhL9mHY+fp8FVm5rXPE2catDY8zU/6u7w0jb3SGFSrVacTnRrM3Lz2lc+yQaVG5KC10HZqMyouRf7syjVf8fzajUlvu+nsuemkYPJ5TzKVBz9r6rCz/nn5lgsHB64LzI3hfqC/g+zvdRc+n01oOA/wBQ66ewkQsQ7sgjWDaLdWhwIEypjD0SFJdJvlBCkBRv9Hpz/aIrtacx8lmJlYF0w9Z70/+dz1/vRL1tcOv3zdsHnOOvl9ozH3RLzGz9OCYwOwGoXjC4wzFcOL5NrrraYEDZARGR67+swLOIBAUX0F5SMAtAFYxubxXrwuFoeZJcEJJjo0HMRx0B/E/r6FJX/rXbt0GSFrzTNPXuuX55slcQAINQaVsWy07AUegaXcC8cPyvJmo2QAwTPAsKb2VnQNoER1xuO/dd3M0a/6q9rkY83EwadPyD15tlzXB8Rv/H1mm//Ybb3uCln6m5ZueOSdJSBEHKwOZre7OtXM+Src255bT3pfF+74a1lD/rrmkR98+Owjv/MHtY2v/Jz87pikv8B6Zv/u924d7LrqGuOoNOAskS3inG+/aw/5/mATMOCOGTTPatkeLxh29jDAZLAjwWl/ZS+fMUpXIXXlEpbLgIZGsIVKCdYOfAOCWayJqFrTtSHOCyXrdNhXzDagsNSYSpntILuC88F8IIJk/A4leewtjGyFee7QVnKT6xL9BoMqnU15YX0xEohcacRqDXpEREQh0iTVifGInxqxJhxQbrPe/o6qLItkS/edAR3AEPCMJ+4/oFo6o1tvXzKX/cl15tvf2yPGFooZEpkvXPGAoqR/fst2c+oZ7zZ/fNmzzcWvfBoQIfud12MfdZTZfNCU2b5j8QFlTLAHyGKUU/Zwjj7nGqjiwKgE6S+ass3xTTR2SIMRofTau+R5RTQ4qAch2uZciTz7IGiwJ5gW1g1iZgwsQGTLTEUWIXSoQPEURlrzDRoVRkJpT9LwELXnUB59ahTxlbIsi3JPPFg2QOHA+cBZcG1VmiwlohyBY08vvfT21KJPFdokCe0A5SJkQtoTMmulfPfd9Ny/8IrFrIQgl/0QIvJk4aM2jS/wICbilLAJ6CDymBk/jokAzFo3jFtI5pV73ijbkQ1VqTf0PZ5VkUf8DI7Iq7OkKNeXJ4n10DTed8Njfjr5qLveNHboBR9evvM9skDCd9jxM25cuuuTQxtuHM0lhA5tiKgRKCmAN7iJvR7BpBXZa4k4IfSzjjxkxu7dt2g7e78xHNjD/sx4jSsG7Z/Xpo9+y7tt1v3c0q3nvbfUkSFHl5w7BwTJ11ezZaAEEAgMzFCeQYbSYlhjGZWQXAlAkN2gvILo2JMAZWhzBqg0NIyAAwajKLWg9HL45hl747yCLCQJa5jwyLdOPfjTvaU73s48qL2wpVDqsuQh7R1fkzVyInWCTMkh4HPqnzYFBvD8Fzzedto7DEpZYgSP1OMyGOC8jVVWB84J1CTbYY+oiH1tCcjaTO1GE26O8t5Wm3gpZ9iW2uiB5kphlI015LkfVh43U5xVKew3Qo1GoV90+jsrWVYlLxsuvRIpSzn6JMcefYi95PznApbO3lpr71EvW9xwy1bjbzhr4ojXHTNimb79fx0hi+sIgDKy1qveXml/4K0gewucbLoiQgMtZQEabXV2hoO/khBMH/3fEWivq8w8+/G9hWvnks6tJ0wf/aYk2XeVavLs+kwW7vlcimYP+kXa11K6JhwbNhsXh6CB5dYgNfXmJJ0opHgS+Q7ldxVx+sPesmmMz1E9G+QFjbF1DOCQEQOYgCDIpzNSgA7XBbgKMHvnWCVgl0P6CIehEkeTZxDIlHVXr9O55qzOhNT1wFqkrfHJiD1hqs0Jgg1qrWlGvqzlRVVTMuainFKD5LdEK/FgiQg640TIc2VtUb0A1yPCPtZvq99Uq3GaAuKArGRA9lf8QQ9kbMwjKOHAUtwVX77NnHLWV80/fV8cmWQ/RbbLZO2//ZXH+0396Q8T88Y//YJ58XkfNTt2Lu6XFaEk94ynnviAfG4x+jPS5x4RmmrDWQcxEZXAmcC4o/QSMvpoMMoF1JIpMIR9Tcifyy5jmUmj3YTiduh1AMevTMlVGh9mUM7BwWCFUYXOZWXxl8yE4EiQMWD2ESU5L9DARnkJqzpf5muUl0lWAQcBx4e/8ftqfYwNbzzfhx3VBX8VobYw7PIezmMAUZeojpVX5odp+/rMxrfnyjkWWiCZ4CialRTzFaYpm8nQ+S1xI4VEVFa50UfHZMTv3at3qc49k3NrceMgYoRTWFm4WyLHXXpMlLay2MOmJmde4BdLPzjsinQ4+GR93ZlwrBsLf/0Hs9ybsF4tVQYK3bRVUtNULRwBnCOehzrOKcqnIGt81UufZAkumGzZibFmEfauuVaysp/puccHDTt3Xjfc99UUWQLKVShLktW6pgzFuI/oO1x8DmZIusyGx6cPMTPrjzETs4czm9V6kMLjsXZgkAAwwd+xOByUdlH9oD1AVi2Zch12QhxonpX3sd8fLP7gNcu3vOJFfrHwotDrv7AapmfWovwFcr7fLO81AhCqLFqFiOM+APKPmaBKNTJWfj9oLyIT2jd6PoM+Bjd1vsllK4oUQztvzdoY9nckvS2SdFtfjLQfx6kPIM4vttzJGEVey9Kue73Nk4HnrQmc8R+UsxB4yWtsKlEYoOoAJ9TrddskE8WY1fLqkNWim7c/qrG1/YdPSX+2+R3Dff/49LjzyzMlw7hcAp4ftzZfErcOvhTHCmpzp78petANT4BWErO/GCzc2jvFnsB4BfYvqK1W76lcU3/lp3uvP+ij3S0v+rP67DNfnAx6S1lmo8KRyaYzbz4C6578iKE6yunxOgdDsaawt0gFz2AyZxAIkJAfhmLPx0yjNcn5z0ZrlueAEjRIClgql8AQTgfH8R14AuuCACKPNF0qT2gyLcPXGgrUgX0IkbS0nF1JDfqQcu4ASXDdVJvT/D0qNT5gq/glUhmt8yaMdnhCqPfJBqBxCHW2I5GNWKk0TbmR7j1semD5zR/NKmjRc8WV4O7/K5g+i38fd1TVHHLQKkvC8kpi3vDWfzbn/7fvmL3LEoVGG02+/GVT9H9k/r2/vvTVG8zTTnuH+fuv3zxyRDjP33/ig2GMHmga79WukNW0ANlKv7NIFVxlJ4BRn5UMaKOZXv8gLjggmxgJyyJEWa02Nm04/S/RGAKMiqOhQWkNGRfWgc7KZYx6WFIDirLSIPwaSEk2U9MBnRcClFpzasSEAMOFn5ULGhG2VVpd42YlTWtyM7+VOysyb3j1mVYzOWtA8YGBPnFyBZxGkqyIc+y7WVo3aOkYo6scUow4qIgBOeNmeoaDRW3GYpZBDHylPmEuIM9ZaleP2dmvX1mSS+I+qgNOXAAk2WAF5aIWEWPt+TvMeWc+EudnEzkvZB/oh2Cqvb/9z9+Sm9q3Je5F2fH3xQe9szJzWiQR/n5QHRqMQ+c4Y4HvIMTGDTlDMTFzlBj7DeY1551qjzhkCkOCthHuSOS8B3ru7ZV45cZ7kMWR+86tQTgtMpZPNC3guq8+5xl0ZEm/464pBEO27G15Xo0ZOryaOD44JIASYLD67XnTnJwxk7ObuS4QsSPwGJveyPmvan2C/89dVin30SbDHb1k4cphPP+pQbz78n6y+339Yu/7cK6Je02Rpr2ykWlH1frAtWUk8Km1Jgwa6PL628rnI9c5XpZKS+o5ctihGicp2uh18eIdRbKDNwHEMmIwvcEg9miMGXgkq+ebdvzcaobkUmuuIzjGB23YlkqGtSdJugGChBAsQYS8Bw7qbmhkcQnDrFqvbDj34qTyxGh4+/N2d24+9v+s/OjgN6384qlPGS5/50nJcP5T9U2vSopg1qRFeGrhVEXTTGf2bt16j1fSkQzl+VRr06Pz5DWl3cAx1pn2Tx7/gyRe+FGW26i0vUlRfyYabFj/NUfQy76SOAI+a1mzeF711gyfF/qkilgLuT+x55AxVeoKKAIJQb+zxKoBtyoC0TAY9bEsWTiM9nnrDZJbo+SG32Gf0Ha4qgT2PLJtBDgEUMEuRI4UH5UNsT2wMT7SfkMBu2UeABcfVp1HQ6/IaJrFlB3NXEw+Av2SxvpA1BS4poQDJhTlv8ufOyRXLs4HaM3Rz+7nG1cv3094uERHkWZBN/1swTz/FdeYT11xh3ipOUZv+eLnf/2xHsDv27buMi942eXmbe/5Co0oFsYTHnOMOfyQ2d/857l7omTDayubq9lSc2yWxgTBRBqvKPmRZCeQ5ajUprQU54KCUBZEFNYdMk3LcEBKZWWdH70I943eDct9nG/BXFadyDc4tKoYsSia0P9LJA8n1W3v5YKsVCcY3SPFR5btc9YmpAEbm9okDnIDz4skdzSOkTZoMT9x+Ab7oCM320M3rxebmNTw2RnmFSTDWwXCOP0UiKqF5QR6TaLVhn3QUQfRcCBwwsJvTKxjnp5KNoBNrhmfHjMbduxq723VGQHarASWGQ0z9gNg2ogUkbE0x9ebUDJFHKe77UMshVTJ5yUB+8KHO+nydy+pTD57Pmz9rqmtO+/38mR4TBbvAdGlXzJTlw3a14BuBZUDCEpmLhMrrCKM5M+rX/50ZjWgWJH74blzR3+E5KvIEGxBQiNG85iVgbSCyi5UTK0+zhIfIuyU4ALD5wDuSGRikGZBPw/XRXRlrtGs9qgyo7NjRo1WpcaAAgZm7X0s0iQwdk3JvdSYkuxDX9OZltvXKPtunEOrVHjvD5mrWqAwx2cPMp+/drdn8+F3Rs8nHhwvAWdQykioIyoMMj3J6g8eva4//61S4IQ9PvkGOAOzcrZwvcXR+XbWFd5sy1USrArouf1FkEacF0nXL3vjyhY+bteSmPL8xc3JZ5/QjTc+UqUjFLaa927OB1uefWv3x8delvZ2vFevozuHLE3SVmRqXq8Xe1hXl3/m214INO8QjqdzwNpc0bXgepTZYOEWsb2kXUKPKVn5yWPK/iUyysnxKp872blRUhW7jn4mYQMAIohjCIOQ6xnPHA4pI3BgIA5wjFkO+OKYEXf3mX53Dx1XLPuOUG0JVgNXFSjcfINlZaWgk6u31qkWHY+bupg5cKhA38UQBQMl3L8gAihHFlUJY0N9FhFDXTIfRD/qkVFuyLlhEF2jdFep4/cTJYzTUxPorZpD78BiEjZUX0528V9cegokwzzlyeN82H911R3mzPOvNT/eIo4v3GCKeAsBCPY/wB+U59789qvMaS9+v7n9zt1mYrxuHnHioQ9oOW6Vi28t87j26noru7kgJueOkgxjI/tBu+7+ngQYKzRAg94+U29otgKDDIMy6M2bhZ0/k4U5MPV6i+U5QqxpdAIuOkfsSF7BNIYhQ0oOJByyK0DDK8yoeyuLJu6tmO7yHmZmZWaN8wDyDj0WoO8UQprT2cGgwUlFVc2uLjr79+2lIDaVtYlZCnGMhxH8QNRUz6zquPi25Dgjg/DmdcW6uVl73DGHW0DH33DxGbbenFEoKNlirFJQja9za9sdMx3Mrh2mLg2M52ZnWDKsNLiJKC0gGzuSyBG6W0D7efWH52naXgcKFkB8MfBYjcLc7nj5bWmy9LoiPDjRc+9XilyRTnGS+ZjRWlzueXgWKIfXGtN8HggKwCOHzACfpzRanjnmyI2MdNeeO6NQgioADLCMsq1ZFT287PznWpQ98RnK3VeMkHigxxkAEdtr0xHimFp29UyjpbB7UO3AabG/4Ics61K9Mwx4zLXnkjquMS1PI57wnQxCYt1ralnuV5XA03fGyee58H7WJqHVw3vfqMY/tMH0t9zzOcFOnbtendcqswfOL8vTR4ezZ8N4b03a136t3C9ls0e5EHMGR81KryPncY87l+ksDyt2zevKqcebf3l0VQLu2Sxtdz03AoFrX1zqKL06qgRgFZBAK/SHWW/P36xLTfMVKprou/Dbln7Q9O7506/J+cVJvLKM1gmSCzynwTD2ljsJJU1gY/l8gPtbuzaTrjWrNCeSzW69Lp7/eJuZU/XZ02KffzcKVdV2LV8nsg7sYex7JBcAFHCUA6MYqFLQjo9zXWesZvRYMUDCAW7HNNHSnHUgnsCv8LqxJpmcWMtsCQhY3FsGS8jkuWbEZyQKRkKgAhCS5yphPu9fSqfn+PrQxy4U+YK6HkeDC0Lq8ELPKN8YBwlJXJo5plxDBuHV8pvTA3KLa7X8prA9Y9EFXDT30qb+FV+Pe0TTtOqped1bbzRvfPuPTGfYIvtB0b7K2Hir+Y/2dfU/3mye9l/fYa6+5sfmeac+/t+sU/SvrMtpJFIULsKFzEaV5dNhf59Z2nMr+dqyYiiOZjfnfZiSp10TDyXlHi5L9LWiJSdxFIzAipjvIaLNPXeUIUZkoy5CB0S/1pxjI1thnxnRLxgKhMwHvpEp6Xb0mBVVqxMsM1GfMDNE4oHbrbu0m9EW+k+aAeQsEb72vGezPl/kSc5eEoxuAt248s/qthsba5Kd98iDp0mw+epznkqoDPoXcJqoZQNSis9gLyJP4tVj9idH6gjWGVE6yNxFk4hOCzGU49xUWOKdpR3M6jDALcH2YRKRP52Kw1XwZdWUwBE6Pzuec1UWL3xaP6fjl7oxREmlwFME5vZtezx8DowFySPp/EaaafozqGyec7KdnmqiR1aU515kg8z1+fcrV1knj40e1qAzzyl1RSmmPCgi1QEQUvJ7GBWiX8Ww4lki2kXfCM87HvbMcNBWimKCGdTQlDAk9Ovcudg8XYrXgIhsKSgonzlVnq+8ZliWrr2R8qCabRpMQoML818O/UEvqJ/4JnlPP0t6E3l04qlOH4PSGbhvP59/3AY57tP52cPdf+LtffO8xsT2PpC5hXnmo++K/epxnw2mXijn0mvmZuoIzzgdklGZ2zNL9pQn+lNn5nPRNbsUIamZMEADBBOgMgRbiKDGy20e74n9sVP+cHniitPILI/giASzyu4NYJ2cY5EN7/mGeiYg8ZRKqz9IPbDG43gYTkaAZAtdm2n/Lpxnveyd0bnufNlPK/mPV/AZaeWxF8rrZtaSoiOI4/7xlbFEA7wKz33QbaO/xpI0Ah4tl0mWXO7Z8Q06Q4dJ3qBqMOhaZzBSpQ3wAJrQCVrZPzFVFah1RlARHGfBCgjuFaoP7Bl5kaN4c086CB3OQO0KeB19LL5y4t6Q/kaHnJgRjc0yK2Kj2QsZeVBPDHNiqP3tVxfy7sXwrD+TF+cLhnCIfyEcuVj6a9MorjcvPv+z5sqr98pen9EUefmLDyAE+v//e/vOBXPWuR8213y3b8amj92P2+03D9G+99AshkjRRAcqbnnfbWZl8U7wwZsm68ERHQ9hoDAkEnCgSV0OsNWaExw0Jn+FLLR+Z5c4hhUawyrpmyI1UkZp6HNuzIRRMprXWFRkEyB8v8H5ACxwSi2XnITWOnh4hf8HIiwWA99fWTCD/or8P6HSPYz/Sa9sVR78wurcJ/7vzGZZ1Id4k2dwVikr7PFx9Ji5JDh+ory/kaPDxz05/6wn2gvkW8t+k1y3KDvVxWHCET7i7MbYg0+9YaNEbw9jRIZj5vGmdOqNh6TBcWNytBEFPpRfGf3Bicm5dZZ3iZHsmK4YbzjcM16/Lzj22bf8TjrYfmFepGf8aMepL7i7/ejZ1DY9lAfhiMDE7XW/8pYs690tUfvR1tRBBY6MhRkRjBCMB4YpkXUkAP1kPadjk9Ph4Rlp2cIz1285dkzux7Tej8F05m86/r6opPDeS1/5HHrVfhcKyXuYqfiB7kkELBwkliCiPjat0Wum9X5krMiIEjggMVyA36rRTbkezvqTseCE5y9Pffiq+kPlZ0e7cxnLvE0nJOHDZ6xXZwgWV09tLRVPOV7O97jR8zNzD82iEyczb2O1BNXgeSNzjuWckIVjEBKZxvr4FT/M073nyv3YmxXB6+LaqSeUzmLJ+8PxQRJ8RI4b5dnSyxv7Tr9qtSWtZKy4hVHoEUyAjBLr/cS5y/8iz9pv4dybbbwpDR8yMZIqAZNE+r7fT7s/fYFXLH7u8LGr84JUZWYVeekcgpZn+2all1XkHNpyzHOzPHvIkn3GWdaf9ciWLd+2+uAgM41XZunK1eHus69x+kdsQ8ERGYdsrTbGzO9dsqF+wulb5+Q4T5D7Op6bJtbm8dnEebNZ9LCZrP7U6bT5gpne+P88cTk4+39lyZ7Xy2dzUBW0XP1h6rU7sXf7tnkPz/ZdH/mSR7BRXigyVrJN9mSsVjgcqkADrf6yZFlLpiKZOCoomuXG7sJzne0Rp1utjpkQDkqcR1McJnttbsAdpiln/7TmgDbVNaV9Bfkgw2M5jqCJGtdjqBoREaOkuLegQ32s2UXaACRbgj8qxwAFpDQPtdVeT6lVdS8+OKMZUDH81+qWmn/4+s9N0XiScr/1vy/J1F3mP8NXHGfmL674qQkqYhu8e341DP3fPKzqrYGt+yOWBJ0DohAj0S5ptcJMBREHIMqIaBpjM2Z5z50S9awXZzFhess7aOBq45OOdiPXyWjM1QBCnXRcndzjYkKaTYglZJ/l3wOUcmSBtyYPMhL3I3JjQIPygqXRqjiZgArZyjEY7VWg3puS3DSYqJvm1CY2KeGYkGk86gXfaywu/+hCWW6bvWh9ZMafGGdZ9zuuyfgwM37ua2FrUtv75nT3kq+muSKm4DACgCYI+ZYNLEY049S2R0fykOddv2kYF+eD4spMnHGYHOvbclzlKfKPeY2ZuizNszsvj/pvv728v9hk2LhEQ8l9Xpy/w0xvOMY8+gU3tdqd7Hw5x9/xJo8fmurx35Hk7iWZedxJO83zPneIfc31kDL2oqCww8+0F4OHv8F6rTOjYH3g53eyscfSGQZi0ZMje0vkJs2VpYID4T44Gq+t71kq3mCYJZm6mThtl5z3kqaZlVOzmY+fULS/cljQOPEz1ew934mT1MHNM/YAtBfnIPLDgQSW61lOh5PRIefATK47RIEmmZZKkNkCnYVnDAOpcx+JGLuu+efrb3pynttne/UHt0zjIXfJuWxz53K6mXzV0/LBDV/xkp/dmsfpBSY6uGWaJ+2U18zra8LnmqlLfjez6dbq8nkfVnn40Mx3Am9i7jBLZweMLVBakW9nOud8aW/lzVtzf8MlZuz0D3aX8yu9xsndovvNJ3uTp+c2m3/KhviiG/qWVPHWYeuNTw0j0jawlKYQ9Yi9xw3Ds9+2I3jnTYXXPNdMvf6TyfLnfyELcdgedOa8arovaJ74Z793yJ/dsW+xy76NlgxDrQrlysGGciXRkv4RlTzrXXlc7ZLPbuufMd4ff85L2svFe+Tu3+y1npIV3W88zp84dUu08tH3ITviGJtnrPFWuRvJgP+ynzeW2jdfJOvpILmuQ6FAI/cMr0i9ymMvtXKbTLqdfXU7/MGsN/n8I+R31xVZF7PPRBp2oU7sh8Xics9IdmUO2zhmmSzQ6AOIoH0vMLYrM4oW+smKUujfyFxqsv9B14RecuSABL43ZACJEjTsAMAO7CUO2gwcEShRkLfQ4Vv0rz0kLUXMdahD7DU+W01gdBC8SMXeeF5O4jxMrPc7QxOh2RZq/ddyLkIHnjw/dDW/wBkhh2TDfLTJ750FERO5/GuRcPf3Re/a/fq9cqv/DF+2912T9R5AygRvbcQ7KmiQnWDY2ccHjeCBzwUsBhK9IBPoSiTf9/aZWmuOxh6ihe2l7UTNNTDrI04KyzLmkGROeLVVCUjlNAPibNgmOKXIBzRIiBQ14/AUJSeRjzoT1JA9HQgnKqaqTU9Av1Mtd5G6Bw4icbQx6FfI2jporpa07Slf8YGCsJn4xb1DceZiU3qBGNKaGK26RCfyzv6ScU7Y0fK70iCG5zxmayg5uDa5abWmlrL6SZ+TY8qxluSYbfnIfmCLYWSNeC4vjILsJ3tKx64cdambq+iy6YpSFRBE02Ne3PGf89XAZH/rmWWUTxAKRtb6475Z2im7xgPzcgzSVHFE1eQb18b+I3dh0sX3gpHcJvpCZnV8m01d9OVQOlT2g8wcflCYLORP/YoiUtPEz/f29X6shPJ5TYlPG1798S2/2H7HauPcN+//1DUeypIwloCmQ9AdEH6UP0m3IkaBYIusr72oPBnB2MkyLVkJMqUaaJboJLVvUpk4+SdJ3pz3wG5W7I1N3vHduTSsCRueSfeEUWu5qPzuZ+Q4iZfd05NAlM9Pkj95diCojAdaWgOzgzZjPvDpf/Je+cIn2MBJgkhUb3uDxE72/8fPOuFplybBIx5hm08dl6A385pP+USUbblxg333QsZWUcAaL+6QKqtCK6dSgJ/vQUdttue/6DH2g//7WxwSxZDrTPeia5aCs3+SBQ96mG3+AXqCubz3u2F2+41HNT+0d2GxoZLzTtYcgdU0OPgO30CWg5iD1dbMTs10diwsf5hktfmnumH8/U+0m2c+RvJXaJvkXuvkv2ymX/5hJf92ypMqSn0ga0u2eqyvjTNR0jbP+rJv08iz7djmPYkIluWepqHc0zEvmBLjuw4etZD1k3jpHb1y1QDkoDlAzvUErkIGpbL2UWbL2EcNWDouAS9+NXJgIEqbE7yScA/L0pJ8NZUApTm5QW5p4XTjQu7d7nDekBIDc4TueMiqrMehIfaOqBVUUOZuBISCncgZlAZs0ZA02yRE3oXg9UnzgZOmk23dW+FGq9WUegVakxwuFO+FemEUNThn0l2ed1J2drWuuxZCXPRdH+g/oxv5j/dVcsd5+zEmjFSetYchi4TOQtY2WA9SMS6DzpIsEkCqJ8Sg7mETGpF8b2Wei6oxuUmp2zMEI3VGi/gdst6I0M51/Ih42GcDko1T9oxIZ0JIdnNsPbMnsAoPBwum5k/TeHOqGrZdNgCns6GiiMjKU1qaIikoH1/YmOeFJj+M3t9/6kmZpOlb/vz9f+1tuf2X3rYd+/zldi8YDNNAIuegcGqTYRDkXhSOqKE0OMqVnihQsTxErmiMohd0wxUP7Q+7t/3iY5//vnf9D7f4u+aXgkGckrInx3SgU7AUK6XccIVGawi8MMins9c1ki7+3UdPTAN//tYPfPoa7wc/vtPv9AbeSqfnK32Q7IlA54wiiv751ov/rhvHX/2hHFGMCeHenIHCHIp1iCwJcUmOyj4EMy8llP3CB/5LHob9H73nY1d7t2z9pXf3L3fL/egHYGKQqNYJnyFr8+UhVrguAHgwLuIGa4VPFB+QfTM0SOgXFI5pm6UX+bwsH/C+oewHyh6WMVtTvO6+rAmsDaAvb/tiPG9Nf/6Vr/+ov237vL+03CNnHCTYJRKmOl4YePm4+frP6tUqMc1ZkXp6r+X5FQ4dR8Z2GKyAzwm9u1hsTTUI+czm5qbtIJY4Ou95zfjK5Ya98puqcu0VGCgFEEByJi93MzO+QqytatpUi1qtTrAKn2FUYVlpZrJhu72+Bb/cWPzJPbKWvq5O2xZRIMFCNSyGw9BTA11mK7nLHPTfF7/86ZLkxyxv/dfHXpvesuWuO7dt5+itqRQ3Z3PJj68rpcoZzMhayCoh0Ww5UYy52FEf10A0J4775fcck3nBL7e8/f1/49106x5/cbnv95IkGCYp5MyJkil7TAFUaCuVogy+WAlw3H6gBur2ht7M1IQlQ0ilofuNA+chezI52Wrk2VcrdCAqqaLD3SjpI1AhwShnQQNmzMp4X2VQmwBNl2vWRO0EWc/VcFpnkkBiTDStnBIQ1GRriRTmjdJ8ooSpHAQHYTaAEqDhQBmGQ8WBEk6iJqyLQyNLoGs4qS8XYtzJ0vuN2Bb8Ne0Ln1Bfky2swol/+/2bbQmt/bkbWMXmQJMPVPgtcSxAMUZEnLUYuSP6mZw7mg1nLLqccz11Mz5zBA0SSljQjAJDBmoGnO/hAg44cQ2jhP4hNh644fCeOgSv5N8KHki52OAE0YDWPtHqzBkWMhZgPNTyJF6HDIwzTZEOrnKwlvBOJTpk1mQdrxazbhVdQ/MZKpNU2ISjsMpcfscv93mXf+YbHsqSXNwjpJtCUhHdofGNurRnSt6/VeljJ59MyXJ8Lvo123b2vHd/7GveiPBRNt/41EHsowRR6MpchRGjRpoUyjuD704MQ5rmHiJxyCTUqkEpdZxD0RK9IooDOvQVSSUrTV4/7h2uP8B9YdCXKwqJkNjVkjUpvIDGcv0P8IUpkEHbDnjG7/3E1ZKR6QyIAj6qpt6Y5nMlzBYGmqCTiKCWcsaNA+zsL+Y8F/SDGOlGdQafIJq1DhRDiRcngggd9lIoz9jVENWsEv/qM/QUSVb2hBDQwBalwyEd4SXnncoh21rVt+Kn4RxyvWcBlUlHjXqHalM1XDomcT4VquxCQwnr/pJzTwVdrziPp9ijDp+2jZpv6/VKEUaUuS8lqXEBBgq+Ekd4lLlw4Cr2gHIF6ijbRZUOWiH06YhAGEJuGBeAllSZTcPRIBBRyXHIXYcF2M+J6ASUfqJujzhk2sKw99p7+RxGnJQsK/KeUokW6xIik3BuzJuxpmW94frp3EaoSO0zKUw6Vgovz+eeZUU0t3QkcW9JgSBGiVV1nqrOve9HEa/NZW0mHXTcnFnA7Ka7sJuMCAAfAOQQRdWRiEJABUu1CXBuLPrRMSn6TjkXcbsdRRtupkOdmCbqfJO+LPiOboKw6obUMP1alxtaZVoFionG+Oyaprjdf1A1/bf0gX779S8rxznv460q03LCW4IGoF7wI3CC5QQgoCcEFIxRaCbmUDJruu1djgNtnIuqObGRBmrQ2SeZzBLnd7BgMW+kJVgMsykDgpbcMjeM2ioRUhLBDllyAyQaixplHiw2QG6R4iPTglFT7jrLngQg4tjgMGyNsFoCbw3E0zB7QC0r1uJz2Acts4iRAeDIuAk1oJEAi1Z/okYJiJ6Soy500Rs2FNbxJ79ws0eCRQA55H1xkmK4j5USRXOpqij+jQl5hYKHdMK77v4BHee6zQ/l8d/zsa94qiCbKDkqSUl9m5GLDEJfPg0xZkxw72rVKKeuU6pSy2PNagFaHbCWXHT2k1lCGRJEsJfMJXgPAgA4T5aos6Gi29x8lO+lRGGJQXd6MXYUfWsZPXOjE7mbeldHimdMBnNoIqGpLZ+J+wbWCh2LDLTxnq4ioABcIQWUXRgxdKiz8ygxkOWQfEZzQmGhOJcgCGy5PnE+kCLX/6u4Gu51KN+1SmQVhRnS4QLmn2Y9MnyMNXBp9WKlB5nyzAEI7H496MCp/wYVzwKuDA2s2elxlWQ//CCLXiiTZ5qnkFx65YaS7BqEuN6ov+r7I5aYsqzZaoSc0YJG0cgxGaWdYdEHshz1iAFRkgZ2f5toXEYMgckCBV+uV7RFodCqQVhdg8JIe7ieP6/7Qh5rKE4L5Kpl1UMZcpRxvhSdRIZVZl64fgzYEtSCdcBsPnP0TKnCysmiEBEFjTIzIdieQsOdijxJf0uVA6BtKfmRZgxQ6WjkGCHITyFOh8Fdo7YhCOuOv9En47yntBZyCTH7UiH6nE4G1VpFZoeKUc+YUoFaASU3TsQiOgoqChvNc6Im0KRSfQmIuoTKlE0sskNHoHyAgdSi/Vuf8e8Bzx75fUc2y+ehTqG9uJ3T8LXWBoyCsx5bRq2IuEM6jGmW3UpkGTIWzP7kSUJjYFniqRulIyu1oqwOvYFyxxGiajPSV1oewpqVOgjgAPSHdDMP6VDCyDqQQzraq4Wj8lBanB6NoTK0ay0eKo0SmUpESPpp1OEUNINNF4XMNLCgoVDJjSYbGtEeMgdsAJ43jUwwGoadmWrZ/iC2SVopAj+zmZtghw4OjOr4WIPljiMPmbW4Bpb1ZE+0JtezwY9s/5I/erp93yf+zoMwXa8fi/nNUA5BRsjhWZThIBKHzwKr98LiiteQ/3f7MWHGjTqMW4PDhQXnLno8N/B2oZ6PqsSgt0jgkMfvioJO5Bj9vrUo6aACpX0GijtiYJaT8xOtwKLC4VW0YoESOlQtUabV2NQniWlRKHLRc+tGiURbNCJwgERV1cZ425VXLNe1hugfzAythjjyDNZRHrnkpLmWI9HvAIMFjocMATQ1KcpRUMqR6N1YFQ9EdlCvBiRW5QDw5DqCXuD8zjr1aPuXf5uZ7fNDOe+k6PWHFgSdiXyPuAIdx19FnhlWVqNeo6YOlIaPEadx2QWnU4KDEbgE1K8571n2XR+6ysUrEY8JVoVUG0skfYXzRz8PhhX9lcmxCntBeM/F5zzd5nTwGiRdduEZ9u3v+ytT3Jm5IAiQ7NzNmfmOzFdLuxD5w7OEkxhv+gwWjjpkxl4qWR/QgKDZwuvBdNHt9jmRW2Z55RAw7iscDrKrjOg6/MwQDQrGDjx7DFkfefCMffXLQUo81Dk/3zhi6lD1feCDo9zNfRmCk1ZnDnXsBlyGcFAIYqk1h0ovdL3EhgBKjtkuDLFCmTsKm86BK9AixLpbQx9qs5AjIDGQn9hn4CfEk5ZAN4TBoO+QDbtv1xZ6wDoEjKxyDgH9EKSRGKwpdVKMTn0S+XkHpNqcByoWftsH+vfScnBRGYIFsCFgwhnOBXQ9YXunpuvQnGe0u8QyK3o4QPaQqRcOqCjJB1FSqPHZ4hMipuZNGl5g/3Ec/ZwGs2MSFGK2ZbCiaLqqUv5ksl7IgwXYaX18lL0hC0G5Dkgoz1+F87OUwWxHFWoLq9xTvq+T1mgqu3mPotPpEfrsjebRjKljLodGp26xyZSuZ5FRP66f7N6QK5AIE9d74UtPth/89D8wjWyS3FORHsPhkOoCMFY1yh/XGf3id695xakWzAszG49mv5TO2g2xlsqj4+MYvs8tzpHNV89QChpRN4whkG9Fvs6CpmVanJJqGmVGHVBOtFFIyeMJXi4MHWangBbD7zI23T0ySSCahcXvDyNykJX6T5hR0sn5wK4dBAW6ryzJsHyYs2usQ4Nppn0oR84KxwMEJMuuFNhT54CfKwXMmELH5Q/0iextHGgs0MTnubhyIIcnmQVWrWbTCWP54TD2aoUGK5CBrlV825JlceiGCd6jPNdnBsWRen3avP6i59sP/e9vMLUCM/TCYtvrrHQ97WG7NYRsHtG/HHNmGlx5M0TFXfDix1pE+nCYKtuxxPXx6j96FoIHc/u2vWZ2ZorBQafbH7Gb4zXIbHBsMhBINqUO5/nkdSu5G3V4OWTZGgPSQKTNuUwF8P6SIV0HZosRIk1lr6d5fy588RMs1hNKrzpjkzPwwVvvvme3X62E8jiKUcRZrQauCkknZ8u2CRzN2FhL1uyYLbNlItDcvFgAx4iqFtDO0CvJCWVjPxhcjlkaMANWSLcr7Fkt34LlHiU6IGp1sDWkHdARjMJ1XSyZcjQ4qeisKYBG0KHD/g5lnaRkrOXrOEsEmwMGDqRVQL0A7TQ5u5FQO9ShEYXF4IobdElWCKz5oLfCSErzczUjWW5D600ZM32SMfGyMclvs6AHBHHnfI9n16pkrPY1sBjAJoCGP8przclNTjgu5MJZ2nOXWVmYN9MbD1ejhollr0ukCokr0QgnnY8KV3EhQXHTRg4GrqjIYW9B2TMAOACXlutHxaQA0VQf8zhggO6259ncLLMv3yksYtamjPY5W4DxgOEKZweqjSbwpoQpX3rBafbdH/myd8yRm7ixEJFSK6UceJPXzc1OWaDuDts8wT7BZReeZnENKtyWk0EqYpYAtoABMzyU5hApwvFNTbTs8srAG2s1LbMz69QzyVBwMEqAqrkim25+206WKqNKxv2Bshk233HHHGpvvX27RrGS2TBb8BUwgewM1El+FvD6YSDhBDjI66h7Lj7nZIt7hsxR+05DzVzwezh8OCxxIhhWfe/Hr/aOOWqTvWPbIkszauy09wrDBGdMAbujNrFu8ppXPJPlqGp9iplMv4OZrGWWfRhQAM1knfYPDJQYpeFwmZEzHY6pEi4OmDb5xFwp9vUXvdC+80N/w2cDxwHDurwSeyXTBM7DOEl3J8lB4wzABNeqHGtyvGERnGyebVo0s8953iPtvu13iJ1ZMrObDjbNdeskI2mZS89/nn3HB6/0jjxkig59y+3beQx+FnsjWnI6Qp4pMzoxcBe/7PcYvHBGhaXZjFlxVJ+hUN9lF75Azv9KR8zp8bmVKqAKaFFDjgFo0FRddsHzLXodrBBgPRPtmXFvvfa85xIE8K6PfIHPU/sfhd16126vRGwSbCLvO3zThCXCWF537ukP42AeofnDHq/j1ZJpQQUVzOmy/xggtXsKudcSoUqVzE5N2H3iPG2h1E9zM9MW++KIg6e5Dy580VMsjknUaqaMBmBI0EzW9TddmRRdVlTD0BOEhlXcWSIZQQViewgch5qhY00iW4fuHEpwXqbyP1Gt5rIeRcpxrMOoKKrPda7OmJpRTcnwZT+oPErB43o7fvxFLy+GdEK4GFKnJAnJ9GD5CkrjzjGSxcMlkSXS1WrNnPiszzeqm8/9h30rYw8tirhI2rvTNb0L77eu4wGgLs12/I/q0hv/VoxjGgZ+WqtVk4mxenbUYbP5+998WhFFFWZCMPSY0UE/AUZnYedWcVKxGZvaaGYPOs7h/Guc+6IA3WCRdP3TG45Upm1xZr2VPYR4UmzNlR/QF8A8AXqJvuOgyigD0OH7gJ7iz8UQQqMEC7I5Psf3ApRQa+gAqSWcs+aQWQnRcUjx4QABKVWaoYTve484ImZoRebKcOGIuBU/54KWRX4pKGoqTR1fywsaXdDfAI4OgwqDRIboFNFxzXz4L7+hRtNBxZWSLGO0hnLLhS95itWmasbEC9kUSpA4Du5Nb3kn72dNDPy7PvoVTznHtD8E4wa2Abz+/LMezeMAYTdw9wRM2eDNQ18O14nzJkQewmEgg4wh6+AxA22MreecF3YU9uI7L/+Cp5P7CmhIHa8XKVgSHTTF0PAl5z7TItjA+bFWL4YYaMnMkc2ixILzUzi/Oo+clEEr6PM4qiJDaiBG/fIsyhkipWSJzPs+8TUORpIwM3ABC2Bc7C9kbmAxHzFMFSOtKUvBPNzzeNA3rzjjJIs1uyKBS7UOQtWmmTkImec4jzfs7ePa++hf/8CDo8B9YfnHRfNq6BLJdB9n2duyyFKaWl4G4CHtsecClo8gairhZtZj4PDej3+NHG6I+DlszR6Nit+98TVnW2TV2BvsbXKWThFfykyhc1Z05L7OXHqUMh+Y933qai93vTm9x4bP53XnP4dZ+7C/YJqyv+Bb0P8KxTkSkCPP/hNf/JHnU5k41jKyDuuMBBmRNeFcShZ6SorIOVx89h+4qQ13TnA2qbZbXLmQGUiBOb9Yh1T5rNE7tRkDSTwTlmDJlpO51+faD071NciUAWQiwIgzUwM5/yrtTeoqLiQbcxkXs7BAyajJ8N/v8nQQpHrzv/g/Hifpk7aCGygzm9Azg3yS8s21CV4sTgpcU/hAQPmedt5N4cTmk5+XZt7m3fNLg3vu2Y0hELn6LHAiD/5+7Pjm3rOsB8yo3v/vft3vf917zb0xFP+2lOQ+yCG8f+Vn3t+52vtu+6x+wfXcekPU/ew2+VcWhn5SrUQpnNDRR2zIP/iWMwosPDS1S80hLNSeGL5Bd4XRDQwFBlYblDjwOBHP+v+wTYPRGJtWVBrkpxfv4euUZbfFchx+R0lg1/8phxg5ixI1dCpbNk/i1FMBRgBNP0t1WHBu6FnF5QyNoerUDPle3ag9HpOZmK8ZBMrBOnEtGYKDzOYlVxk3SEzHSHJdUM0HVfam4IixcQKK+tWZZfRlDSPCBp08NiKcGJBuQSVSZA9Kg0Vs+u09LPuR7kjuTUsyTIjvoX5eotUyuU4ANDBTAbQQhk1ZoonqNGrYoDSQiLJRFsPnOX0ukr46AIgCPSYYiWq9HBlRSdIakb0e9wEce8gSUUOPKpo5ITsF1xcY760bMA/pLLUXhOeOyJVIN4BBcmdIQ51s1yy3qjRNmbIiBJTf6I3Kv/2VfXSiGaH6hcq8A9KLBjagwYMVNrZrjpcQFC9JSQnFAeZIno/y7/XoiBMzue4oGtRht8NMPZfnO7Fus0pAk7PQo2GFo8d54DnhvnoILnptfiZKTuC0BDLUwIEXfYX/enCi4xxPIGoRg5iB0o3BiVKKxhQjMBWeB9Y7zgHoQZwnHF1r4mBHPaX3kjx0aeqCsmg0MwntHZS1cN+xtqCbA6eB88Tf9eaEyjMAFAIIOta1o2dKh1SSFcO9znFA9ky12mLmgn2pn1XhWkG2OpRAAmsY1zE+cyjBMsgsQX6qZe2U/WBVgFaQil6rz2AKe5Ukx4mq5GId5FmX9xNOH/tIe5QrXNOkv6pVXQm6qeso7rGECFVe/RllClmB8Bzjuu8pk31BReVx7iH0IZOB8hU6ml4TKkt2yCZ1prVm+UC9YOLea9pwip2QlaFyniqwPvHYm/Mf/PiLX9q1dyno9YdhK6fMMmjGKW5j12o8uKhBw3n/1/TbRwpT+8tCWHv/77EHWvcDLL13P07E+xUtLO/Az/V+hacoG3r351ju59y8e3PB3ev3qx8PeDKhxIZzyobSAbasZXuGhq9EiI2Yj2VD1smwPTMisoSj0CxI0Y/Ui5HNAcgmUTXU0Rnn7FBGoEJKfjnCto3KO5fknhxkJNpKjUxZgkAAA8GsWCI+IOzqrTkuQJTqWo1NskB8dUyer6Uh+RsDtIkERMiSlNYjMCoN3VVqIJasMMPadbMP2vQFBFc3m2VUGVCjp84ojhgazw3peegPgfVbqfjR8DfUzsIYgtKLwDHmw6Hcsymuewx5TsweQUdH2KocCxkiXtveOzTKfj2kcdI5m5CPsS6voS6XGE0Tjekwru9kzsVosl9htGSKGZkgTIxGv8oVx7kseS3OAdkQniueD4ycIlpRm9VyofI/5iqhjGdUlCoFTp2W5K0Ro/wYTqjIRkPlLENZj1ozWDPoCbNXkMZs5iu5cWi6S7t4Pa3x9XKPFTYOR9iQtUWH5VSeSzE11adKR+zJeaJZwcrebeThwzl3FudpawBIQOkHf8PhpXLNvZUF+Zy9pJgan9nsgo0hutkapKDnwQDDci6l1pwFlxvLpCTyL3xIf/Bc4BwplkdW+IGywwO4YgqWJpER1eqTNL5g91BRyJDOmU7bKYb6PmbpUjfkm7gMtKqS1rCPjhAVhjljJq9s88rvmNCm0qGLU/LkWfSXd1GhtdXcwOdGxFiuSEvt5xqyjOTU8emOlElBrVMUun7J7YeMi7LwQ9pxnW1SMhCwHLBHw+vwmWSoWKGnMj0e0J8pSU0Bzaea8HA4UkomW3i95jTAmny/wsmbfC1otxD4griYJLhOkbc5sU4rDA4YAxVVADBIEs9KiDrxkDBZJYlUbjAgZcRgAICEE+21lW0jdRcBz8eoOCr1YqqmVq3Z4TCxubhDnbeAAHxpSR21j4NArkK67seeW3Nv57PWOd2vMbcH/N67b0fhHaj06rn3HvC59j5+NkLNr5Fj3O88vPt3ZPebBnkH+Cxbzq7cp6Ny97cgNBeaKiEIM+sk7cQCRPMQCxbGHCgnCpB5CjqwVuHGcA7ap9F0uoyIsGBoQJhNDBnx564UhW8MKIOBGxsWDgwRGCNpCuQpOzP06YGqCas1iWAnnAOqcJaASEsAAiYOMsoYZZ2BlA0TFJzc74PxQf4/Nj0l0eC4kyvvcTMR6Tbos18B4k1kFwqUqDAwKhvA+AKQYGJmkpBxbuC8cP0rNe6ejYnpNCWcFLXvwmOpDCUQwNhRHgwrmp0VFOir0pFqGSjnkO3k3GFkLu8sbudnleS9vpNpYJPdd5LmgWY7tYbS2JP+qgZm+lkn7Rwpiac4Azgp3FtMont5NoLhkzxWAomBXH+8smLqtQlXTtWsQIlXCzrnqDrF56QIJ9nXbh4IgFaUZmHoKqN1pizO5POTz0c0jEF29IWxZkI598bUtGSHe1kuAodYAanvQUe5BYlADBX04CbmScEj976/vI8GFQaP4phj0+wlLO+8jYYCAVNVDDGegc5xDSi9UR+fkf/PgaRVI3IK0w3Y44AQIccSqpOU1uCYQK8j1xBx3SPoQRkWBjIHqCYShxQvmzjpKUkvhyjrHLhMSZ4b6DgA1goCAiBIgzoNLrIWMluniZvjCR3QQAJ2ybR9avO0RkGT52DuGD7WnuyQ70UZF9cYopyIshXJY8FQvoEBIMtmvsfMjsfgfmyyNFxCxnF/8N5Kw2eQxQoDS2iFCxgqikxFW0WeBQKYsBLx+vBcjWPmgN1WpdOYiquQ+QiC1khDTOfqOgwMxmcO5jPAGkMVzPO0VIv7m6eWgWxOgBtITuVeyJ7BeWJ/KuOXRx+TurWJkrxF1YO0Cho+crFQHwgoCl+Zr9mQBcyO6V3MmwcnhGl6lBzqE3M0FuPNqm23A1upVMQxJ7nj8AJs1B/lBd7+aK797a9dE+h7o5/dpzX37r+uZ9dkQt6IGOMAY27NiCn33vW1A342mpY2+81D2TK987z75sr7lSnefaVhB5JPeq4+v+b3rpbryA+R/cAJ5ZUowgCfBYQZjWg05BkVhxJhLu8wA7NoptcfR50fMOXCkEJeASkyAghENf02Sjmo5yvBLCJpnWhGlGJZb8ZCbi9so9PCubGx2lBdGS3fKGMvDJLOCtTIOg327gBRoEmIWCMKL6hyrUXNhr4Pr3VlvYGcF0oVjcY4Nz4idL9EeaHuDiMBsAFIEiErHFpHKVR1hsHqkJys57jfNcP6CqNj/BiG03Plk7gnRr6p+kooG8IAc3P5yvAApgkYYTTxEeUT4upIv/Te+CSGVaG7UNWGxVgT8SXnjnNEKcOPKkQjITJFsx1ZDshAMV8RMAOqKSVWYJxB1B4XHBDui6FzrDGqR+aJOTDIJOsgqmZN6B8FcgAY8sHKHr0f4rzw/BvW57OAEVRS0oHTgJrQnk1Zk/cVMILPRTYHww0uwMjWJPDYzr5FQxwlSij99m5mQwC/jMlrMFvWkwwJgSmDJ/Sohj32j5hNAeEHeDICVkdoC7XbRAKVOMvl35MEoqSQi4/GGfTu3X6LWX/IgxntA7kHVJuSKquYohdknH/DGtUpfsfZwl5U6noh2lpA7zrzMjq2QW8PHVetMaeCbH7FOfecwA2iM/MOtLz5e0tao75stpABBPtiyKz5ObH20/B8WN5LNagiK2lAdKdxQAKMC2BdkJUi6bHf0mvvoONojs8Ci+pQZgXJoXFNeL4o5VHsLxmSOomyHmnKY+G5ptgfBMEELNOpyGTC0jXXha+zXxn3d8CqAHpjWJ8BCAjigoAgBB81DCaj3AhWjWZLnZs4kojPcUjyWWTJ2FsEEMlaUTo3o6AjP3C6YVrqrEfTpP8pZ8k4CiDuptocI7WPZqPK2BFyQEk2IWVcg4gPZjQPCRSULJ6q32LqF4fL3EyIuIe9RXPhS55h3/vxq8zCUgfQSwk2i1xSXjl2Dj/kqOXNSKPF2vuHbt+7VGfv01nocQqz1r9ZBx+zI2qbNZnWgU7HDTR6o4pfMTLy+5X09suI7p2tlOfpmVUiwtWsyR7wO/X4o/+Xv/fKRNHR7+tkzgEJn7d6fm5AEwObEE7DBD5EzgAlRskHBpcBgzij1sRmOheWUE2gsGL0ADgjYBiZ4tJhmDhEFkZ8LeruJeOu/JTrQhdyqSOjhs13jqccPqUoohts5GIM6/oZfq6KrCjtVLSHgKYsHIzn56MyBSHiGAxEo9Zq2u4HVJZipMqGr5MpZpiEuQVPmXo1M1tRBVBZv8guxlE/F+Pa3ns3QQDIKCyDKdXugTEu8j6fPzZh6ohXI6jPygbtLu3UzE7uYdRQihvPQbjhuBgRy797kjEpq0hTWZap/WO42SPMr6AXUChEnVP21im2oi9gK+wxIUpEZAoxSew3OlQH+MAXDGlneS9/h/5UB9IXGUhj17HZS8eI/lK9qaglxbczevfxHNC/gXONhzz3WsNlWdwKoQMHLLsovEbeOmR32oub0XIVh6D3sJnOfiLh3T026ANGxSqRQSeA3ghh/wGfO3oetalNdJTo4+lskmdaUxt43vicCmYQHWACiFwAoxBQoZxLnR3noBmBs72hwAz2zlBCjUJmzWnaVeecK4gFABxrAdBZhFll5oR9EkSqhQQHBgMM59QTB6sl5HFXioyI7sodq4TvdLUIZDGqBJsn2iONYwWhVMUBgFmAoxMgviXTAkpfdWdXLfuP5FsE2EXuJXtMXsaBWiYCsu9wTKwhoJGxNrA+yclYVYADM0Y6BM2qq5LFIPut1OvcX2BOh+giPpN7KfPYp5FPNEnRVYCFfB5kGEhgbRXBhiZKTrZ1n8GS79COagb9kUAlslHtK1bYD4vI0ZhTKLPg3KlxEg65QsRdiZbE2J4ytfsODh+imYULRW0ZixPzBPD+FpsE6KlBjzefMx9o/FImeFkf3liLTApKlR4U/jIEqNIC2u6M1vJ8VcP9Xq0Tbz+jbtcqhhonLeFKX6VBL2nUCfs0a9tGpWNSCvsDs5SyR6EolrXOzjrKEa+E7rhGdDEaurKuR0Pq8wMcTvk5dsThttrTKSevV1+/NiuzI/bcVQfsHTAHtP9r9fMZhGGKmuSHcECYj8AsDRZ7mmiJDA4Aioio/zK6AvomXWIjEVF9+fBTR2wZkC4HUXUqm7+r/rhItN4swUZrYj3vExFaUGC1EfsyMBZ0LqEusGq96eZmOEUvi1GNbQVNzWCDOh4wDAxTIuWwEZUJICVaR/tVY3Sk3IwYYI0HvCfkt0M5Aw38Sm00NAleNCLSBipFgJNHVIvPIT29611VmzprEyfLbP57uaoFs8yc9gmg0L6QGhfAchHdMjtgKSI2jdYcjXVUq9Bxg/YEoU8mRhZOHMN7FJmDw4JRxvydhUNvEBSBMBfRPAL3njg544gjgVoDN18shgXPjw1p1Tkyjco6NTrDBXkGCeHF0IBCNgPCzqCqQIXO0jZmj3UYNwNnvlHfN1jCUCgHjv0aHHZF8f5F4YxPwci40ZpS5WQMaLamzdLuW1hiGps+mI69u7zb9GUtTG18kFKuSDDSb29nVBxBitpanfaXz8LAbm76zO7GZjYQ9NRp32G8qDDjU4fSKFpminWzvOeX8vpYMp+H8jq64ggAeoL4Iu5xEG1kJo5giP1Aq5o1zNorVWauVKFhJjBgFugpLyj10UDqKSudIwgoe0a1aXDfEkTAyB9INjkeGurkWfRqvMfMBBB4QZoauXw8dNQ9GVVqNZANSfwMBhmMtQDABWaQotCSL0pcXqDBG1gCQNiJ0tjKvjvpkOvj6+SeLrG6UMVaB6QZASOCNKyFRstxQRpH/qvXnVsdKgbQQ8dzMNy7RALapuzVBNWA0MHC5ZyrDGx83gM6BGaPaFOO82fot5bGF4Er7gWlXTgP5jOIBUiNeIFInTL7yaiMyLrF+uGiDlcTAGRflTr2RNPZ5IB7w8cYBDI6MKIg6ELLAHU8RLq5HBQeTdUuS2RVR0kngcjoLfJiPZZsGoQ54sMuetkpmBcw3o4lGAUKf3Z7fZIWYjCtnGHZf67FGxFErnUIpZOypRG3+2dARa56HpRFdkZo/yzF8Vg5Z2VG/GAKDS2zgP0cQOnkYORHkgWZo8jwR8NrIzoPx1ztrekVlU5E5wGKVUl0lT+n5yD33prhuv2ywgOckDV2JIOr/YVwlAlhIhqvwTDd3MwUHRA+9+KX/4EdcUblMRdTqT7JIUBkG96q0qQpVK8G8xn49mKPjfIo0j4RBO+w6VFGSV19F5sP5QSN+lUeGCJZKH8gC2mMzzCywqIGYguGkgt2iFJYrIu54jNajNCXIb1MoizFDoaKBiqidaLmGF3nZCdABFwNGiwpwkmRfqQ6wfOAaivOkYi4FCijGWVMSFPd2FmfA9eYR8Jr4BjhfBTi2mQfKMiqXPcwtshYkLmMT23m8+h3lp0u0kBLWXZAvSWWyKroi03RsbOv4FVZ3sN9L/t7AHkw0CLgQPsRDfTTKnUaBAQMyWAoG7bCPQYnU65RwmElIh2bOlgdfODTuKEc1O90zdKeLVyveA0/B5SeRNYl3M8BdcHmtFENqDSiGDSeXeaHgIWGDQhBwoiBcNpnpjYcrSCGIRRT9zAgaU0fJs5qknpV5eAaASkEi3jUhsHsBwEdVGuNaRSL4lCXJVtxOreL8d3I/hGpi2YPYVTd6yyYxb23uudaZ1aIZxdLEBzHErwkym8Jklw4JzBXpMMB1wvBAw4GjQzVOng1AwJmE0AvbiZjhEqMFBrNm5jPEJE77FlrImL2xf2GDEOcV+547bxAYca+onAUGQkJdFkntaYbCnZlNOtsGPvvSlZL5B7HGFLdB+w/5QqCUPofDJIagj3wzBXFBzqsgTtOSHmFWmXKVLAPMmVtYMaF8iB6wsWAqE7cn0FnkfsOiQQ+nw6v3dXyWVBxIqVDjlEg80FWCmRgrYHPrXLtYM/5DJJyOgtcFftCcg/R18Pz4N7mjBkCQoXDg1VHZcJj2S8Rg18yTJgqUZdAXmPdRC77/X8CDAAzGXYlLBhPNQAAAABJRU5ErkJggg==;" parent="1" vertex="1">
          <mxGeometry x="409.5" y="387" width="315" height="85" as="geometry"/>
        </mxCell>
      </root>
    </mxGraphModel>
  </diagram>
</mxfile>
